<svg width="859" height="300" viewBox="0 0 859 300" fill="none" xmlns="http://www.w3.org/2000/svg">
<path d="M326 46.4H386V252.8H326V46.4ZM398.6 204.5H462.8V252.8H398.6V204.5ZM602.905 149.6C602.905 132.2 602.805 120.8 602.605 115.4C602.205 107.2 601.105 101.3 599.305 97.7C597.505 93.9 594.605 91.6 590.605 90.8C586.605 90.2 580.905 89.9 573.505 89.9C564.905 89.9 559.305 90.3 556.705 91.1V44.3C558.505 44.1 561.205 44 564.805 44H573.505C595.905 44 613.205 45.8 625.405 49.4C637.805 52.8 646.805 58.5 652.405 66.5C657.605 73.9 660.805 83.6 662.005 95.6C663.405 107.6 664.105 125.6 664.105 149.6C664.105 170.6 663.605 186.8 662.605 198.2C661.805 209.4 659.605 218.7 656.005 226.1C652.005 234.5 645.805 240.9 637.405 245.3C629.205 249.7 617.705 252.6 602.905 254V149.6ZM573.505 255.2C544.305 255.2 523.305 252 510.505 245.6C503.905 242.4 498.705 238.1 494.905 232.7C491.105 227.3 488.305 220.6 486.505 212.6C484.905 205.6 483.905 197.6 483.505 188.6C483.105 179.4 482.905 166.4 482.905 149.6C482.905 128.6 483.305 112.5 484.105 101.3C485.105 90.1 487.405 80.7 491.005 73.1C495.005 64.9 501.105 58.6 509.305 54.2C517.505 49.8 529.105 46.8 544.105 45.2V149.6C544.105 161.4 544.305 172.7 544.705 183.5C545.105 191.7 546.105 197.7 547.705 201.5C549.505 205.3 552.405 207.5 556.405 208.1C559.805 208.9 565.505 209.3 573.505 209.3C581.705 209.3 587.305 209 590.305 208.4V254.9C588.505 255.1 585.805 255.2 582.205 255.2H573.505ZM766.177 44.6C774.177 44.2 780.777 44 785.977 44C803.977 44 820.477 45.2 835.477 47.6C843.077 48.4 850.377 49.6 857.377 51.2V94.1C848.977 93.3 842.677 92.6 838.477 92C835.077 91.8 829.577 91.3 821.977 90.5C814.377 90.1 809.377 89.9 806.977 89.9C794.777 89.9 785.777 90.2 779.977 90.8C774.377 91.2 769.777 92.4 766.177 94.4V44.6ZM785.977 255.2C765.977 255.2 749.977 253.7 737.977 250.7C726.177 247.7 716.977 242.4 710.377 234.8C703.777 227.2 699.077 216.7 696.277 203.3C693.677 189.9 692.377 172 692.377 149.6C692.377 130.6 693.277 115 695.077 102.8C696.877 90.6 699.977 80.6 704.377 72.8C708.977 64.8 715.177 58.7 722.977 54.5C730.777 50.3 740.977 47.4 753.577 45.8V149.6C753.577 163.8 753.977 174.7 754.777 182.3C755.577 189.7 757.077 195.4 759.277 199.4C761.677 203.6 765.077 206.5 769.477 208.1C774.077 209.7 780.577 210.5 788.977 210.5V255.2H785.977ZM801.577 173.6H780.277V130.1H858.277V247.7C848.877 249.9 837.177 251.6 823.177 252.8C816.377 253.8 809.177 254.4 801.577 254.6V173.6Z" fill="white"/>
<mask id="path-2-inside-1_43_70" fill="white">
<path fill-rule="evenodd" clip-rule="evenodd" d="M150 300C232.843 300 300 232.843 300 150C300 67.1573 232.843 0 150 0C67.1573 0 0 67.1573 0 150C0 232.843 67.1573 300 150 300ZM150 240C199.706 240 240 199.706 240 150C240 100.294 199.706 60 150 60C100.294 60 60 100.294 60 150C60 199.706 100.294 240 150 240Z"/>
</mask>
<path fill-rule="evenodd" clip-rule="evenodd" d="M150 300C232.843 300 300 232.843 300 150C300 67.1573 232.843 0 150 0C67.1573 0 0 67.1573 0 150C0 232.843 67.1573 300 150 300ZM150 240C199.706 240 240 199.706 240 150C240 100.294 199.706 60 150 60C100.294 60 60 100.294 60 150C60 199.706 100.294 240 150 240Z" fill="#FFA500"/>
<path d="M299 150C299 232.29 232.29 299 150 299V301C233.395 301 301 233.395 301 150H299ZM150 1C232.29 1 299 67.7096 299 150H301C301 66.605 233.395 -1 150 -1V1ZM1 150C1 67.7096 67.7096 1 150 1V-1C66.605 -1 -1 66.605 -1 150H1ZM150 299C67.7096 299 1 232.29 1 150H-1C-1 233.395 66.605 301 150 301V299ZM239 150C239 199.153 199.153 239 150 239V241C200.258 241 241 200.258 241 150H239ZM150 61C199.153 61 239 100.847 239 150H241C241 99.7421 200.258 59 150 59V61ZM61 150C61 100.847 100.847 61 150 61V59C99.7421 59 59 99.7421 59 150H61ZM150 239C100.847 239 61 199.153 61 150H59C59 200.258 99.7421 241 150 241V239Z" fill="#FFA500" mask="url(#path-2-inside-1_43_70)"/>
</svg>
