<svg width="851" height="252" viewBox="0 0 851 252" fill="none" xmlns="http://www.w3.org/2000/svg">
<path d="M108.101 249.79C99.0387 248.566 86.9885 245.22 77.9838 241.426C41.0976 225.886 14.0903 194.362 4.52521 155.678C1.85765 144.89 0.996751 137.541 1.00001 125.585C1.00273 115.528 1.46287 110.509 3.19619 101.632C9.96563 66.9602 31.1535 36.6559 61.4698 18.2871C65.194 16.0303 75.5053 10.7383 76.1781 10.7383C76.3824 10.7383 77.6918 14.1812 79.0878 18.3889L81.6259 26.0396L98.8174 26.219L100.74 32.0147C101.797 35.2023 102.713 37.9617 102.775 38.1467C102.837 38.3316 102.06 39.0769 101.047 39.8028C100.034 40.5288 99.2053 41.2907 99.2053 41.4959C99.2053 41.7011 100.036 44.3557 101.052 47.395C102.068 50.4345 102.899 53.0782 102.899 53.27C102.899 53.4619 101.895 53.97 100.667 54.399C93.9568 56.7446 86.5345 60.7557 80.4006 65.3517C76.741 68.0936 69.6248 75.0312 66.883 78.5303C45.6591 105.613 45.0157 143.179 65.3056 170.651C71.0478 178.426 78.4363 185.251 86.1816 189.935C87.6065 190.797 88.7743 191.578 88.7769 191.67C88.7795 191.763 87.9536 192.432 86.9419 193.159C85.93 193.884 85.1022 194.565 85.1022 194.672C85.1022 194.778 87.0765 200.767 89.4893 207.981L93.8764 221.097L114.927 237.493L114.159 239.552C113.737 240.684 112.744 243.427 111.953 245.647C111.161 247.867 110.425 249.769 110.317 249.874C110.208 249.981 109.213 249.944 108.105 249.794L108.101 249.79Z" fill="#FDAE0C" stroke="#817C7A" stroke-opacity="0.6" stroke-width="0.549253"/>
<path d="M104.165 40.1657C103.577 38.6169 102.939 39.234 112.147 32.4451L119.39 27.1055L120.824 27.9541C122.035 28.671 122.411 28.707 123.244 28.186C124.104 27.6481 124.468 27.7339 126.084 28.8557C127.104 29.5633 127.927 30.4877 127.914 30.9099C127.902 31.3321 127.08 33.8178 126.087 36.4336L124.284 41.1897L104.652 41.4469L104.165 40.1657Z" fill="#FDAE0C" stroke="#817C7A" stroke-opacity="0.6" stroke-width="0.549253"/>
<path d="M104.79 17.727C101.852 15.9947 99.4482 14.3544 99.4482 14.082C99.4482 13.6507 116.106 1 116.673 1C116.792 1 115.478 5.49451 113.753 10.9878C112.029 16.4811 110.509 20.9536 110.376 20.9263C110.242 20.8992 107.728 19.4594 104.79 17.727Z" fill="#FDAE0C" stroke="#817C7A" stroke-opacity="0.6" stroke-width="0.549253"/>
<path d="M128.745 13.6634C127.518 9.94971 126.515 6.76247 126.515 6.58069C126.515 6.39891 128.92 7.97385 131.857 10.0805C134.796 12.1871 137.201 14.0886 137.201 14.3061C137.201 14.5236 135.799 15.9872 134.087 17.5584L130.974 20.4153L128.745 13.6634Z" fill="#FDAE0C" stroke="#817C7A" stroke-opacity="0.6" stroke-width="0.549253"/>
<path d="M141.33 5.26862C140.31 3.05173 139.605 1.18821 139.761 1.12749C139.918 1.06676 141.683 1.28078 143.681 1.60309L147.317 2.1891L143.183 9.29908L141.33 5.26862Z" fill="#FDAE0C" stroke="#817C7A" stroke-opacity="0.6" stroke-width="0.549253"/>
<path d="M154.534 25.7696C152.12 25.5973 150.116 25.1975 149.548 24.7748C148.695 24.1404 144.706 19.9498 141.794 16.6281L140.692 15.3712L144.39 8.89949C146.424 5.34004 148.364 2.42773 148.702 2.42773C150.385 2.42773 165.052 6.30532 165.84 6.95792C165.92 7.02429 164.637 11.3816 162.99 16.6407C160.777 23.7054 159.809 26.1844 159.282 26.1305C158.891 26.0904 156.754 25.9281 154.534 25.7696Z" fill="#FDAE0C" stroke="#817C7A" stroke-opacity="0.6" stroke-width="0.549253"/>
<path d="M151.21 54.2017C150.557 53.9384 148.125 53.2117 145.806 52.5868C143.486 51.9619 141.497 51.358 141.383 51.2449C141.271 51.1316 141.879 48.7371 142.735 45.9234C144.264 40.8958 144.275 40.7972 143.358 40.1817C142.844 39.8371 140.987 38.5161 139.23 37.246L136.035 34.9368L141.295 31.0478C148.575 25.6654 148.784 25.6755 154.282 31.675C157.657 35.3566 158.614 36.1429 159.459 35.9302C160.355 35.7055 160.575 35.9529 161.055 37.7159L161.612 39.7624L157.442 47.1068C155.149 51.1463 153.077 54.5031 152.836 54.5657C152.595 54.6287 151.863 54.4649 151.21 54.2017Z" fill="#FDAE0C" stroke="#817C7A" stroke-opacity="0.6" stroke-width="0.549253"/>
<path d="M122.235 49.6339C122.234 49.4377 122.797 47.7255 123.487 45.8291C124.543 42.921 124.91 42.3809 125.825 42.3809C126.743 42.3809 127.072 42.8738 127.967 45.5911C128.549 47.3568 129.124 49.0691 129.244 49.3961C129.407 49.8388 128.54 49.9906 125.85 49.9906C123.863 49.9906 122.237 49.8301 122.235 49.6339Z" fill="#FDAE0C" stroke="#817C7A" stroke-opacity="0.6" stroke-width="0.549253"/>
<path d="M189.392 29.3125L184.124 25.2206L183.553 19.9493C183.24 17.0501 183.088 14.5724 183.217 14.4434C183.576 14.0833 190.713 18.3099 196.796 22.4849C203.585 27.1447 204.723 28.0851 204.085 28.5018C203.811 28.6799 202.211 29.7317 200.527 30.8393C195.605 34.0764 195.507 34.0631 189.392 29.3125Z" fill="#FDAE0C" stroke="#817C7A" stroke-opacity="0.6" stroke-width="0.549253"/>
<path d="M176.766 32.7223L169.792 31.2008L172.73 29.9271C174.346 29.2265 177.31 27.9008 179.316 26.981L182.965 25.3086L188.008 29.2816C193.705 33.771 193.753 33.5254 187.065 34.0053C184.449 34.193 182.256 33.9199 176.766 32.7223Z" fill="#FDAE0C" stroke="#817C7A" stroke-opacity="0.6" stroke-width="0.549253"/>
<path d="M177.245 69.7306C175.515 68.3308 172.337 65.8902 166.525 61.498L165.461 60.6925L168.598 50.8019C171.51 41.6246 171.681 40.8501 170.97 40.0631C170.162 39.169 169.983 37.7419 170.566 36.8636C170.759 36.5754 173.984 36.0618 177.734 35.7222C183.965 35.1578 184.933 35.1799 188.996 35.9799C191.642 36.5008 193.542 37.1183 193.69 37.5048C193.827 37.8622 193.4 38.6241 192.742 39.1979L191.544 40.2413L193.261 45.2352C194.75 49.5641 196.725 60.2109 196.146 60.7902C196.052 60.8833 194.896 61.0877 193.574 61.2446L191.171 61.5295L190.857 63.8216C190.684 65.0823 190.292 66.3173 189.99 66.5661C189.461 66.998 179.91 71.3934 179.498 71.3934C179.389 71.3934 178.375 70.6454 177.245 69.7306Z" fill="#FDAE0C" stroke="#817C7A" stroke-opacity="0.6" stroke-width="0.549253"/>
<path d="M208.878 59.0759C209.076 58.7555 207.024 53.5203 204.171 47.0659C201.388 40.7726 199.203 35.5327 199.315 35.4208C200.291 34.4434 206.566 30.0242 206.838 30.1227C208.717 30.8017 224.82 47.7857 224.82 49.0882C224.82 49.3103 223.698 51.5129 222.327 53.9828C219.515 59.0453 220.272 58.6433 212.281 59.3242C209.428 59.5673 208.612 59.5077 208.878 59.0759Z" fill="#FDAE0C" stroke="#817C7A" stroke-opacity="0.6" stroke-width="0.549253"/>
<path d="M189.511 84.4919C187.731 81.8075 187.724 81.7766 188.294 79.3273C188.833 77.0075 189.202 76.5642 194.612 71.7513L200.359 66.6394L207.602 66.6387C211.584 66.6382 214.843 66.7559 214.843 66.9003C214.843 67.0446 214.363 67.9989 213.776 69.021L212.707 70.8792L216.98 75.3042L195.757 74.9609L193.676 80.6683C192.53 83.8073 191.528 86.5593 191.448 86.7841C191.368 87.0086 190.495 85.9772 189.511 84.4919Z" fill="#FDAE0C" stroke="#817C7A" stroke-opacity="0.6" stroke-width="0.549253"/>
<path d="M229.988 88.3939L228.31 86.3725L230.695 84.3722L226.997 76.0983C224.963 71.5475 223.189 67.5567 223.056 67.2298C222.878 66.7936 223.566 66.6353 225.64 66.6353H228.466L229.749 62.3547C230.455 60.0006 231.12 58.0742 231.229 58.0742C231.845 58.0742 240.485 74.0495 240.485 75.1867C240.485 75.4536 240.112 75.672 239.654 75.6721C238.971 75.6722 238.58 76.819 237.453 82.1156L236.084 88.559L234.267 89.4874C233.268 89.998 232.273 90.4157 232.057 90.4157C231.841 90.4157 230.909 89.5056 229.988 88.3939Z" fill="#FDAE0C" stroke="#817C7A" stroke-opacity="0.6" stroke-width="0.549253"/>
<path d="M230.599 116.325C229.207 115.986 227.967 115.605 227.841 115.478C227.715 115.352 228.105 113.594 228.708 111.572C229.714 108.198 230.004 107.742 232.23 106.044L234.655 104.195L242.524 108.801C250.729 113.603 252.1 114.922 249.345 115.357C247.455 115.655 233.685 117.068 233.366 116.996C233.235 116.967 231.99 116.665 230.599 116.325Z" fill="#FDAE0C" stroke="#817C7A" stroke-opacity="0.6" stroke-width="0.549253"/>
<path d="M201.545 123.872C201.545 119.797 201.683 119.04 202.763 117.194L203.981 115.113L205.943 116.558C207.022 117.353 208.133 118.004 208.411 118.004C208.689 118.004 210.345 117.043 212.093 115.869C213.84 114.695 215.547 113.821 215.887 113.927C216.226 114.033 217.074 114.244 217.771 114.396C218.885 114.639 219.214 115.205 220.513 119.111C221.868 123.181 221.947 123.754 221.463 126.007L220.937 128.466H201.546L201.545 123.872Z" fill="#FDAE0C" stroke="#817C7A" stroke-opacity="0.6" stroke-width="0.549253"/>
<path d="M201.904 112.186C200.465 110.887 200.022 109.994 199.212 106.752C198.677 104.618 197.73 101.465 197.107 99.7438C196.275 97.4508 196.118 96.4953 196.514 96.166C196.876 95.8649 199.054 96.8811 203.127 99.2504C206.466 101.194 209.402 102.784 209.649 102.784C209.896 102.784 212.128 100.947 214.61 98.7023C217.092 96.4572 219.294 94.6915 219.503 94.7785C219.711 94.8654 222.26 96.6285 225.167 98.6968L230.453 102.457L215.111 112.925L205.343 111.024L203.626 113.74L201.904 112.186Z" fill="#FDAE0C" stroke="#817C7A" stroke-opacity="0.6" stroke-width="0.549253"/>
<path d="M195.728 93.9198C194.537 93.2948 192.049 89.2953 192.049 88.0057C192.049 87.7112 192.625 85.8431 193.33 83.8543L194.612 80.2383L195.85 83.2779H224.272L225.256 84.531C225.798 85.2202 226.241 86.0719 226.241 86.4236C226.241 87.0271 224.137 89.152 220.659 92.0606L219.114 93.3529L214.486 90.0633C211.939 88.254 209.589 86.6167 209.264 86.4247C208.899 86.2099 206.617 87.6032 203.328 90.0496C200.389 92.2353 197.77 94.154 197.508 94.3136C197.246 94.4733 196.445 94.2961 195.728 93.9198Z" fill="#FDAE0C" stroke="#817C7A" stroke-opacity="0.6" stroke-width="0.549253"/>
<path d="M228.471 140.47C228.361 140.274 227.278 137.112 226.065 133.444L223.86 126.774L225.21 122.755C226.664 118.421 226.975 118.145 230.537 118.045L232.221 117.998L233.313 128.343C233.912 134.032 234.513 139.169 234.649 139.758C234.883 140.783 234.764 140.827 231.783 140.827C230.072 140.827 228.582 140.666 228.471 140.47Z" fill="#FDAE0C" stroke="#817C7A" stroke-opacity="0.6" stroke-width="0.549253"/>
<path d="M233.264 153.987C226.454 150.009 224.936 148.913 226.227 148.913C226.479 148.913 228.924 147.844 231.658 146.536C236.592 144.176 236.667 144.158 241.343 144.158H246.056L247.132 147.94C247.723 150.021 248.094 152.017 247.956 152.378C247.636 153.211 241.713 158.44 241.149 158.385C240.916 158.363 237.368 156.384 233.264 153.987Z" fill="#FDAE0C" stroke="#817C7A" stroke-opacity="0.6" stroke-width="0.549253"/>
<path d="M202.303 143.449L201 142.382L202.686 137L209.023 143.923L206.842 144.222C203.781 144.643 203.753 144.638 202.303 143.449Z" fill="#FDAE0C" stroke="#817C7A" stroke-opacity="0.6" stroke-width="0.549253"/>
<path d="M213.081 190.176C212.173 188.989 205.157 172.517 205.218 171.716C205.251 171.263 206.149 168.169 207.211 164.839C208.275 161.508 209.145 158.608 209.145 158.393C209.145 158.179 207.41 156.762 205.29 155.244L201.437 152.484L203.747 152.189C205.992 151.901 206.12 151.953 208.246 154.006L210.435 156.121L212.236 155.366C213.228 154.952 214.085 154.668 214.139 154.738C214.195 154.805 213.096 157.966 211.698 161.759C210.3 165.551 209.155 168.776 209.151 168.924C209.146 169.115 222.811 179.996 223.732 180.534C223.79 180.568 223.709 181.38 223.554 182.341C223.323 183.771 222.589 184.692 219.508 187.429C215.775 190.746 214.071 191.474 213.081 190.176Z" fill="#FDAE0C" stroke="#817C7A" stroke-opacity="0.6" stroke-width="0.549253"/>
<path d="M229.023 183.676L226.86 181.938L230.589 178.639C232.638 176.826 234.316 175.166 234.316 174.952C234.316 174.738 233.897 173.739 233.384 172.733L232.453 170.904L236.115 170.585C238.129 170.409 240.472 170.148 241.321 170.002C242.281 169.838 242.865 169.934 242.865 170.257C242.865 170.543 241.898 172.974 240.716 175.661L238.568 180.545L231.186 185.415L229.023 183.676Z" fill="#FDAE0C" stroke="#817C7A" stroke-opacity="0.6" stroke-width="0.549253"/>
<path d="M194.424 181.899C192.466 180.719 190.692 179.59 190.483 179.387C190.273 179.185 190.352 178.023 190.658 176.803C191.281 174.327 191.258 174.339 196.561 173.89C198.39 173.735 200.772 173.489 201.856 173.342L203.826 173.078L202.093 178.591C200.482 183.72 200.278 184.103 199.174 184.074C198.521 184.057 196.383 183.078 194.424 181.899Z" fill="#FDAE0C" stroke="#817C7A" stroke-opacity="0.6" stroke-width="0.549253"/>
<path d="M205.933 215.219C203.52 213.499 201.546 211.917 201.546 211.704C201.546 211.383 209.891 203.682 215.078 199.217L216.499 197.993L215.412 195.752C214.426 193.72 214.394 193.435 215.06 192.698C215.693 191.996 216.155 191.951 218.446 192.366L221.099 192.849L220.782 194.962C220.608 196.125 220.362 197.346 220.236 197.677C220.099 198.032 221.085 198.895 222.648 199.791C224.102 200.624 225.291 201.469 225.291 201.667C225.291 202.314 217.879 210.883 214.048 214.667L210.32 218.348L205.933 215.219Z" fill="#FDAE0C" stroke="#817C7A" stroke-opacity="0.6" stroke-width="0.549253"/>
<path d="M176.74 236.745L172.115 235.743L169.92 229.148C168.712 225.519 167.909 222.383 168.134 222.177C169.215 221.191 184.731 211.062 185.161 211.062C185.431 211.062 187.768 212.284 190.352 213.779C192.935 215.274 195.316 216.395 195.64 216.27C195.965 216.146 197.844 217.819 199.817 219.99L203.405 223.936L202.358 224.917C199.575 227.52 182.466 238.104 181.53 237.8C181.44 237.771 179.283 237.296 176.74 236.745Z" fill="#FDAE0C" stroke="#817C7A" stroke-opacity="0.6" stroke-width="0.549253"/>
<path d="M164.845 219.28C164.163 217.696 163.732 216.072 163.886 215.67C164.054 215.229 163.666 214.475 162.911 213.773C162.221 213.132 161.657 212.296 161.657 211.913C161.657 211.466 161.171 211.219 160.29 211.219C157.796 211.219 157.647 210.358 159.255 205.211C160.053 202.651 160.707 200.394 160.707 200.197C160.707 200 159.427 198.933 157.86 197.828L155.015 195.818L159.404 193.628C164.046 191.312 168.359 188.683 171.223 186.425C173.208 184.861 175.155 184.57 174.786 185.893C174.658 186.351 173.883 189.937 173.063 193.86C172.243 197.784 171.471 201.344 171.348 201.772C171.184 202.342 172.176 203.161 175.058 204.832C177.22 206.087 179.389 207.379 179.877 207.704C180.676 208.237 180.033 208.838 173.348 213.802C169.268 216.83 165.931 219.401 165.931 219.513C165.931 219.626 166.139 220.267 166.394 220.938C167.347 223.448 166.036 222.045 164.845 219.28Z" fill="#FDAE0C" stroke="#817C7A" stroke-opacity="0.6" stroke-width="0.549253"/>
<path d="M142.66 222.929C138.621 219.957 137.805 218.94 137.222 216.154C136.853 214.386 136.675 214.438 146.287 213.556C152.357 213 152.565 213.012 153.944 213.994L155.363 215.006L151.921 225.96L149.308 225.93C146.872 225.902 146.426 225.701 142.66 222.929Z" fill="#FDAE0C" stroke="#817C7A" stroke-opacity="0.6" stroke-width="0.549253"/>
<path d="M96.3332 215.858C100.901 203.264 102.756 198.233 102.876 198.115C102.991 198 110.334 199.623 114.367 200.654C115.661 200.984 115.898 201.439 117.866 207.35C119.624 212.633 119.885 213.864 119.427 214.72C118.997 215.526 119.036 216.198 119.609 217.825C120.012 218.966 120.341 219.981 120.341 220.079C120.341 220.177 114.58 220.257 107.539 220.257H94.7373L96.3332 215.858Z" fill="#FDAE0C" stroke="#817C7A" stroke-opacity="0.6" stroke-width="0.549253"/>
<path d="M121.006 250.842C120.516 250.48 116.541 239.121 116.543 238.088C116.543 237.827 117.474 237.025 118.611 236.305C120.147 235.334 121.282 234.998 123.028 234.998H125.378L127.504 241.606L141.898 249.979L139.549 250.282C135.358 250.824 121.544 251.24 121.006 250.842Z" fill="#FDAE0C" stroke="#817C7A" stroke-opacity="0.6" stroke-width="0.549253"/>
<path d="M144.987 237.971L144.277 235.237L137.176 234.823C133.271 234.595 130.017 234.359 129.946 234.297C129.657 234.047 131.231 228.238 131.759 227.6C132.21 227.056 133.845 226.914 139.62 226.914H146.911L150.977 229.827C153.215 231.43 154.983 232.88 154.907 233.048C154.831 233.216 153.846 235.009 152.717 237.031L150.666 240.706H145.696L144.987 237.971Z" fill="#FDAE0C" stroke="#817C7A" stroke-opacity="0.6" stroke-width="0.549253"/>
<path d="M156.436 247.22C156.438 247.169 157.264 244.523 158.271 241.342L160.101 235.558L159.096 234.515C158.123 233.506 158.122 233.482 159.041 233.752C159.564 233.906 162.511 234.544 165.59 235.169C168.671 235.794 171.293 236.41 171.419 236.535C171.606 236.722 166.854 241.182 162.365 245.033C161.613 245.679 156.41 247.598 156.436 247.22Z" fill="#FDAE0C" stroke="#817C7A" stroke-opacity="0.6" stroke-width="0.549253"/>
<path d="M135.586 210.384C133.835 204.422 133.685 205.087 137.409 202.3C139.243 200.926 140.967 199.803 141.238 199.803C141.511 199.803 142.575 200.361 143.606 201.045L145.48 202.286L144.784 203.956C144.4 204.875 144.087 205.784 144.087 205.977C144.087 206.171 145.706 207.572 147.686 209.089C150.131 210.966 151.083 211.957 150.654 212.182C150.024 212.514 140.172 213.596 137.787 213.596C136.643 213.596 136.442 213.303 135.586 210.384Z" fill="#FDAE0C" stroke="#817C7A" stroke-opacity="0.6" stroke-width="0.549253"/>
<path d="M125.567 209.493C125.567 209.297 126.146 207.358 126.852 205.184L128.137 201.232H130.176C131.298 201.232 132.216 201.287 132.216 201.354C132.216 201.421 132.412 202.163 132.652 203.002C133.08 204.492 133.017 204.581 129.921 206.848C126.161 209.603 125.567 209.964 125.567 209.493Z" fill="#FDAE0C" stroke="#817C7A" stroke-opacity="0.6" stroke-width="0.549253"/>
<path d="M192.749 205.779C190.407 204.103 188.394 202.831 188.275 202.951C188.086 203.139 183.08 186.363 183.042 185.417C183.034 185.22 186.461 185.059 190.658 185.059H198.289L207.559 190.468L202.589 199.298C199.856 204.154 197.481 208.284 197.313 208.475C197.145 208.666 195.091 207.453 192.749 205.779Z" fill="#FDAE0C" stroke="#817C7A" stroke-opacity="0.6" stroke-width="0.549253"/>
<path d="M216.914 145.639C215.376 144.716 214.074 143.92 214.02 143.872C213.965 143.822 214.028 143.363 214.161 142.852C214.389 141.981 214.792 141.929 220.435 142.046C223.753 142.114 227.215 142.302 228.128 142.463C229.789 142.755 229.787 142.757 225.754 144.642C219.459 147.584 220.04 147.518 216.914 145.639Z" fill="#FDAE0C" stroke="#817C7A" stroke-opacity="0.6" stroke-width="0.549253"/>
<path d="M234.116 102.851C233.902 102.503 236.488 89.4568 236.823 89.1938C236.934 89.1072 240.801 87.3678 243.173 86.3372L244.674 85.6855L245.649 88.9001C246.799 92.6891 249.033 101.799 249.034 102.699C249.034 103.047 247.372 102.153 245.293 100.685L241.551 98.0446L239.475 99.6075C235.526 102.581 234.378 103.276 234.116 102.851Z" fill="#FDAE0C" stroke="#817C7A" stroke-opacity="0.6" stroke-width="0.549253"/>
<path d="M240.918 137.207L246.169 133.691L250.697 119.273L250.943 122.559C251.165 125.541 250.691 139.834 250.36 140.112C250.285 140.175 246.947 140.338 242.943 140.475L235.665 140.722L240.918 137.207Z" fill="#FDAE0C" stroke="#817C7A" stroke-opacity="0.6" stroke-width="0.549253"/>
<path d="M216.776 163.662L213.347 159.858L213.918 158.074C214.23 157.093 214.626 156.134 214.796 155.945C214.967 155.756 218.78 155.237 223.272 154.792C229.716 154.153 231.699 154.102 232.677 154.547C233.359 154.859 233.845 155.331 233.756 155.598C233.562 156.178 220.975 167.466 220.522 167.466C220.349 167.466 218.664 165.754 216.778 163.662H216.776Z" fill="#FDAE0C" stroke="#817C7A" stroke-opacity="0.6" stroke-width="0.549253"/>
<path d="M79.047 9.62467C81.2081 8.22351 98.6785 2.92751 99.2503 3.50015C99.3789 3.6289 99.1201 5.0456 98.6751 6.64836L97.8661 9.56248H90.4119C86.3122 9.56248 81.9132 9.68342 80.6361 9.83124C78.9977 10.0209 78.5298 9.96005 79.047 9.62467Z" fill="#FDAE0C" stroke="#817C7A" stroke-opacity="0.6" stroke-width="0.549253"/>
<path d="M270.5 23.5992H330.5V229.999H270.5V23.5992ZM343.1 181.699H407.3V229.999H343.1V181.699ZM547.405 126.799C547.405 109.399 547.305 97.9992 547.105 92.5992C546.705 84.3992 545.605 78.4992 543.805 74.8992C542.005 71.0992 539.105 68.7992 535.105 67.9992C531.105 67.3992 525.405 67.0992 518.005 67.0992C509.405 67.0992 503.805 67.4992 501.205 68.2992V21.4992C503.005 21.2992 505.705 21.1992 509.305 21.1992H518.005C540.405 21.1992 557.705 22.9992 569.905 26.5992C582.305 29.9992 591.305 35.6992 596.905 43.6992C602.105 51.0992 605.305 60.7992 606.505 72.7992C607.905 84.7992 608.605 102.799 608.605 126.799C608.605 147.799 608.105 163.999 607.105 175.399C606.305 186.599 604.105 195.899 600.505 203.299C596.505 211.699 590.305 218.099 581.905 222.499C573.705 226.899 562.205 229.799 547.405 231.199V126.799ZM518.005 232.399C488.805 232.399 467.805 229.199 455.005 222.799C448.405 219.599 443.205 215.299 439.405 209.899C435.605 204.499 432.805 197.799 431.005 189.799C429.405 182.799 428.405 174.799 428.005 165.799C427.605 156.599 427.405 143.599 427.405 126.799C427.405 105.799 427.805 89.6992 428.605 78.4992C429.605 67.2992 431.905 57.8992 435.505 50.2992C439.505 42.0992 445.605 35.7992 453.805 31.3992C462.005 26.9992 473.605 23.9992 488.605 22.3992V126.799C488.605 138.599 488.805 149.899 489.205 160.699C489.605 168.899 490.605 174.899 492.205 178.699C494.005 182.499 496.905 184.699 500.905 185.299C504.305 186.099 510.005 186.499 518.005 186.499C526.205 186.499 531.805 186.199 534.805 185.599V232.099C533.005 232.299 530.305 232.399 526.705 232.399H518.005ZM710.677 21.7992C718.677 21.3992 725.277 21.1992 730.477 21.1992C748.477 21.1992 764.977 22.3992 779.977 24.7992C787.577 25.5992 794.877 26.7992 801.877 28.3992V71.2992C793.477 70.4992 787.177 69.7992 782.977 69.1992C779.577 68.9992 774.077 68.4992 766.477 67.6992C758.877 67.2992 753.877 67.0992 751.477 67.0992C739.277 67.0992 730.277 67.3992 724.477 67.9992C718.877 68.3992 714.277 69.5992 710.677 71.5992V21.7992ZM730.477 232.399C710.477 232.399 694.477 230.899 682.477 227.899C670.677 224.899 661.477 219.599 654.877 211.999C648.277 204.399 643.577 193.899 640.777 180.499C638.177 167.099 636.877 149.199 636.877 126.799C636.877 107.799 637.777 92.1992 639.577 79.9992C641.377 67.7992 644.477 57.7992 648.877 49.9992C653.477 41.9992 659.677 35.8992 667.477 31.6992C675.277 27.4992 685.477 24.5992 698.077 22.9992V126.799C698.077 140.999 698.477 151.899 699.277 159.499C700.077 166.899 701.577 172.599 703.777 176.599C706.177 180.799 709.577 183.699 713.977 185.299C718.577 186.899 725.077 187.699 733.477 187.699V232.399H730.477ZM746.077 150.799H724.777V107.299H802.777V224.899C793.377 227.099 781.677 228.799 767.677 229.999C760.877 230.999 753.677 231.599 746.077 231.799V150.799Z" fill="#333333"/>
</svg>
