<svg width="851" height="252" viewBox="0 0 851 252" fill="none" xmlns="http://www.w3.org/2000/svg">
<g id="logo">
<g id="art">
<path id="arc" d="M108.101 249.79C99.0387 248.566 86.9885 245.22 77.9838 241.426C41.0976 225.886 14.0903 194.362 4.52521 155.678C1.85765 144.89 0.996752 137.541 1.00001 125.585C1.00273 115.528 1.46287 110.509 3.19619 101.632C9.96563 66.9602 31.1535 36.6559 61.4698 18.2871C65.194 16.0303 75.5053 10.7383 76.1781 10.7383C76.3824 10.7383 77.6918 14.1812 79.0878 18.3889L81.6259 26.0396L98.8174 26.219L100.74 32.0147C101.797 35.2023 102.713 37.9617 102.775 38.1467C102.837 38.3316 102.06 39.0769 101.047 39.8028C100.034 40.5288 99.2053 41.2907 99.2053 41.4959C99.2053 41.7011 100.036 44.3557 101.052 47.395C102.068 50.4345 102.899 53.0782 102.899 53.27C102.899 53.4619 101.895 53.97 100.667 54.399C93.9568 56.7446 86.5345 60.7557 80.4006 65.3517C76.741 68.0936 69.6248 75.0312 66.883 78.5303C45.6591 105.613 45.0157 143.179 65.3056 170.651C71.0478 178.426 78.4363 185.251 86.1816 189.935C87.6065 190.797 88.7743 191.578 88.7769 191.67C88.7795 191.763 87.9536 192.432 86.9419 193.159C85.93 193.884 85.1022 194.565 85.1022 194.672C85.1022 194.778 87.0765 200.767 89.4893 207.981L93.8764 221.097L114.927 237.493L114.159 239.552C113.737 240.684 112.744 243.427 111.953 245.647C111.161 247.867 110.425 249.769 110.317 249.874C110.208 249.981 109.213 249.944 108.105 249.794L108.101 249.79Z" fill="#FDAE0C" stroke="#817C7A" stroke-opacity="0.6" stroke-width="0.549253"/>
<path id="Vector" d="M104.165 40.1663C103.577 38.6175 102.939 39.2346 112.147 32.4457L119.39 27.1061L120.824 27.9547C122.035 28.6716 122.411 28.7076 123.244 28.1866C124.104 27.6487 124.468 27.7345 126.084 28.8563C127.104 29.5639 127.927 30.4883 127.914 30.9105C127.902 31.3327 127.08 33.8184 126.087 36.4342L124.284 41.1903L104.652 41.4475L104.165 40.1663Z" fill="#FDAE0C" stroke="#817C7A" stroke-opacity="0.6" stroke-width="0.549253"/>
<path id="Vector 2" d="M104.79 17.727C101.852 15.9947 99.4478 14.3544 99.4478 14.082C99.4478 13.6507 116.106 1 116.673 1C116.792 1 115.478 5.49451 113.753 10.9878C112.029 16.4811 110.509 20.9536 110.376 20.9263C110.242 20.8992 107.728 19.4595 104.79 17.7271L104.79 17.727Z" fill="#FDAE0C" stroke="#817C7A" stroke-opacity="0.6" stroke-width="0.549253"/>
<path id="Vector 3" d="M128.745 13.664C127.518 9.95029 126.515 6.76305 126.515 6.58127C126.515 6.39949 128.92 7.97443 131.857 10.0811C134.796 12.1877 137.201 14.0892 137.201 14.3067C137.201 14.5242 135.799 15.9878 134.087 17.559L130.974 20.4159L128.745 13.664Z" fill="#FDAE0C" stroke="#817C7A" stroke-opacity="0.6" stroke-width="0.549253"/>
<path id="Vector 4" d="M141.33 5.26957C140.31 3.05268 139.605 1.18916 139.761 1.12844C139.918 1.06771 141.683 1.28173 143.681 1.60404L147.317 2.19005L143.183 9.30003L141.33 5.26957Z" fill="#FDAE0C" stroke="#817C7A" stroke-opacity="0.6" stroke-width="0.549253"/>
<path id="Vector 5" d="M154.534 25.7705C152.12 25.5982 150.116 25.1984 149.548 24.7757C148.695 24.1413 144.706 19.9507 141.794 16.629L140.692 15.3721L144.39 8.90035C146.424 5.3409 148.364 2.42859 148.702 2.42859C150.385 2.42859 165.052 6.30618 165.84 6.95878C165.92 7.02515 164.637 11.3825 162.99 16.6416C160.777 23.7063 159.809 26.1853 159.282 26.1314C158.891 26.0913 156.754 25.9287 154.534 25.7702V25.7705Z" fill="#FDAE0C" stroke="#817C7A" stroke-opacity="0.6" stroke-width="0.549253"/>
<path id="Vector 6" d="M151.21 54.2025C150.557 53.9392 148.125 53.2125 145.806 52.5876C143.486 51.9627 141.497 51.3588 141.383 51.2457C141.271 51.1324 141.879 48.7379 142.735 45.9242C144.264 40.8966 144.275 40.798 143.358 40.1825C142.844 39.8379 140.987 38.5169 139.23 37.2468L136.035 34.9376L141.295 31.0486C148.575 25.6662 148.784 25.6763 154.282 31.6758C157.657 35.3574 158.614 36.1437 159.459 35.931C160.355 35.7063 160.575 35.9537 161.055 37.7167L161.612 39.7632L157.442 47.1076C155.149 51.1471 153.077 54.5039 152.836 54.5665C152.595 54.6295 151.863 54.4655 151.21 54.2023V54.2025Z" fill="#FDAE0C" stroke="#817C7A" stroke-opacity="0.6" stroke-width="0.549253"/>
<path id="Vector 7" d="M122.235 49.6347C122.234 49.4385 122.797 47.7263 123.487 45.8299C124.543 42.9218 124.91 42.3817 125.825 42.3817C126.743 42.3817 127.072 42.8746 127.967 45.5919C128.549 47.3576 129.124 49.0699 129.244 49.3969C129.407 49.8396 128.54 49.9914 125.85 49.9914C123.863 49.9914 122.237 49.8309 122.235 49.6347Z" fill="#FDAE0C" stroke="#817C7A" stroke-opacity="0.6" stroke-width="0.549253"/>
<path id="Vector 8" d="M189.392 29.3128L184.124 25.2209L183.553 19.9496C183.24 17.0504 183.088 14.5727 183.217 14.4437C183.576 14.0836 190.713 18.3102 196.796 22.4852C203.585 27.145 204.723 28.0854 204.085 28.5021C203.811 28.6802 202.211 29.732 200.527 30.8396C195.605 34.0767 195.507 34.0633 189.392 29.3127V29.3128Z" fill="#FDAE0C" stroke="#817C7A" stroke-opacity="0.6" stroke-width="0.549253"/>
<path id="Vector 9" d="M176.766 32.722L169.792 31.2005L172.73 29.9268C174.346 29.2262 177.31 27.9005 179.316 26.9807L182.965 25.3083L188.008 29.2813C193.705 33.7707 193.753 33.5251 187.065 34.005C184.449 34.1927 182.256 33.9196 176.766 32.722Z" fill="#FDAE0C" stroke="#817C7A" stroke-opacity="0.6" stroke-width="0.549253"/>
<path id="Vector 10" d="M177.245 69.7301C175.515 68.3303 172.337 65.8897 166.525 61.4975L165.461 60.692L168.598 50.8014C171.51 41.6241 171.681 40.8496 170.97 40.0626C170.162 39.1685 169.983 37.7414 170.566 36.8631C170.759 36.5749 173.984 36.0613 177.734 35.7217C183.965 35.1573 184.933 35.1794 188.996 35.9794C191.642 36.5003 193.542 37.1178 193.69 37.5043C193.827 37.8617 193.4 38.6236 192.742 39.1974L191.544 40.2408L193.261 45.2347C194.75 49.5636 196.725 60.2104 196.146 60.7897C196.052 60.8828 194.896 61.0872 193.574 61.2441L191.171 61.529L190.857 63.8211C190.684 65.0818 190.292 66.3168 189.99 66.5656C189.461 66.9975 179.91 71.3929 179.498 71.3929C179.389 71.3929 178.375 70.6444 177.245 69.7296V69.7301Z" fill="#FDAE0C" stroke="#817C7A" stroke-opacity="0.6" stroke-width="0.549253"/>
<path id="Vector 11" d="M208.878 59.0765C209.076 58.7561 207.024 53.5209 204.171 47.0665C201.388 40.7732 199.203 35.5333 199.315 35.4214C200.291 34.444 206.566 30.0248 206.838 30.1233C208.717 30.8023 224.82 47.7863 224.82 49.0888C224.82 49.3109 223.698 51.5135 222.327 53.9834C219.515 59.0459 220.272 58.6439 212.281 59.3248C209.428 59.5679 208.612 59.5084 208.878 59.0766V59.0765Z" fill="#FDAE0C" stroke="#817C7A" stroke-opacity="0.6" stroke-width="0.549253"/>
<path id="Vector 12" d="M189.511 84.4921C187.731 81.8077 187.724 81.7768 188.294 79.3275C188.833 77.0077 189.202 76.5644 194.612 71.7515L200.359 66.6396L207.602 66.6389C211.584 66.6384 214.843 66.7561 214.843 66.9005C214.843 67.0448 214.363 67.9991 213.776 69.0212L212.707 70.8794L216.98 75.3044L195.757 74.9611L193.676 80.6685C192.53 83.8075 191.528 86.5595 191.448 86.7843C191.368 87.0088 190.496 85.9774 189.512 84.4921H189.511Z" fill="#FDAE0C" stroke="#817C7A" stroke-opacity="0.6" stroke-width="0.549253"/>
<path id="Vector 13" d="M229.988 88.394L228.31 86.3726L230.695 84.3723L226.997 76.0984C224.963 71.5476 223.189 67.5568 223.056 67.2299C222.878 66.7937 223.566 66.6354 225.64 66.6354H228.466L229.749 62.3548C230.455 60.0007 231.12 58.0743 231.229 58.0743C231.845 58.0743 240.485 74.0496 240.485 75.1868C240.485 75.4537 240.112 75.6721 239.654 75.6722C238.971 75.6723 238.58 76.8191 237.453 82.1157L236.084 88.5591L234.267 89.4875C233.268 89.9981 232.273 90.4158 232.057 90.4158C231.841 90.4158 230.909 89.5062 229.988 88.3945V88.394Z" fill="#FDAE0C" stroke="#817C7A" stroke-opacity="0.6" stroke-width="0.549253"/>
<path id="Vector 14" d="M230.599 116.326C229.207 115.987 227.967 115.606 227.841 115.479C227.715 115.353 228.105 113.595 228.708 111.573C229.714 108.199 230.004 107.743 232.23 106.045L234.655 104.196L242.524 108.802C250.729 113.604 252.1 114.923 249.345 115.358C247.455 115.656 233.685 117.069 233.366 116.997C233.235 116.968 231.99 116.666 230.599 116.326Z" fill="#FDAE0C" stroke="#817C7A" stroke-opacity="0.6" stroke-width="0.549253"/>
<path id="Vector 15" d="M201.545 123.871C201.545 119.796 201.683 119.039 202.763 117.193L203.981 115.112L205.943 116.557C207.022 117.352 208.133 118.003 208.411 118.003C208.689 118.003 210.345 117.042 212.093 115.868C213.84 114.694 215.547 113.82 215.887 113.926C216.226 114.032 217.074 114.243 217.771 114.395C218.885 114.638 219.214 115.204 220.513 119.11C221.868 123.18 221.947 123.753 221.463 126.006L220.937 128.465H201.546L201.545 123.871Z" fill="#FDAE0C" stroke="#817C7A" stroke-opacity="0.6" stroke-width="0.549253"/>
<path id="Vector 16" d="M201.904 112.185C200.465 110.886 200.022 109.993 199.212 106.751C198.677 104.617 197.73 101.464 197.107 99.7431C196.275 97.4501 196.118 96.4946 196.514 96.1653C196.876 95.8642 199.054 96.8804 203.127 99.2497C206.466 101.193 209.402 102.783 209.649 102.783C209.896 102.783 212.128 100.946 214.61 98.7016C217.092 96.4565 219.294 94.6908 219.503 94.7778C219.711 94.8647 222.26 96.6278 225.167 98.6961L230.453 102.456L215.111 112.924L205.343 111.023L203.626 113.739L201.904 112.185Z" fill="#FDAE0C" stroke="#817C7A" stroke-opacity="0.6" stroke-width="0.549253"/>
<path id="Vector 17" d="M195.728 93.9206C194.537 93.2956 192.049 89.2961 192.049 88.0065C192.049 87.712 192.625 85.8439 193.33 83.8551L194.612 80.2391L195.85 83.2787H224.272L225.256 84.5318C225.798 85.221 226.241 86.0727 226.241 86.4244C226.241 87.0279 224.137 89.1528 220.659 92.0614L219.114 93.3537L214.486 90.0641C211.939 88.2548 209.589 86.6175 209.264 86.4255C208.899 86.2107 206.617 87.604 203.328 90.0504C200.389 92.2361 197.77 94.1548 197.508 94.3144C197.246 94.4741 196.445 94.2969 195.728 93.9206Z" fill="#FDAE0C" stroke="#817C7A" stroke-opacity="0.6" stroke-width="0.549253"/>
<path id="Vector 18" d="M228.471 140.47C228.361 140.274 227.278 137.112 226.065 133.444L223.86 126.774L225.21 122.755C226.664 118.421 226.975 118.145 230.537 118.045L232.221 117.998L233.313 128.343C233.912 134.032 234.513 139.169 234.649 139.758C234.883 140.783 234.764 140.827 231.783 140.827C230.072 140.827 228.582 140.667 228.471 140.471V140.47Z" fill="#FDAE0C" stroke="#817C7A" stroke-opacity="0.6" stroke-width="0.549253"/>
<path id="Vector 19" d="M233.264 153.988C226.454 150.01 224.936 148.914 226.227 148.914C226.479 148.914 228.924 147.845 231.658 146.537C236.592 144.177 236.667 144.159 241.343 144.159H246.056L247.132 147.941C247.723 150.022 248.094 152.018 247.956 152.379C247.636 153.212 241.713 158.441 241.149 158.386C240.916 158.364 237.368 156.385 233.264 153.988Z" fill="#FDAE0C" stroke="#817C7A" stroke-opacity="0.6" stroke-width="0.549253"/>
<path id="Vector 20" d="M202.303 143.449L201 142.382L202.686 137L209.023 143.923L206.842 144.222C203.781 144.643 203.753 144.638 202.303 143.449Z" fill="#FDAE0C" stroke="#817C7A" stroke-opacity="0.6" stroke-width="0.549253"/>
<path id="Vector 21" d="M213.081 190.176C212.173 188.989 205.157 172.517 205.218 171.716C205.251 171.263 206.149 168.169 207.211 164.839C208.275 161.508 209.145 158.608 209.145 158.393C209.145 158.179 207.41 156.762 205.29 155.244L201.437 152.484L203.747 152.189C205.992 151.901 206.12 151.953 208.246 154.006L210.435 156.121L212.236 155.366C213.228 154.952 214.085 154.668 214.139 154.738C214.195 154.805 213.096 157.966 211.698 161.759C210.3 165.551 209.155 168.776 209.151 168.924C209.146 169.115 222.811 179.996 223.732 180.534C223.79 180.568 223.709 181.38 223.554 182.341C223.323 183.771 222.589 184.692 219.508 187.429C215.775 190.746 214.071 191.474 213.081 190.176Z" fill="#FDAE0C" stroke="#817C7A" stroke-opacity="0.6" stroke-width="0.549253"/>
<path id="Vector 22" d="M229.023 183.677L226.86 181.939L230.589 178.64C232.638 176.827 234.316 175.167 234.316 174.953C234.316 174.739 233.897 173.74 233.384 172.734L232.453 170.905L236.115 170.586C238.129 170.41 240.472 170.149 241.321 170.003C242.281 169.839 242.865 169.935 242.865 170.258C242.865 170.544 241.898 172.975 240.716 175.662L238.568 180.546L231.186 185.416L229.023 183.677Z" fill="#FDAE0C" stroke="#817C7A" stroke-opacity="0.6" stroke-width="0.549253"/>
<path id="Vector 23" d="M194.424 181.9C192.466 180.72 190.692 179.591 190.483 179.388C190.273 179.186 190.352 178.024 190.658 176.804C191.281 174.328 191.258 174.34 196.561 173.891C198.39 173.736 200.772 173.49 201.856 173.343L203.826 173.079L202.093 178.592C200.482 183.721 200.278 184.104 199.174 184.075C198.521 184.058 196.383 183.079 194.424 181.9Z" fill="#FDAE0C" stroke="#817C7A" stroke-opacity="0.6" stroke-width="0.549253"/>
<path id="Vector 24" d="M205.933 215.219C203.52 213.499 201.546 211.917 201.546 211.704C201.546 211.383 209.891 203.682 215.078 199.217L216.499 197.993L215.412 195.752C214.426 193.72 214.394 193.435 215.06 192.698C215.693 191.996 216.155 191.951 218.446 192.366L221.099 192.849L220.782 194.962C220.608 196.125 220.362 197.346 220.236 197.677C220.099 198.032 221.085 198.895 222.648 199.791C224.102 200.624 225.291 201.469 225.291 201.667C225.291 202.314 217.879 210.883 214.048 214.667L210.32 218.348L205.933 215.219Z" fill="#FDAE0C" stroke="#817C7A" stroke-opacity="0.6" stroke-width="0.549253"/>
<path id="Vector 25" d="M176.74 236.746L172.115 235.744L169.92 229.149C168.712 225.52 167.909 222.384 168.134 222.178C169.215 221.192 184.731 211.063 185.161 211.063C185.431 211.063 187.768 212.285 190.352 213.78C192.935 215.275 195.316 216.395 195.64 216.27C195.965 216.146 197.844 217.82 199.817 219.991L203.405 223.937L202.358 224.917C199.575 227.52 182.466 238.105 181.53 237.801C181.44 237.772 179.283 237.297 176.74 236.746Z" fill="#FDAE0C" stroke="#817C7A" stroke-opacity="0.6" stroke-width="0.549253"/>
<path id="Vector 26" d="M164.845 219.281C164.163 217.697 163.732 216.073 163.886 215.671C164.054 215.23 163.666 214.476 162.911 213.774C162.221 213.133 161.657 212.297 161.657 211.914C161.657 211.467 161.171 211.22 160.29 211.22C157.796 211.22 157.647 210.359 159.255 205.212C160.053 202.652 160.707 200.395 160.707 200.198C160.707 200.001 159.427 198.934 157.86 197.829L155.015 195.819L159.404 193.629C164.046 191.313 168.359 188.684 171.223 186.426C173.208 184.862 175.155 184.571 174.786 185.894C174.658 186.352 173.883 189.938 173.063 193.861C172.243 197.785 171.471 201.345 171.348 201.773C171.184 202.343 172.176 203.162 175.058 204.833C177.22 206.088 179.389 207.38 179.877 207.705C180.676 208.238 180.033 208.839 173.348 213.803C169.268 216.831 165.931 219.402 165.931 219.514C165.931 219.627 166.139 220.268 166.394 220.939C167.347 223.449 166.037 222.046 164.846 219.281H164.845Z" fill="#FDAE0C" stroke="#817C7A" stroke-opacity="0.6" stroke-width="0.549253"/>
<path id="Vector 27" d="M142.66 222.929C138.621 219.957 137.805 218.94 137.222 216.154C136.853 214.386 136.675 214.438 146.287 213.556C152.357 213 152.565 213.012 153.944 213.994L155.363 215.006L151.921 225.96L149.308 225.93C146.872 225.902 146.426 225.701 142.66 222.929Z" fill="#FDAE0C" stroke="#817C7A" stroke-opacity="0.6" stroke-width="0.549253"/>
<path id="Vector 28" d="M96.3335 215.859C100.901 203.265 102.756 198.234 102.876 198.116C102.991 198.001 110.334 199.624 114.367 200.655C115.661 200.985 115.898 201.44 117.866 207.351C119.624 212.634 119.885 213.865 119.427 214.721C118.997 215.527 119.036 216.199 119.609 217.826C120.012 218.967 120.341 219.982 120.341 220.08C120.341 220.178 114.58 220.258 107.539 220.258H94.7376L96.3335 215.859Z" fill="#FDAE0C" stroke="#817C7A" stroke-opacity="0.6" stroke-width="0.549253"/>
<path id="Vector 29" d="M121.006 250.842C120.516 250.48 116.541 239.121 116.543 238.088C116.543 237.827 117.474 237.025 118.611 236.305C120.147 235.334 121.282 234.998 123.028 234.998H125.378L127.504 241.606L141.898 249.979L139.549 250.282C135.358 250.824 121.544 251.24 121.006 250.842H121.006Z" fill="#FDAE0C" stroke="#817C7A" stroke-opacity="0.6" stroke-width="0.549253"/>
<path id="Vector 30" d="M144.987 237.971L144.277 235.237L137.176 234.823C133.271 234.595 130.017 234.359 129.946 234.297C129.657 234.047 131.231 228.238 131.759 227.6C132.21 227.056 133.845 226.914 139.62 226.914H146.911L150.977 229.827C153.215 231.43 154.983 232.88 154.907 233.048C154.831 233.216 153.846 235.009 152.717 237.031L150.666 240.706H145.696L144.987 237.971Z" fill="#FDAE0C" stroke="#817C7A" stroke-opacity="0.6" stroke-width="0.549253"/>
<path id="Vector 31" d="M156.436 247.22C156.438 247.169 157.264 244.523 158.271 241.342L160.101 235.558L159.096 234.515C158.123 233.506 158.122 233.482 159.041 233.752C159.564 233.906 162.511 234.544 165.59 235.169C168.671 235.794 171.293 236.41 171.419 236.535C171.606 236.722 166.854 241.182 162.365 245.033C161.613 245.679 156.41 247.598 156.436 247.22Z" fill="#FDAE0C" stroke="#817C7A" stroke-opacity="0.6" stroke-width="0.549253"/>
<path id="Vector 32" d="M135.586 210.384C133.835 204.422 133.685 205.087 137.409 202.3C139.243 200.926 140.967 199.803 141.238 199.803C141.511 199.803 142.575 200.361 143.606 201.045L145.48 202.286L144.784 203.956C144.4 204.875 144.087 205.784 144.087 205.977C144.087 206.171 145.706 207.572 147.686 209.089C150.131 210.966 151.083 211.957 150.654 212.182C150.024 212.514 140.172 213.596 137.787 213.596C136.643 213.596 136.442 213.303 135.586 210.384Z" fill="#FDAE0C" stroke="#817C7A" stroke-opacity="0.6" stroke-width="0.549253"/>
<path id="Vector 33" d="M125.567 209.493C125.567 209.297 126.146 207.358 126.852 205.184L128.137 201.232H130.176C131.298 201.232 132.216 201.287 132.216 201.354C132.216 201.421 132.412 202.163 132.652 203.002C133.08 204.492 133.017 204.581 129.921 206.848C126.161 209.603 125.567 209.964 125.567 209.493Z" fill="#FDAE0C" stroke="#817C7A" stroke-opacity="0.6" stroke-width="0.549253"/>
<path id="Vector 34" d="M192.749 205.778C190.407 204.102 188.394 202.83 188.275 202.95C188.086 203.138 183.08 186.362 183.042 185.416C183.034 185.219 186.461 185.058 190.658 185.058H198.289L207.559 190.467L202.589 199.297C199.856 204.153 197.481 208.283 197.313 208.474C197.145 208.665 195.091 207.452 192.749 205.778Z" fill="#FDAE0C" stroke="#817C7A" stroke-opacity="0.6" stroke-width="0.549253"/>
<path id="Vector 35" d="M216.914 145.639C215.376 144.716 214.074 143.92 214.02 143.872C213.965 143.822 214.028 143.363 214.161 142.852C214.389 141.981 214.792 141.929 220.435 142.046C223.753 142.114 227.215 142.302 228.128 142.463C229.789 142.755 229.787 142.757 225.754 144.642C219.459 147.584 220.04 147.518 216.914 145.639Z" fill="#FDAE0C" stroke="#817C7A" stroke-opacity="0.6" stroke-width="0.549253"/>
<path id="Vector 36" d="M234.116 102.85C233.902 102.502 236.488 89.4561 236.823 89.1931C236.934 89.1065 240.801 87.3671 243.173 86.3365L244.674 85.6848L245.649 88.8994C246.799 92.6884 249.033 101.798 249.034 102.698C249.034 103.046 247.372 102.152 245.293 100.684L241.551 98.0439L239.475 99.6068C235.526 102.58 234.378 103.275 234.116 102.85V102.85Z" fill="#FDAE0C" stroke="#817C7A" stroke-opacity="0.6" stroke-width="0.549253"/>
<path id="Vector 37" d="M240.918 137.208L246.169 133.692L250.697 119.274L250.943 122.56C251.165 125.542 250.691 139.835 250.36 140.113C250.285 140.176 246.947 140.339 242.943 140.476L235.665 140.723L240.918 137.208Z" fill="#FDAE0C" stroke="#817C7A" stroke-opacity="0.6" stroke-width="0.549253"/>
<path id="Vector 38" d="M216.776 163.662L213.347 159.858L213.918 158.074C214.23 157.093 214.626 156.134 214.796 155.945C214.967 155.756 218.78 155.237 223.272 154.792C229.716 154.153 231.699 154.102 232.677 154.547C233.359 154.859 233.845 155.331 233.756 155.598C233.562 156.178 220.975 167.466 220.522 167.466C220.349 167.466 218.664 165.754 216.778 163.662H216.776Z" fill="#FDAE0C" stroke="#817C7A" stroke-opacity="0.6" stroke-width="0.549253"/>
<path id="Vector 39" d="M79.0475 9.62427C81.2086 8.22311 98.679 2.92711 99.2508 3.49975C99.3794 3.6285 99.1206 5.0452 98.6756 6.64796L97.8666 9.56208H90.4124C86.3127 9.56208 81.9137 9.68302 80.6366 9.83084C78.9982 10.0205 78.5304 9.95966 79.0476 9.62428L79.0475 9.62427Z" fill="#FDAE0C" stroke="#817C7A" stroke-opacity="0.6" stroke-width="0.549253"/>
</g>
<path id="text" d="M270.5 23.6H330.5V230H270.5V23.6ZM343.1 181.7H407.3V230H343.1V181.7ZM547.405 126.8C547.405 109.4 547.305 98 547.105 92.6C546.705 84.4 545.605 78.5 543.805 74.9C542.005 71.1 539.105 68.8 535.105 68C531.105 67.4 525.405 67.1 518.005 67.1C509.405 67.1 503.805 67.5 501.205 68.3V21.5C503.005 21.3 505.705 21.2 509.305 21.2H518.005C540.405 21.2 557.705 23 569.905 26.6C582.305 30 591.305 35.7 596.905 43.7C602.105 51.1 605.305 60.8 606.505 72.8C607.905 84.8 608.605 102.8 608.605 126.8C608.605 147.8 608.105 164 607.105 175.4C606.305 186.6 604.105 195.9 600.505 203.3C596.505 211.7 590.305 218.1 581.905 222.5C573.705 226.9 562.205 229.8 547.405 231.2V126.8ZM518.005 232.4C488.805 232.4 467.805 229.2 455.005 222.8C448.405 219.6 443.205 215.3 439.405 209.9C435.605 204.5 432.805 197.8 431.005 189.8C429.405 182.8 428.405 174.8 428.005 165.8C427.605 156.6 427.405 143.6 427.405 126.8C427.405 105.8 427.805 89.7 428.605 78.5C429.605 67.3 431.905 57.9 435.505 50.3C439.505 42.1 445.605 35.8 453.805 31.4C462.005 27 473.605 24 488.605 22.4V126.8C488.605 138.6 488.805 149.9 489.205 160.7C489.605 168.9 490.605 174.9 492.205 178.7C494.005 182.5 496.905 184.7 500.905 185.3C504.305 186.1 510.005 186.5 518.005 186.5C526.205 186.5 531.805 186.2 534.805 185.6V232.1C533.005 232.3 530.305 232.4 526.705 232.4H518.005ZM710.677 21.8C718.677 21.4 725.277 21.2 730.477 21.2C748.477 21.2 764.977 22.4 779.977 24.8C787.577 25.6 794.877 26.8 801.877 28.4V71.3C793.477 70.5 787.177 69.8 782.977 69.2C779.577 69 774.077 68.5 766.477 67.7C758.877 67.3 753.877 67.1 751.477 67.1C739.277 67.1 730.277 67.4 724.477 68C718.877 68.4 714.277 69.6 710.677 71.6V21.8ZM730.477 232.4C710.477 232.4 694.477 230.9 682.477 227.9C670.677 224.9 661.477 219.6 654.877 212C648.277 204.4 643.577 193.9 640.777 180.5C638.177 167.1 636.877 149.2 636.877 126.8C636.877 107.8 637.777 92.2 639.577 80C641.377 67.8 644.477 57.8 648.877 50C653.477 42 659.677 35.9 667.477 31.7C675.277 27.5 685.477 24.6 698.077 23V126.8C698.077 141 698.477 151.9 699.277 159.5C700.077 166.9 701.577 172.6 703.777 176.6C706.177 180.8 709.577 183.7 713.977 185.3C718.577 186.9 725.077 187.7 733.477 187.7V232.4H730.477ZM746.077 150.8H724.777V107.3H802.777V224.9C793.377 227.1 781.677 228.8 767.677 230C760.877 231 753.677 231.6 746.077 231.8V150.8Z" fill="white"/>
</g>
</svg>
