<svg width="429" height="376" viewBox="0 0 429 376" fill="none" xmlns="http://www.w3.org/2000/svg">
<g clip-path="url(#clip0_34_2)">
<path d="M327.28 227.43L328.61 229.14L329.63 229.78L329.65 230.88L328.48 232.41L327.48 232.3L326.06 233.15L326.42 234.07L325.43 234.69L325.08 235.65L323.88 235.33L323.18 237.16L320.94 236.25L320.02 238.49L320.85 240.08L320.21 241.31L320.71 242.43L321.9 242.62L322.97 244.24L325.29 244.71L325.79 244.64L326.09 242.7L326.64 242.49L328.63 243.47L328.56 245.05L333.16 246.24L334.94 247.12L335.44 247.03L335.8 246.54H337.37L338.72 245.94L340.67 247.31L341.6 247.56L342.23 248.21L343.76 247.9L344.15 248.33L345.85 248.75L346.11 249.13L346.49 248.55L347.38 248.62L347.75 249.62L348.99 250.19L349.37 250.66L350.05 251.02L350.94 250.68L350.93 251.43L351.53 251.67L351.77 252.5L352.49 252.31L352.84 252.81L353.91 252.91L354.25 254.19L354.93 254.25L355.57 254.9L355.76 255.49L355.51 256.27L356.03 256.77L355.91 257.7L356.69 258.19L356.98 259.38L357.56 259.85L353.44 265.48L348.91 270.04L348.21 270.54L346.15 271.04L345.23 271.96L344.21 273.63L342.98 274.47L342.79 275.02L340.83 276.33L340.63 276.91L339.3 277.77L337.5 278.4L336.73 279.76L335.76 280.49L335.61 281.77L334.9 281.96L333.26 284.29L332.86 284.39L332.13 286L331.31 286.38L330.06 287.62L329.87 288.36L328.76 289.76L328.82 290.2L326.88 291.67L326.46 292.64L325.11 293.98L324.97 294.49L321.71 297.54L321.72 297.79L320.71 298.38L319.86 299.85L317.59 301.75L317.3 302.5L316.18 303.05L316.19 303.46L314.92 304.59L314.91 305.23L314.2 305.53L313.78 306.23L311.8 307.03L311.66 307.49L310.26 308.84L310.25 309.31L309.51 309.35L307.48 311L304.45 312.23L303.58 313.19L303.37 314.51L302.58 315.48L302.69 315.69L299.65 317.6L299.13 318.45L298.66 318.58L298.1 319.67L294.91 321.59L293.55 322.04L292.78 323.1L291.82 323.65L290.45 325.03L288.33 326.23L285.28 328.87L280.86 331.7L280.15 332.62L278.93 332.96L277.54 334.56L275.93 335.03L274.77 336.04L272.97 336.34L271.09 337.82L267.87 338.57L262.83 341.62L260.76 342.3L258.53 341.87L256.38 342.02L253.5 340.84L250.52 340.23L247.2 340.32L244.45 340.81L242.97 341.46L240.83 342.94L239.93 343.83L239.1 345.29L238.59 347.75L240.13 348.87L240.84 350.26L239.86 350.18L239.1 350.82L237.69 350.91L234.82 350.27L233.23 350.42L230.6 349.15L228.34 348.45L226.03 348.22L223.5 348.45L221.88 349L220.9 349.75L220.63 351.89L219.17 353.22L218.35 354.62L219.31 355.46L218.58 355.47L218.35 356.15L215.8 355.18L214.8 355.35L213.41 354.72L212.7 354.85L212.53 355.35L209.8 354.72L209.04 354.44L206.63 352.6L204.81 352.55L200.61 351.03L191.48 349.73L187.38 348.81L187.07 347.43L188.61 345.39L184.93 344.01L184.84 342.57L183.61 342.39L182.87 343.05L180.31 342.56L181.47 341.54L181.51 340.46L184.26 339.42L184.84 338.43L185.57 338.9L187.67 338.68L187.81 337.49L185.94 335.84L185.73 333.5L183.52 332.39L183.27 331.82L179.21 331.74L178.4 330.45L173.85 330.3L172.26 330.64L171.83 330.24L168.14 331.2L164.31 330.8L163.81 329.91L163.74 328.34L164.68 328.18L166.27 325.24L166.77 325.01L167.73 322.63L169.18 321.22L169.38 319.67L168.65 318.84L169.56 318.01L169.22 316.63L170.63 315.31L170.9 314.58L172.85 314.64L173.2 314.08L172.43 311.34L174.04 313.51L175.46 311.91L177.62 312.22L180.27 313.05L180.45 311.27L179.51 310.77L179.19 309.08L177.29 307.78L178.01 307.57L178.46 307.06L177.79 304.09L176.67 303.34L176.85 301.85L176.24 300.74L178.94 299.35L179.28 298.59L180.97 299.34L182.07 297.79L187.61 297.95L187.92 297.35L187.23 296.58L187.81 294.95L189.93 293.73L190.35 293.16L191.87 294L192.32 295.06L193.5 295.28L197.52 293.1L197.4 292.35L198.65 292.52L199.82 291.57L199.83 290.6L199.04 290.53L198.95 289.41L199.96 289.33L199.94 288.59L199.4 288.29L199.85 287.6L200.95 287.86L202.1 286.14L201.52 285.67L201.77 285.34L200.73 284.55L199.32 284.8L200.05 283.03L200.69 283.11L200.55 282.25L201.1 282.23L200.6 281.36L200.33 280.23L200.73 279.73L203.5 280.71L204.77 279.47V278.97L209.76 278.78L210.15 275.06L209.9 274.18L210.39 272.45L210.17 272.15L211.24 271.62L211.3 269.6L213.29 269.32L214.7 269.78L217.09 269.41L218.01 268.27L218.92 268.77L219.02 267.41L221.04 266.89L222.04 265.82L224.14 265.83L228.32 263.54L231.82 264.33L232.58 263.82L232.57 262.16L233.05 261.69L233.75 261.67L234.71 260.12L234.12 259.39L234.86 259.3L235.46 258.17L235 257.33L236.36 255.72L236.17 254.38L235.05 253.4L235.4 252.78L236.23 252.45L236.89 251.2L235.02 250.96L234.63 245.8L238.27 245.39L238.67 245.61L239.06 247.09L240.93 247.79L242.13 247.86L245.27 245.82L245.33 244.13L245.91 243.67L247.26 244.45L248.36 243.48L250.17 242.8L250.71 242.79L251.63 243.5L252.15 243.51L252.47 243.05L252.21 242.32L252.76 242.08L253.5 242.38L254.03 243.3L255.26 243.72L255.98 244.86L257.66 245.02L258.58 244.49L260.07 244.34L261.04 245.19L261.15 246.42L262.99 247.25L265.21 247.39L265.07 247.99L266.01 247.47L266.8 247.83L267.52 247.3L268.06 247.38L269.54 246.77L270.78 247.82L271.21 247.62L271.3 247.19L272.88 247.2L273.12 245.9L273.83 245.37L275.44 245.3L275.4 244.66L274.62 244L274.71 243.56L276.69 243.23L277.55 243.81L278.04 243.44V242.42L279.32 242.64L280.24 241.9L280.45 242.1L280.96 241.86L281.35 242.31L282.44 242.14L282.78 241.45L282.11 241.1L282.12 240.63L283.22 240.83L283.88 240.65L283.87 240.33L283.03 239.93L283.12 239.3L284.5 239.33L284.98 238.78L284.78 238.23L284.12 238.29L283.72 237.27L284.9 237.03L284.85 237.43L285.11 237.47L286.95 236.84L287.12 237.76L287.78 238.67L289.12 239.06L289.83 240.79L290.5 240.98L290.71 241.98L292.43 243.09L294.09 245.33L297.1 245.83L297.9 245.42L298.65 246.72L301.81 247.3L302.91 246.99L303.62 247.57L303.56 245.48L304.77 244.28L304.97 243.01L305.38 242.33L304.57 241.3L305.72 240.32L306.8 239.86L307.82 238.37L307.38 237.27L306.33 236.16L306.88 235.44L308.77 235.12L309.95 233.63L310.22 232.55L310.91 231.95L311.38 231.78L313.05 232.21L314.07 231.89L314.97 231.1L316.79 231.65L318.3 231.69L319.96 230.88L320.96 230.91L322.56 230.39L327.28 227.43Z" fill="#EEEEEE" fill-opacity="0.8" stroke="black" stroke-opacity="0.8"/>
<path d="M288.56 132.82L289.44 132.5L289.42 131.83L290.78 131.57L291.04 131.71L291.14 132.46L293.26 132.33L294.33 133.01L294.89 131.98L297.38 131.57L298.58 130.17L299.47 129.85L300.31 130.41L300.1 131.53L300.96 133.3L302.16 134.5L303.38 135.07L304.02 136.44L304.79 135.26L305.55 136.52L306.22 136.59L307.13 136.13L308.03 136.83L309.01 137.43L310.82 137.37L311.64 138.98L312.54 138.27L313.13 138.24L314.09 139.5L314.99 139.95L314.44 141.03L316.27 139.65L317.37 139.59L317.43 139.03L316.46 138.9L317.28 138.11L318.83 138.68L321.75 140.52L322.68 140.37L323.46 140.78L323.96 139.92L325.68 139.24L326.33 139.34L327.1 140.17L327.84 140.08L328.02 141.45L329.44 143.88L330.5 143.36L331.92 143.43L332.92 144.45L333.77 144.57L334.2 145.16L334.96 145.17L335.28 145.46L335.17 146.28L336.75 145.92L337.97 146.68L338.41 147.26L338.58 148.33L339.09 148.64L338.95 149.2L340.65 150.68L340.35 151.29L341.44 152.21L342.44 154.06L343.09 154.19L343.64 153.73L344.45 153.69L344.47 152.95L344.98 152.44L346.49 152.48L344.95 153.17L345.27 153.46L345 154.45L346.38 155.06L346.75 156.51L344.2 158.4V158.94L344.84 160.15L344.7 161.94L345.25 162.99L343.75 165.87L343.78 167.6L342.98 168.42L342.67 169.49L342.82 170.32L343.91 171.47L343.81 173.18L342.63 174.03L342.02 175.59L339.4 176L337.29 178.74L335.46 179.58L334.37 180.92L332.46 181.41L331.49 182.67L331.76 183.77L331.55 184.16L330.55 184.14L330.04 184.64L328.42 184.44L325.78 185.3L324.72 186.46L324.74 187.62L323.84 188.37L323.08 190.72L322.04 190.69L321.47 189.04L319.21 188.32L318.69 186.04L317.5 185.22L315.78 186.12L312.65 186.14L311.27 186.6L310.19 187.97L310.22 188.73L309.95 188.92L308.77 188.89L308.16 189.21L306.95 188.81L305.93 189.15L305.45 188.71L303.68 190.26L302.68 192.16L302.08 192.33L302.02 193.23L301.41 193.63L301.48 194.2L300.05 194.24L299.71 193.61L299.02 193.45L298.36 194.28L297.93 194.38L298.07 195.03L297.68 195.3L296.27 194.87L296.02 195.29L295.55 195.36L294.23 194.81L294.65 195.53L294.37 196.09L293.85 196.08L293.51 196.5L293.57 197.1L293.24 197.51L293.52 197.83L292.54 197.88L292.69 198.36L292.29 198.64L292.24 199.11L291.43 199.12L292.29 200.01L291.39 200.12L291.78 200.37L291.7 201.02L290.59 201.67L290.66 202.51L289.92 202.69L288.31 204.23L288.38 204.66L288.81 204.93L288.75 205.33L287.59 206.33L286.6 206.41L286.99 207.02L286.25 207.58L286.13 208.64L285.33 208.69L285.75 209.84L285.15 210.03L284.19 211.3L284.17 211.91L282.78 212.39L282.75 213.38L281.73 213.4L281.12 214.06L280.64 213.81L279.97 214.46L278.8 214.28L277.99 214.7L277.67 215.47L276.98 215.82L276.61 215.48L276.32 216.52L275.43 215.94L275.33 216.96L277.78 220.21L280.77 227.65L282.68 229.53L283.28 231.97L285.02 231.72L285.37 231.99L284.3 234.07V235.56L284.86 235.9L284.69 236.29L285.12 236.57L284.87 236.96L283.68 237.21L284.09 238.23L284.74 238.17L284.94 238.72L284.46 239.27L283.08 239.24L282.99 239.87L283.83 240.27V240.6L283.18 240.78L282.08 240.58L282.07 241.06L282.74 241.41L282.4 242.1L281.31 242.27L280.92 241.82L280.41 242.06L280.2 241.86L279.29 242.6L278 242.39V243.41L277.51 243.78L276.65 243.19L274.67 243.53L274.58 243.97L275.36 244.63L275.39 245.27L273.78 245.34L273.06 245.88L272.83 247.18L271.25 247.17L271.15 247.6L270.72 247.8L269.48 246.75L268 247.36L267.46 247.29L266.74 247.82L265.95 247.46L265.01 247.98L265.14 247.38L262.92 247.24L261.08 246.4L260.98 245.17L260.01 244.32L258.52 244.47L257.6 245L255.92 244.84L255.19 243.7L253.96 243.29L253.44 242.37L252.7 242.07L252.15 242.31L252.41 243.04L252.09 243.5L251.57 243.49L250.65 242.79H250.1L248.3 243.48L247.19 244.44L245.84 243.66L245.26 244.12L245.2 245.81L242.06 247.85L240.86 247.79L238.98 247.09L238.59 245.61L238.2 245.39L234.56 245.79L232.57 244.07L230.25 243.89L229.29 242.37L227.12 241.03L226.14 239.33L224.82 238.58L223.79 237.56L223.4 236.08L222.26 235.58L221.05 233.49L219.81 232.68L218.07 229.46L217.32 227.33L214.32 226.49L213.59 224.35L211.94 223.94L210.72 222.27L209.36 221.99L208.93 221.19L208.32 221.32L207.74 221.07L205.74 218.16L205.56 217.06L219.63 187.07L218.26 186.57L218.89 183.15L218.63 182.66L219.84 181.3L220.67 177.65L220.21 177.6L219.66 176.39L220.63 176.32L220.83 175.64L221.6 175.49L222.96 171.86L222.26 170.65L224.44 170.06L224.68 169.29L225.36 168.56L225.15 167.76L226.01 166.4L227.16 166.21L228.85 164.67L229.11 164.11L228.8 163.61L229.54 162.58L231.49 162.1L231.93 161.33L233.42 160.19L235.59 159.32L236.7 159.41L237.64 158.54L239.65 158.93L240.17 158.04L243.4 156.2L244.04 156.11L245.04 157.32L246.59 157.24L248.47 157.75L249.04 160.04L249.41 160.27L250.34 160.03L250.44 159.55L249.95 158.63L250.75 156.98L253.77 154.06L254.54 153.85L254.51 152.79L255.45 151.49L256.35 151.21L257.1 151.58L257.81 150.63L259.51 150.9L260.23 150.61L261.52 150.91L261.99 150.76L260.25 149.69L260.54 148.82L261.36 148.51L261.35 147.01L259.61 145.14L259.28 144.12L259.6 143.83L260.51 143.92L261.12 143.32L261.47 143.38L262.24 142.16L263.69 142.34L263.74 140.78L264.81 139.63L265.93 139.38L266.32 139.99L266.63 139.92L266.89 139L267.83 138.14L269.3 137.37L269.87 137.72L270.82 136.84L272.27 138.19L272.51 137.8L272.39 135.97L272.78 135.56L273.14 135.59L273.79 136.75L275.53 137.4L277.09 137.16L278.36 137.39L278.86 137.08L279.23 137.51L279.03 138.26L279.31 138.37L280.01 138.09L281.99 135.49L282.84 134.95L285.04 136.95L285.38 136.92L286.03 136.17L286.86 135.98L287.94 134.28L287.95 132.92L288.56 132.82Z" fill="#EEEEEE" fill-opacity="0.8" stroke="black" stroke-opacity="0.8"/>
<path d="M316.25 86.41L319.97 86L320.71 87.97L319.01 89.38L317.36 89.56L317.15 93.94L316.61 94.82L317.07 95.59L316.45 96.57L317.85 101.57L321.88 101.93L324.72 98.49L327.3 97.79L327.92 99.97L325.46 100.96L325.17 101.98L325.86 102.81L324.63 105.1L324.99 105.38L324.83 106.61L323.18 106.33L322.26 111.2L320.74 111.13L320.3 111.36L319.86 110.51L319.68 110.77L318.62 110.74L316.5 110.19L315.53 111.07L315.15 112.7L314.12 112.37L313.97 112.76L313.56 112.63L312.41 113.06L312.82 114.46L313.76 115.18L313.94 117.36L316.38 118.15L316.46 119.97L317.16 120.07L317.3 120.52L318.29 121.12L320.12 120.33L321.77 120.16L322.9 122.5L320 123.92L319.94 125.64L316.72 125.88L316.49 126.75L314.81 126.51L313.71 127.36L313.7 128.27L312.7 128.34L312.58 129.46L311.42 129.56L311.29 130.01L310.21 130.21L309.68 132.06L310.18 132.29L310.38 133.06L308.98 133.53L308.99 133.96L308.14 134.22L308.13 135.23L308.67 135.55L308.03 136.83L307.13 136.13L306.22 136.59L305.55 136.52L304.79 135.26L304.02 136.44L303.38 135.07L302.16 134.5L300.96 133.3L300.1 131.53L300.31 130.41L299.47 129.85L298.58 130.17L297.38 131.57L294.89 131.98L294.33 133.01L293.26 132.33L291.14 132.46L291.04 131.71L290.78 131.57L289.42 131.83L289.44 132.5L288.56 132.82L289.31 128.67L288.41 127.54L289.01 127.4L289.52 124.98L289.78 124.91L290.15 123.72L287.67 123.81L287.36 122.95L286.89 122.57L283.25 123.38L283.49 124.12L280.06 125.44L280.05 124.09L278.95 122.06L280.5 120.59L282.56 119.22L281.65 115.26L283.37 115.46L283.45 114.37L284.95 114.15L286.19 108.99L286.13 107.01L290.65 104.56L290.95 105.73L291.83 106.95L293.16 106.24L293.26 107.38L295.46 106.65L297.52 106.38V105.82L298.71 105.95L298.72 105.34L299.4 104.91L298.99 103.4L299.74 103.13L298.58 100.2L300.66 99.88L301.42 99.38L301.76 98.34L302.92 97.51L302.04 93.66L303.19 93.2L304.01 93.34L304.02 93.74L303.33 93.97L303.57 94.83L304.14 94.82L304.68 94.27L306.06 94.36L308.15 93.71V90.95L310.08 90.47L310.25 91.32L313.35 90.71L313.54 89.36L315.99 89.37L316.43 90.05L317.52 89.39L318.08 88.29L317.16 88.34L316.25 86.41Z" fill="#EEEEEE" fill-opacity="0.8" stroke="black" stroke-opacity="0.8"/>
<path d="M343.94 1.34L346.3 1.4L349.22 2.8L350.46 2.82L351.34 3.5L352.72 3.89L352.97 4.5L353.92 4.64L355.66 6.07L358.22 5.66L359.91 7.26L363 6.94L364.98 6.23L366.29 6.51L367.97 6.36L368.72 6.71L369.68 6.05L370.89 6.25L373.9 5.57L376.6 5.84L380.36 7.05L382.47 6.57L383.59 7.51H385.12L386.42 9.58L392.88 30.41L392.55 36.73L392.84 38.6L396.28 42.81L396.43 45.66L398.16 50.17L401.1 52.25L400.05 52.75L398.55 52.56L397.37 53.73L397.15 54.82L396.58 55.04L395.79 55.1L395.18 53.89L394.64 54L393.7 55.01L393.13 54.41L392.48 54.94L391.97 54.92L390.02 54.03L388.87 55.24L388.07 54.97L387.02 55.87L385.6 55.57L385.05 56.2L390.85 56.04V57.59L389.45 58.9L389.84 59.92L389.71 61.9L388.58 63.1L388.51 64.05L387.44 64.83L388.87 65.72L388.32 66.74L390.65 66.78L389.49 67.88L390.1 68.8L392.34 70.11L393.86 70.38V71.9L392.82 71.98L392.86 72.4L391.75 72.15V72.9L390.39 73.89H386.89L387.35 74.95V77.11H388.42V77.75L390.62 77.46L390.85 79.45L389.97 79.56L390.39 81.64L386.75 81.24L385.2 81.63L384.69 82.5L381.25 82.81L380.75 82.51L380.22 81.22L379.36 81.05V78.82L378.62 77.07L378.08 76.66L376.53 76.31L376.11 75.84V73.85L375.68 73.5L376.27 72.57V71.75L376 71.05L374.56 70.75L373.97 70.11L374.99 68.71L372.85 66.84L371.57 67.32L371.31 68.1L369.42 68.89L369.04 68.08L368.31 68.36L368.29 70.11L366.78 71.62L365.75 70.26L362.99 69.63L362 69.01L361.58 70.21L359.87 70.23L358.55 69.41L358.45 71.2L357.05 70.12L354.72 70.2L355.29 72.45L354.98 73.2L356.4 74.4L356.02 76.29L354.49 76.49L348.01 81.82L348 82.78L346.2 82.95L346.26 83.87L347.23 84.14L347.92 85.68L346.75 86.08L346.74 86.76L345.95 87.91L341.35 87.11L341.46 86.36L339.75 84.64L339.1 84.75L338.38 83.85L338.57 83L337.43 82.32L337.42 81.45L335.82 82.2L335.68 81.98L336.53 80.56L335.64 78.17L335.68 77.34L333 76.67L331.51 77.07L331.49 79.08L330.94 79.34L331.16 80.17L328.41 81.34L327.38 79.07L327.07 79.17L326.81 78.65L324.41 78.22L324.83 80.35L323.63 79.97L322.38 80.34L321.13 79.94L319.43 80.23L318.45 81.03L316.03 81.99L316.07 84.15L312.25 85.05L312.22 85.98L309.74 86.75L309.87 88.41L310.28 88.54L312.98 87.93L313.44 87.28L316.25 86.41L317.16 88.34L318.08 88.29L317.52 89.39L316.43 90.05L315.99 89.37L313.54 89.36L313.35 90.71L310.25 91.32L310.08 90.47L308.15 90.95L306.26 87.84L303.9 88.1L303.76 86.65L302.34 86.41L302.6 85.07L303.59 84.84L304.86 85.79L306.14 85.72L306.59 83.86L302.84 81.96L300.51 81.79L299.66 81.26L298.85 81.43L298.5 82.05L297.41 81.93L297.37 81.35L298.11 81.34L297.88 80.49L296 80.05L295.85 81.66L294.09 81.44L292.96 82.12L291.9 81.07H290.68L289.82 81.61L289.9 83.23L288.59 84.99L287.79 84.71L287.24 83.5L283.94 83.88L282.36 81.91L278.86 81.75L278.88 81.04L278.09 79.53L276.22 78.82L275.63 74.01L274.56 74.04L274.43 75.48L273.56 75.46L273.14 76.05L269.08 77.53L268.62 78.28L267.12 78.18L265.34 76.84L263.87 77.1L259.93 76.55L258.97 74.62L259.09 71.58L259.57 71.54L259.8 70.96L260.96 70.19L262.13 67.29L263.13 66.21L264.3 65.07L265.98 64.59L266.38 63.17L267.82 62.12L269.03 62.18L270.19 61.23L271.09 60.9L271.07 59.71L271.48 59.18L271.15 58.54L271.57 58.03L271.11 57.31L271.22 56.4L271.83 55.84L272.44 54.05L272.37 53.1L272.74 52.68L272.86 51.42L273.4 50.1L273.37 49.59L272.98 49.52L273.46 49.03L273.3 48.29L273.74 46.03L273.99 45.27L274.62 44.81L274.84 43.47L275.52 43.97L275.45 44.63L276.19 44.35L276.72 43.67L276.23 42.72L277.22 42.22L277.54 41.51L278.63 41.35L278.19 40.73L278.26 40.17L278.76 40.56L279.15 40.28L279.49 40.58L279.96 40.47L280.14 40.23L279.64 39.59L280.06 39.21L280.77 39.47L281.05 39L281.76 38.87L282.6 38.25L283.23 36.8L283.73 36.88V37.48L284.35 37.52L284.43 36.73L285.12 36.52L284.96 37.26L285.47 37.43L286.25 36.35L288.44 36.17L289.2 35.34L289.53 33.01L290.14 32.58L290.11 31.82L290.35 31.65L291.51 31.95L292.52 31.21L293.26 32.16L293.9 32.04L294.19 31.15L294.99 30.42L294.48 29.45L295.1 29.62L295.76 29.28L295.96 28.58L297.81 27.94L298.84 27.04L298.92 25.76L299.23 25.26L298.99 24.38L299.89 24.24L301.7 22.86L301.94 22.36L301.72 20.88L302.76 20.47L304.56 18.94L304.72 17.34L305.78 16.19L307.29 15.51L307.78 14.71L308.9 14.23L309.52 13.56L312.19 13.39L313.84 13.85L314.9 13.21L316.85 13.07L319.17 11.78L322.06 10.98L322.08 10.38L323.01 9.92L324.31 10.29L325.76 7.87L325.58 6.06L325.84 5.5L326.33 5.3L326.83 3.91L327.35 3.52L330.39 3.44L331.67 2.53L333.52 2.86L334.64 2.74L335.14 3.17L338.41 2.13L339.87 2.4L340.33 1.73L341.3 1.44L342.25 1.79L343.3 1L343.94 1.34Z" fill="#EEEEEE" fill-opacity="0.8" stroke="black" stroke-opacity="0.8"/>
<path d="M401.18 52.72L401.52 53.55L402.09 58.94L404.02 62.15L404.61 66.39L404.36 72.8L405.29 83.11L405.21 89.66L404.99 92.55L404.06 94.6L403.86 95.77L403.84 96.73L404.35 96.9L404.66 100.11L402.73 105.65L403.87 109.12L400.95 110.46L389.4 102.46L386.7 103.16L385.17 105.25L381.86 108.19L381.46 110.08L377.99 117.17L375.71 119.77L374.06 122.53L373.08 126.77L373.13 131.23L373.51 134.29L373.81 134.72L374.28 134.64L375.85 133.26L376.23 135.23L377.9 136.91L378.03 137.89L377.56 139.13L377.77 139.78L380.16 142.16L382.28 144.97L385.91 146.43L383.08 150.08L382.35 150.02L381.16 149.06L380.45 149.25L379.87 149.04L377.32 149.65L376.5 149.07L376.27 148.14L375.03 148.36L374.07 149.18L372.89 148.35L372.27 148.44L371.57 147.73L370.24 147.26L369.01 147.38L367.48 148.47L365.51 148.1L363.94 148.31L363.51 148.14L363.34 147.19L362.36 146.99L361.71 147.75L360.86 147.67L359.65 148.02L358.21 149.21L357.08 149.52L356.25 150.51L354.08 149.8L352.79 150.54L351.45 150.36L350.62 149.83L348.49 150.53L347.28 152.85L346.49 152.48L344.98 152.44L344.47 152.95L344.45 153.69L343.64 153.73L343.09 154.19L342.44 154.06L341.44 152.21L340.35 151.29L340.65 150.68L338.95 149.2L339.09 148.64L338.58 148.33L338.41 147.26L337.97 146.68L336.75 145.92L335.17 146.28L335.28 145.46L334.96 145.17L334.2 145.16L333.77 144.57L332.92 144.45L331.92 143.43L330.5 143.36L329.44 143.88L328.02 141.45L327.84 140.08L327.1 140.17L326.33 139.34L325.68 139.24L323.96 139.92L323.46 140.78L322.68 140.37L321.75 140.52L318.83 138.68L317.28 138.11L316.46 138.9L317.43 139.03L317.37 139.59L316.27 139.65L314.44 141.03L314.99 139.95L314.09 139.5L313.13 138.24L312.54 138.27L311.64 138.98L310.82 137.37L309.01 137.43L308.03 136.83L308.67 135.55L308.13 135.23L308.14 134.22L308.99 133.96L308.98 133.53L310.38 133.06L310.18 132.29L309.68 132.06L310.21 130.21L311.29 130.01L311.42 129.56L312.58 129.46L312.7 128.34L313.7 128.27L313.71 127.36L314.81 126.51L316.49 126.75L316.72 125.88L319.94 125.64L320 123.92L322.9 122.5L321.77 120.16L320.12 120.33L318.29 121.12L317.3 120.52L317.16 120.07L316.46 119.97L316.38 118.15L313.94 117.36L313.76 115.18L312.82 114.46L312.41 113.06L313.56 112.63L313.97 112.76L314.12 112.37L315.15 112.7L315.53 111.07L316.5 110.19L318.62 110.74L319.68 110.77L319.86 110.51L320.3 111.36L320.74 111.13L322.26 111.2L323.18 106.33L324.83 106.61L324.99 105.38L324.63 105.1L325.86 102.81L325.17 101.98L325.46 100.96L327.92 99.97L327.3 97.79L324.72 98.49L321.88 101.93L317.85 101.57L316.45 96.57L317.07 95.59L316.61 94.82L317.15 93.94L317.36 89.56L319.01 89.38L320.71 87.97L319.97 86L316.25 86.41L313.44 87.28L312.98 87.93L310.28 88.54L309.87 88.41L309.74 86.75L312.22 85.98L312.25 85.05L316.07 84.15L316.03 81.99L318.45 81.03L319.43 80.23L321.13 79.94L322.38 80.34L323.63 79.97L324.83 80.35L324.41 78.22L326.81 78.65L327.07 79.17L327.38 79.07L328.41 81.34L331.16 80.17L330.94 79.34L331.49 79.08L331.51 77.07L333 76.67L335.68 77.34L335.64 78.17L336.53 80.56L335.68 81.98L335.82 82.2L337.42 81.45L337.43 82.32L338.57 83L338.38 83.85L339.1 84.75L339.75 84.64L341.46 86.36L341.35 87.11L345.95 87.91L346.74 86.76L346.75 86.08L347.92 85.68L347.23 84.14L346.26 83.87L346.2 82.95L348 82.78L348.01 81.82L354.49 76.49L356.02 76.29L356.4 74.4L354.98 73.2L355.29 72.45L354.72 70.2L357.05 70.12L358.45 71.2L358.55 69.41L359.87 70.23L361.58 70.21L362 69.01L362.99 69.63L365.75 70.26L366.78 71.62L368.29 70.11L368.31 68.36L369.04 68.08L369.42 68.89L371.31 68.1L371.57 67.32L372.85 66.84L374.99 68.71L373.97 70.11L374.56 70.75L376 71.05L376.27 71.75V72.57L375.68 73.5L376.11 73.85V75.84L376.53 76.31L378.08 76.66L378.62 77.07L379.36 78.82V81.05L380.22 81.22L380.75 82.51L381.25 82.81L384.69 82.5L385.2 81.63L386.75 81.24L390.39 81.64L389.97 79.56L390.85 79.45L390.62 77.46L388.42 77.75V77.11H387.35V74.95L386.89 73.89H390.39L391.75 72.9V72.15L392.86 72.4L392.82 71.98L393.86 71.9V70.38L392.34 70.11L390.1 68.8L389.49 67.88L390.65 66.78L388.32 66.74L388.87 65.72L387.44 64.83L388.51 64.05L388.58 63.1L389.71 61.9L389.84 59.92L389.45 58.9L390.85 57.59V56.04L385.05 56.2L385.6 55.57L387.02 55.87L388.07 54.97L388.87 55.24L390.02 54.03L391.97 54.92L392.48 54.94L393.13 54.41L393.7 55.01L394.64 54L395.18 53.89L395.79 55.1L396.58 55.04L397.15 54.82L397.37 53.73L398.55 52.56L400.05 52.75L401.1 52.25L401.18 52.72Z" fill="#EEEEEE" fill-opacity="0.8" stroke="black" stroke-opacity="0.8"/>
<path d="M95.51 77.9602L96.23 78.5802L97.01 78.6502L97.68 79.3801L98.3 79.0201L98.71 79.5201L99.73 79.7302L100.46 81.1602L102.75 82.7202L103.76 84.4902L104.27 86.2502L105 86.2701L105.07 86.7701L104.61 87.3202L104.79 87.9302L105.64 88.3102L105.63 89.1702L106.93 90.1202L106.4 90.7902L107.05 91.0901L106.97 91.5201L107.53 92.7902L108.63 93.2302L108.74 94.1102L109.3 94.1702L109.15 94.8902L109.53 95.0201L110.15 94.6002L110.44 94.8102L110.32 95.2802L109.6 95.4802L109.31 96.6301L109.38 96.9802L110.28 97.5402L110.91 98.6802L109.9 99.9501L110.7 100.01L110.53 101.5L111.64 102.67L111.95 103.87L112.54 104.26L112.24 105.47L113.29 104.87L113.32 106.34L113.91 106.93L113.7 107.99L114.64 109.25L114.09 110.62L114.56 111.4L114.36 112.3L114.68 112.78L114.3 113.58L114.61 113.98L115.12 114L115.16 114.71L114.17 115.69L113.88 117.33L113.29 118.46L112.65 118.76L111.14 120.98L110.82 121.96L110.27 122.21L109.73 123.04L109.12 123.13L108.85 124.04L108.61 125.8L109.35 128.36L109.34 129.79L108.86 130.74L109.35 131.75L109.3 133.52L109.84 134.01L109.78 134.59L110.76 135.17L110.89 136.68L111.46 135.76L112.86 135.37L113.64 134.64L114.11 134.69L114.37 134.2L116.28 133.46L117.35 133.87L118.18 133.81L119.4 135L120.85 135.08L122.56 135.71L124.46 134.98L125.88 134.78L126.71 135.06L127.81 134.37L129.12 134.31L129.88 134.32L132.45 135.35L133.22 134.95L134.1 134.94L135.14 135.48L137.03 135.33L139.2 133.42L139.25 131.42L138.89 130.81L139.1 130.27L139.95 129.69L143.56 129.86L146.04 128.79L146.89 127.28L148.99 125.14L148.97 124.51L149.44 124.13L149.96 121.98L150.85 121.45L151.46 120.64L154.32 119.79L154.29 118.9L155.23 118.44L155.14 117.87L155.93 117.08L156.75 117.02L157.18 116.48L159.02 117.13L159.44 116.86L159.8 116.18L159.93 114.69L160.56 114.83L161.25 113.74L162.84 113.83L163.05 122.42L162.73 122.53L162.43 123.27L162.84 126.72L163.06 127.02L163.99 127.1L166.53 126.93L166.96 127.84L168.43 127.75L168.85 128L169.21 128.99L169.58 128.37L169.88 128.41L171.21 129.63L171.95 129.89L170.91 132.25L171.8 133.58L170.88 134.13L170.76 135.29L171.5 136.79L171.6 138.19L172.7 139.54L171.91 140.01L170.79 140.11L170.44 142.76L170.58 143.93L171.49 145.62L173.19 145.15L173.48 146.05L174.45 146.64L176.38 149.34L178.6 149.46L179.59 149.8L181.44 151.49L182.42 151.11L183.31 152.08L182.93 153.04L186.17 153.06L187.35 154.2L189.99 155.32L190.28 155.3L191.39 153.38L193.4 153.8L194.3 153.14L194.18 152.66L193.24 152.48L194.1 151.01L195.45 151.54L196.4 151.52L195.92 149.51L196.5 148.41L198.43 149.71L197.67 151.87L197.48 156.65L199.07 157.21L198.41 160.22L199.28 161.06L207.32 159.23L207.91 160.24L207.86 163.11L205.77 165.53L206.21 166.29L206.67 166.64L207.21 166.39L208.61 167.87L207.77 169.66L208.44 169.73L209.95 171.29L210.79 170.89L211.39 169.46L212.54 168.57L212.91 167.31L212.64 166L213.37 165.11L213.5 164.47L214.34 164.19L214.74 163.38L214.61 162.08L215.09 161.36L214.87 160.42L214.36 160.15L214.08 159.19L214.56 158L216.04 157.93L216.19 157.27L216.54 157.1L216.7 158.1L217.15 158.46L216.88 159.12L217.04 159.61L223.08 159.55L223.49 159.8L218.61 165.7L218.18 165.78L221.04 171.42L221.59 171.31L222.3 170.65L222.99 171.86L221.64 175.49L220.87 175.64L220.67 176.32L219.7 176.39L220.26 177.6L220.71 177.66L219.88 181.3L218.67 182.66L218.94 183.15L218.31 186.57L219.68 187.07L205.62 217.06L205.79 218.16L207.79 221.08L208.37 221.33L208.98 221.2L209.41 222L210.77 222.28L211.99 223.95L213.64 224.36L214.37 226.5L217.37 227.34L218.12 229.47L219.86 232.69L221.1 233.5L222.31 235.58L223.45 236.09L223.84 237.57L224.88 238.58L226.19 239.33L227.17 241.04L229.34 242.38L230.31 243.9L232.63 244.08L234.61 245.8L235 250.96L236.87 251.2L236.21 252.45L235.38 252.78L235.03 253.4L236.15 254.38L236.34 255.72L234.98 257.33L235.44 258.17L234.84 259.3L234.1 259.39L234.69 260.12L233.73 261.67L233.03 261.69L232.55 262.16L232.56 263.82L231.8 264.33L228.3 263.54L224.12 265.83L222.02 265.82L221.02 266.89L219 267.41L218.9 268.77L217.99 268.27L217.07 269.41L214.68 269.78L213.27 269.32L211.28 269.6L211.22 271.62L210.15 272.15L210.37 272.45L209.88 274.18L210.13 275.06L209.74 278.78L204.75 278.97V279.47L203.48 280.71L200.71 279.73L200.31 280.23L200.58 281.36L198.4 281.48L197.3 279.48L197.75 278.86L195.6 278.89L195.19 280.82L194.25 281.25L193.81 282.33L193.04 282.36L192.54 281.08L191.41 280.71L192.3 280.02L192.26 279.4L189.93 278.39L189.66 277.38L187.05 277.41L186.39 277.08L185.99 277.24L185.45 278.27L184.81 278.22L184.05 278.61L181.22 278.06L181 278.91L179.2 279.01L177.72 279.91L177.27 281.81L176.35 282.89L176.36 283.73L172.62 287.03L171.61 285.51L172.01 284.25L169.71 283.21L167.61 283.85L166.83 283.5L166.54 282.5L164.56 283.15L163.62 281.72L161.13 282.19L159.51 281.67L160.22 279.38L159.04 278.75L158.98 277.74L157 277.33L152.41 274.69L151.75 275.12L151.41 276.91L149.29 280.93L149.14 284.05L146.84 283.05L147.26 284.62L146.5 285.32L147.21 286.76L146.83 287.97L148.06 289.27L147.04 291.49L146.54 289.98L144.92 290.73L144.83 293.48L143.09 294.16L142.76 295.41L140.99 295.74L138.7 294.82L138.63 294.22L137.7 293.8L136.35 295.16L134.84 293.88L132.86 294.58L133.11 297.07L131.56 297.7L130.84 297.53L129.71 298.81L129.12 298.48L127.3 299.17L126.53 298.97L126.05 300.54L125.08 301.42L123.9 301.79L122.63 305.2L123.09 306.5L119.1 307.8L118.08 307.23L114.69 308.16L113.6 309.06L113.55 309.84L114.05 310.41L114.26 312.56L113.65 314.6L112 315.28L111.6 316.18L109.85 315.98L108.44 316.43L107.4 314.82L105.73 316.26L103.89 316.43L102.85 315.25L101.95 315.4L101.85 314.02L101.06 313.71L100.01 311.96L97.53 310.92L97.58 308.17L96.19 306.84L94.64 301.15L94.63 299.65L95.78 300.22L96.85 299.12L96.66 298.25L98.33 296.57L98.99 296.93L98.63 294.78L97.98 294.56L98 293.6L97.24 293.11L95.63 294.26L95.08 295.39L93.97 295.36L93.5 296.81L90.95 299.15L89.05 299.46L88.85 299L87.7 298.79L87.64 299.56L86.41 300.4L85.62 299.9L84.86 300.61L85.29 301.45L84.04 301.96L83.3 300.66L82.71 301.13L82.72 302.75L81.75 304.5L82.59 306.25L82.47 306.82L80.51 308.09L79.29 305.59L79.78 302.14L78.39 299.51L77.75 298.91L77.38 296.68L79.9 295.25L79.32 292.61L79.54 290.24L78.42 290L77.45 288.89L76.62 289.23L76.28 288.79L75.32 288.71L74.58 287.06L73.3 286.63L73.92 283.85L71.94 285.78L71.8 285.35L71.21 285.1L70.52 285.45L69.26 284.62L67.72 284.5L67.77 282.67L69.02 281.45L68.86 280.5L69.22 280.22L68 277.11L68.59 277.1L68.51 275.21L68.95 274.84L68.54 274.08L68.06 274.03L68.62 272.82L66.85 272.27L67.61 270.81L67.31 268.61L66.19 267.47L67.17 266.09L65.69 265.54L65.05 263.98L65.3 260.69L64 258.36L64.31 256.75L66.1 255.32L63.46 253.8L65.78 253.06L65.37 249.16L63.02 248.88L60.94 247.05L61.32 245.92L60.29 244.31L57.72 243.74L55.3 240.3L53.37 240.82L53.39 242.68L54.05 244.79L50.84 240.98L51.32 242.81L50.5 244.44L50 247.13L47.39 251.63L46.2 251.69L45 252.68L42.91 250.83L42.22 250.6L40.45 250.96L40.34 254.75L37.32 255.11L38.52 257.39L35.85 259.83L36.35 262.58L34.59 261.86L32.69 257.41L30.88 254.97L29.96 253.2L28.61 249.49L26.31 246.05L26.44 245.12L25.7 244.3L23.02 239.19L23.03 238.76L22.09 237.48L21.8 235.2L20.86 233.22L20.79 232.32L20.02 231.19L18.85 226.55L17.95 224.94L17.04 222.02L15.9 216.02L15 214.81L14.83 213.18L13.64 209.93L13.52 208.83L11.77 206.41L11.6 205.14L10.84 204.08L10.97 203.29L10.19 200.51L8.49 199.08L7.74 197.92L7.81 197.24L6.97 195.68L4.73 193.93L3.72 190.94L3.89 189.79L2.96 189.14L1.71 187.5L1 187.12L1.39 185.55L1.75 185.01L3.79 184.73L4.84 184.06L5.02 183.34L5.59 182.79L6.53 182.32L6.96 182.37L7.28 183.12L7.98 183.06L8.57 181.98L9.15 181.58L9.02 180.12L10.1 179.18L8.57 177.13L8.69 176.31L9.15 176.04L9.82 176.54L10.33 176.44L10.41 175.56L9.88 174.87L11.11 174.71L10.63 173.42L11.69 173.75L12.07 173.53L12.04 171.07L12.46 170.55L13.88 170.82L14.3 170.3L15.1 170.72L15.66 170.06L17.22 169.57L18.1 170.28L18.5 171.07L19.93 171.77L19.73 174.46L20.33 175.46L20.91 175.89L21.57 175.48L22.39 175.58L23.15 175.06L24.02 175.6L24.88 177.12L24.89 178.21L25.66 179.34L25.53 180.52L25.05 181.21L24.16 181.27L23.61 182.29L23.78 183.01L24.61 183.77L24.84 185.24L26.13 185.28L25.68 189.68L27.68 188.96L29.26 189.13L29.8 188.75L30.57 189.02L30.88 190.75L31.84 191.17L32.32 191.18L33.25 190.48L33.83 190.91L34.39 190.42L35.22 190.89L38.7 190.98L40.71 192.34L42.39 194.33L43.18 194.21L44.22 194.85L45.22 194.86L45.66 195.36L46.24 195.25L46.59 194.81L47.46 194.92L47.9 194.42L49.32 194.62L50.1 194.39L50.65 194.84L52.04 194.98L53.09 194.56L54.13 194.71L55.54 193.75L57.29 193.33L58.55 193.57L60.03 193.17L65.65 193.86L66.62 194.49L67.24 195.99L67.83 195.85L68.67 196.57L69.87 197.01L71.47 196.61L72.41 196.1L73.29 195.06L74.58 195.01V194.38L73.73 193.87L73.24 192.42L73.86 190.51L74.66 190.08L75.86 190.34L77.49 190.19L78.89 189.46L79.77 188.35L80.11 186.22L81.11 185.42L81.58 184.07L83.17 183.61L84.96 183.71L86.05 182.77L87.94 183.36L88.41 183.11L88.81 182.17L89.63 181.45L90.51 181.63L92.08 181.05L92.85 181.17L92.94 74.9102L94.7 77.0402L95.09 77.0602L95.51 77.9602Z" fill="#EEEEEE" fill-opacity="0.8" stroke="black" stroke-opacity="0.8"/>
<path d="M407.24 133.96L407.41 134.42L409.15 135.3L410.29 134.49L411.71 135L414.33 135.36L425.62 135.54L427.46 135.24L427.19 136.22L426.58 136.49L426.3 137.45L426.49 137.91L427.18 136.39L426.34 141.7L421.87 154.06L421.96 155.18L419.95 163.05L419.63 165.33L419.76 166.53L418.72 172.81L415.32 179.62L415.42 180.84L414.74 183.75L413.7 185.35L404.6 194.28L398.2 196.79L394.88 200.4L393.06 202.95L390.16 205.7L389.35 206.95L387.09 209.25L383.19 214.73L379.82 220.88L379.32 222.47L379.54 223.44L379.97 223.59L379.95 223.9L375.39 229.22L368.66 242.83L362.73 252.57L360.44 255.52L358.36 259.2L357.55 259.83L356.97 259.36L356.68 258.17L355.9 257.68L356.02 256.75L355.5 256.25L355.75 255.47L355.56 254.88L354.92 254.23L354.24 254.17L353.9 252.89L352.83 252.79L352.48 252.29L351.76 252.48L351.52 251.65L350.92 251.41L350.93 250.66L350.04 251L349.36 250.64L348.98 250.17L347.74 249.6L347.37 248.6L346.48 248.53L346.1 249.11L345.84 248.73L344.14 248.31L343.75 247.88L342.22 248.19L341.59 247.54L340.66 247.29L338.71 245.92L337.36 246.52H335.79L335.43 247.01L334.93 247.1L333.15 246.22L328.55 245.03L328.62 243.45L326.63 242.47L326.08 242.68L325.78 244.62L325.28 244.69L322.96 244.22L321.89 242.6L320.7 242.41L320.2 241.29L320.84 240.06L320.01 238.47L320.93 236.23L323.17 237.14L323.87 235.31L325.07 235.63L325.42 234.67L326.41 234.05L326.05 233.13L327.47 232.28L328.47 232.39L329.64 230.86L329.62 229.76L328.6 229.12L327.27 227.41L328.86 226.21L329.48 226.38L329.81 225.55L330.87 225.27L331 224.92L330.54 223.43L329.86 222.75L330.54 220.08L330.37 219.11L331.09 218.46L331.24 217.51L331.94 217.37L332.72 216.74L334.14 216.49L334.13 215.33L335.1 214.98L334.4 214.5L334.42 212.3L335.15 211.98L335.5 211.33L337.59 210.56L338.56 208.06L337.95 207.35L338.04 206.3L337.12 205.1L336.66 203.62L335.37 202.06L335.49 200.98L335.17 200.45L334.06 200.09L333.27 200.43L332.42 199.49L332.21 198.69L330.8 198.12L330.11 197.47L328.6 196.97L328.39 195.88L327.23 195.1L326.5 195.24L325.54 194.14L324.31 191.75L323.09 190.69L323.85 188.34L324.74 187.59L324.73 186.44L325.78 185.27L328.43 184.41L330.04 184.61L330.55 184.1L331.55 184.12L331.76 183.73L331.49 182.63L332.46 181.37L334.37 180.87L335.46 179.53L337.3 178.69L339.4 175.95L342.02 175.54L342.63 173.98L343.81 173.13L343.9 171.42L342.81 170.27L342.66 169.43L342.98 168.37L343.78 167.55L343.74 165.82L345.24 162.93L344.69 161.88L344.83 160.09L344.19 158.88V158.34L346.73 156.45L346.37 155L344.99 154.39L345.26 153.4L344.94 153.11L346.48 152.42L347.27 152.79L348.48 150.46L350.61 149.77L351.44 150.29L352.78 150.48L353.88 149.74L356.25 150.45L357.07 149.46L358.21 149.15L359.64 147.96L360.85 147.61L361.7 147.69L362.35 146.93L363.33 147.13L363.5 148.08L363.93 148.24L365.5 148.03L367.47 148.41L369.01 147.31L370.24 147.19L371.57 147.67L372.27 148.38L372.89 148.28L374.06 149.11L375.03 148.29L376.27 148.06L376.5 149L377.31 149.58L379.86 148.97L380.44 149.18L381.15 148.99L382.34 149.94L383.08 150L385.91 146.35L391.41 148.41L403.69 148.45L403.89 141.03L404.69 133.78L406.93 133.65L407.24 133.96Z" fill="#EEEEEE" fill-opacity="0.8" stroke="black" stroke-opacity="0.8"/>
<path d="M259.09 71.5801L258.97 74.6201L259.93 76.5501L263.87 77.1001L265.34 76.8401L267.12 78.1801L268.62 78.2801L269.08 77.5301L273.14 76.0501L273.56 75.4601L274.43 75.4801L274.56 74.0401L275.63 74.0101L276.22 78.8201L278.09 79.5301L278.88 81.0401L278.86 81.7501L282.36 81.9101L283.94 83.8801L287.24 83.5001L287.79 84.7101L288.59 84.9901L289.9 83.2301L289.82 81.6101L290.68 81.0701H291.9L292.96 82.1201L294.09 81.4401L295.85 81.6601L296 80.0501L297.88 80.4901L298.11 81.3401L297.37 81.3501L297.41 81.9301L298.5 82.0501L298.85 81.4301L299.66 81.2601L300.51 81.7901L302.84 81.9601L306.59 83.8601L306.14 85.7201L304.86 85.7901L303.59 84.8401L302.6 85.0701L302.34 86.4101L303.76 86.6501L303.9 88.1001L306.26 87.8401L308.15 90.9501V93.7101L306.06 94.3601L304.68 94.2701L304.14 94.8201L303.57 94.8301L303.33 93.9701L304.02 93.7401L304.01 93.3401L303.19 93.2001L302.04 93.6601L302.92 97.5101L301.76 98.3401L301.42 99.3801L300.66 99.8801L298.58 100.2L299.74 103.13L298.99 103.4L299.4 104.91L298.72 105.34L298.71 105.95L297.52 105.82V106.38L295.46 106.65L293.26 107.38L293.16 106.24L291.83 106.95L290.95 105.73L290.65 104.56L286.13 107.01L286.19 108.99L284.95 114.15L283.45 114.37L283.37 115.46L281.65 115.26L282.56 119.22L280.5 120.59L278.95 122.06L280.05 124.09L280.06 125.44L283.49 124.12L283.25 123.38L286.89 122.57L287.36 122.95L287.67 123.81L290.15 123.72L289.78 124.91L289.52 124.98L289.01 127.4L288.41 127.54L289.31 128.67L288.56 132.82L287.95 132.92L287.94 134.28L286.86 135.98L286.03 136.17L285.38 136.92L285.04 136.95L282.84 134.95L281.99 135.49L280.01 138.09L279.31 138.37L279.03 138.26L279.23 137.51L278.86 137.08L278.36 137.39L277.09 137.16L275.53 137.4L273.79 136.75L273.14 135.59L272.78 135.56L272.39 135.97L272.51 137.8L272.27 138.19L270.82 136.84L269.87 137.72L269.3 137.37L267.83 138.14L266.89 139L266.63 139.92L266.32 139.99L265.93 139.38L264.81 139.63L263.74 140.78L263.69 142.34L262.24 142.16L261.47 143.38L261.12 143.32L260.51 143.92L259.6 143.83L259.28 144.12L259.61 145.14L261.35 147.01L261.36 148.51L260.54 148.82L260.25 149.69L261.99 150.76L261.52 150.91L260.23 150.61L259.51 150.9L257.81 150.63L257.1 151.58L256.35 151.21L255.45 151.49L254.51 152.79L254.54 153.85L253.77 154.06L250.75 156.98L249.95 158.63L250.44 159.55L250.34 160.03L249.41 160.27L249.04 160.04L248.47 157.75L246.59 157.24L245.04 157.32L244.04 156.11L243.4 156.2L240.17 158.04L239.65 158.93L237.64 158.54L236.7 159.41L235.59 159.32L233.42 160.19L231.93 161.33L231.49 162.1L229.54 162.58L228.8 163.61L229.11 164.11L228.85 164.67L227.16 166.21L226.01 166.4L225.15 167.76L225.36 168.56L224.68 169.29L224.44 170.06L222.26 170.65L221.55 171.31L221 171.42L218.14 165.78L218.57 165.7L223.46 159.8L223.05 159.55L217.01 159.61L216.85 159.12L217.13 158.47L216.68 158.1L216.52 157.11L216.17 157.28L216.02 157.93L214.53 158L214.05 159.19L214.34 160.15L214.85 160.42L215.07 161.36L214.59 162.08L214.72 163.38L214.31 164.19L213.47 164.47L213.34 165.11L212.61 166L212.89 167.32L212.52 168.58L211.37 169.46L210.77 170.89L209.93 171.29L208.42 169.73L207.75 169.66L208.59 167.87L207.19 166.39L206.65 166.65L206.19 166.3L205.75 165.53L207.84 163.12L207.89 160.25L207.3 159.23L199.26 161.07L198.39 160.22L199.05 157.21L197.46 156.65L197.65 151.87L198.41 149.71L196.48 148.41L195.9 149.51L196.38 151.52L195.43 151.54L194.08 151.01L193.22 152.48L194.16 152.66L194.27 153.13L193.37 153.8L191.36 153.38L190.25 155.29L189.96 155.31L187.32 154.19L186.14 153.05L182.91 153.03L183.28 152.07L182.39 151.1L181.41 151.48L179.57 149.79L178.58 149.45L176.36 149.33L174.43 146.63L173.46 146.04L173.17 145.14L171.47 145.61L170.56 143.92L170.42 142.75L170.77 140.1L171.89 140L172.68 139.53L171.57 138.18L171.47 136.78L170.73 135.27L170.85 134.12L171.76 133.57L170.87 132.24L171.92 129.88L171.18 129.62L169.85 128.39L169.56 128.35L169.19 128.97L168.83 127.98L168.41 127.74L166.94 127.82L166.51 126.91L163.98 127.08L163.05 127L162.83 126.7L162.42 123.25L162.72 122.5L163.05 122.39L162.84 113.81L161.24 113.72L161.4 113.21L162.22 112.66L162.27 111.12L163.63 111.04L163.76 108.86L164.27 108.25L163.46 107.62L163.54 107.27L164.05 107.1L164.08 106.42L165.05 105.83L165.22 105.4L164.13 104.69L164.62 104.3L165 102.85L165.67 102.59L166.23 101.77L166.4 100.88L165.87 100.56L165.9 100.03L166.99 99.4301L166.07 98.5801L167.22 96.3301L166.87 95.8701L167.47 95.5401L168.25 95.7601L167.92 95.2801L168.51 93.8301L170.02 92.7601L170.22 91.5601L171 91.3001L171.08 90.2701L171.63 90.7001L172.41 90.1701L172.19 90.9501L172.76 91.2701L173.22 90.6601L173.74 90.4801L174.28 90.7701L175.93 89.6701L176.99 89.8201L178.02 89.5801L178.45 90.1201L178.92 89.8501L179.17 90.1201L180.06 89.9501L180.38 90.4101L181.59 90.7301L182.28 89.7201L182.84 89.7301L182.65 90.2301L183.74 91.0901L183.71 91.8701L184.54 91.5901L186.11 93.1201L186.67 92.7801L186.89 93.1401L186.68 93.3901L187.15 93.6701L187.35 94.2301L187.87 94.0801L187.97 93.7301L188.3 94.6001L189.16 94.9301L189.56 94.6101L190.34 95.2901L190.66 96.2801L192.09 96.7101L191.74 97.1101L191.86 97.4601L192.44 97.4901L192.69 98.2301L193.57 98.4301L194.35 99.7801L195.1 100.07L195.97 99.4901L196.97 99.6901L197.02 100.49L198.29 100.57L198.43 99.8701L200.24 99.9301L200.81 99.3601L200.84 99.8901L201.73 99.6501L203.54 101.92L204.15 101.88L203.97 102.51L205.11 102.3L205.14 102.89L206.47 103.74L207.79 103.35L208.31 102.91L213.7 105.32L214.61 105.44L215.79 104.99L217.45 105.5L219 105.06L220.2 105.15L220.58 104.49L221.49 103.79L222.44 103.5L223.05 102.66L223.96 102.52L225.92 103.56L231.62 103.84L238.03 99.6901L239.58 96.3201L239.54 95.3401L240.73 92.2901L241.06 89.9301L241.88 88.9601L245.08 80.0301L245.63 79.4801L245.8 77.7901L245.14 76.3701L245.22 74.9401L245.98 74.9101L246.91 73.9801L249.3 73.9001L259.09 71.5801Z" fill="#EEEEEE" fill-opacity="0.8" stroke="black" stroke-opacity="0.8"/>
<path d="M185.89 348.38L184.64 349.15L182.83 349.21L181.92 349.62L180.83 350.48L180.92 352.13L180.65 352.34L178.22 352.19L177.02 351.77L172.62 351.72L171.23 351.29L170.12 351.83L168.97 351.08L165.97 350.12L165.22 349.92L164.95 350.11L160.36 348.95H159.86L157.81 350.71L157.31 350.62L156.67 350.96L153.54 350.67L151.38 350.87L149.35 351.7L148.42 352.71L148.1 354.17L149.41 354.94L148.16 355.47L145.52 355.61L143.42 356.73L142.91 357.81L143.01 358.18L143.83 358.49L142.82 359.04L142.73 359.47L143.04 359.7L142.32 359.86L141.83 360.46L140.37 361.01L137.31 361.45L133.19 360.23L130.8 360.59L130.28 360.89L130.44 361.39L130.06 361.35L129.51 361.99L127.17 362.87L122.61 361.03L119.29 360.49L116.8 360.72L115.46 361.52L115.4 361.91L115.93 362.78L115.78 363.48L115.3 363.94L110.51 363.13L107.17 363.78L105.75 364.38L104.42 365.53L103.72 366.99L102.26 367.6L101.83 368.2L99.57 369.43L99.32 370.59L97.6 370.85L95.47 372.04L94.61 373.16L94.62 374.03L95.04 374.27L94.86 374.53L94.1 374.59L93.67 375.16L93.06 375.24L92.17 374.63L91.62 374.65L91.4 374.12L90.07 373.1L85.28 372.97L84.83 373.4L84.95 373.6L83.94 373.88L83.67 373.61L84.02 373.37L83.79 372.73L83.18 372.84L82.88 371.98L81.61 371.41L81.01 370.17L79 369.59L78.62 368.6L78.04 368.09L74.9 368.9L75.25 368.3L75.9 368.13L76.55 366.53L77.19 366.06L76.56 364.01L75.37 362.31L75.75 362.02L76.47 362.47L76.74 362.11L77.41 362.01L77.27 361.87L75.55 361.84L75.05 362.09L74.42 361.86L73.09 362.8L72.19 362.31L70.56 362.14L70.36 361.78L70.66 361.48L69.96 360.57L70.77 360.1L70.59 359.95L70.98 359.07L70.45 359.24L69.76 360L69.9 360.52L68.37 359.72L67.27 359.88L66.55 360.44L65.09 360.23L64.72 360.79L63.83 360.66L63.82 361.22L63.21 360.85L62.91 361.2L62.44 359.94L62.99 359.65L62.51 358.35L63.51 357.36L63.63 356.89L62.65 354.96L63.95 353.97L62.53 352.19L61.37 351.56L59.92 351.3L57.3 351.39L54.26 352.14L52.8 353.2L52.46 354.87L53.27 355.27L53.84 356.56L53.39 358.96L53.71 359.69L54.37 360.24L53.75 360.27L53.21 359.59L52.26 359.13L51.29 357.25L51.04 355.15L50.54 354.57L50.14 354.6L49.69 353.68L50.58 352.91L50.5 351.91L50.98 351.03L50.84 350.68L50.49 350.51L50.22 350.99L49.38 350.26L50 349.8L50.42 348.64L51.04 348.22L51 347.16L51.75 345.91L52.56 345.89L52.83 346.56L53.67 346.17L54.08 345.23L54.02 344.12L53.01 342.06L52.78 339.51L51.73 337.43L51.17 337.25L50.7 336.04L49.4 335.58L49.6 333.82L48.84 332.19L47.6 330.82L45.2 329.04L45.59 328.64L45.55 328.16L43.94 325.16L41.64 322.7L40.62 322.31L40.71 321.81L40.13 321.34L40.3 320.98L40.62 321.09L40.87 320.11L41.28 320.22L41.77 321.01L41.74 321.79L42.2 322L42.02 322.5L42.75 322.83L43.76 324.27L44.22 324.3L44.63 323.89L44.6 323.65L44.28 323.92L43.56 323.39L43.76 322.52L42.19 321.24L42.51 319.6L42.18 318.83L41.18 317.97L40.71 317.94L40.02 318.29L39.82 319.27L39.18 319.6L38.63 319.38L38.87 318.53L38.06 317.79L38.36 317.31L38.38 316.81L38.11 316.74L38.43 316.53L38.42 316.08L38.23 315.58L37.75 315.37L38.36 313.87L37.36 312.69L38.92 311.87L38.73 310.15L39.35 309.63L39.36 309.25L40.15 309.51L40.54 308.81L41 308.91L40.91 309.66L41.94 310.1L41.81 310.38L42.88 311.42L44.79 311.21L47.87 308.14L49.36 305.32L49.89 303.6L50.13 301.44L49.57 297.11L50.18 297.04L50.4 296L49.26 291.01L49.17 290.31L49.58 290.01L49.59 289.62L48.31 285.6L48.69 284.31L47.56 282.06L47.27 279.85L44.81 275.96L44.43 274.76L38.79 267.74L38.23 266.83L38.27 265.6L37.9 264.99L36.05 263.16L35 261.55L36.76 262.27L36.26 259.52L38.93 257.08L37.73 254.8L40.75 254.44L40.86 250.65L42.63 250.29L43.32 250.52L45.41 252.37L46.6 251.39L47.79 251.33L50.4 246.83L50.9 244.14L51.72 242.51L51.24 240.68L54.45 244.49L53.79 242.38L53.77 240.52L55.7 240L58.12 243.44L60.69 244.01L61.72 245.62L61.34 246.75L63.42 248.58L65.77 248.86L66.18 252.76L63.86 253.5L66.5 255.02L64.71 256.45L64.4 258.06L65.71 260.39L65.46 263.68L66.1 265.24L67.58 265.79L66.6 267.17L67.72 268.31L68.02 270.51L67.26 271.97L69.03 272.52L68.47 273.73L68.95 273.78L69.36 274.54L68.92 274.91L69 276.8L68.41 276.81L69.63 279.92L69.27 280.2L69.43 281.15L68.18 282.37L68.13 284.2L69.67 284.32L70.93 285.15L71.62 284.8L72.21 285.05L72.35 285.48L74.33 283.55L73.71 286.33L74.99 286.76L75.73 288.41L76.69 288.49L77.03 288.93L77.86 288.59L78.83 289.7L79.9 289.93L79.68 292.3L80.26 294.94L77.74 296.37L78.11 298.6L78.75 299.2L80.14 301.83L79.65 305.28L80.87 307.78L82.83 306.51L82.95 305.94L82.11 304.19L83.08 302.44L83.07 300.82L83.66 300.35L84.4 301.65L85.65 301.14L85.22 300.3L85.98 299.59L86.77 300.09L88 299.25L88.06 298.48L89.21 298.69L89.41 299.15L91.31 298.84L93.86 296.5L94.33 295.05L95.44 295.08L95.99 293.95L97.6 292.8L98.36 293.29L98.34 294.25L98.99 294.47L99.35 296.62L98.69 296.26L97.02 297.94L97.21 298.81L96.14 299.91L94.99 299.34L95 300.84L96.55 306.53L97.94 307.86L97.89 310.61L100.37 311.65L101.42 313.4L102.21 313.71L102.31 315.09L103.21 314.94L104.25 316.12L106.09 315.95L107.76 314.51L108.8 316.12L110.21 315.67L111.96 315.87L112.36 314.97L114.01 314.29L114.62 312.25L114.4 310.1L113.9 309.53L113.95 308.75L115.04 307.85L118.43 306.92L119.45 307.49L123.44 306.19L122.98 304.89L124.25 301.48L125.43 301.11L126.4 300.23L126.88 298.66L127.65 298.86L129.47 298.17L130.06 298.5L131.19 297.22L131.91 297.39L133.46 296.76L133.21 294.27L135.19 293.57L136.7 294.85L138.05 293.49L138.98 293.91L139.05 294.51L141.34 295.43L143.11 295.1L143.44 293.85L145.18 293.17L145.27 290.42L146.89 289.67L147.39 291.18L148.41 288.96L147.18 287.66L147.56 286.45L146.85 285.01L147.61 284.31L147.19 282.74L149.49 283.74L149.64 280.62L151.76 276.6L152.1 274.81L152.76 274.38L157.35 277.02L159.33 277.43L159.39 278.44L160.57 279.07L159.86 281.36L161.48 281.88L163.97 281.41L164.91 282.84L166.89 282.19L167.18 283.19L167.96 283.54L170.06 282.9L172.36 283.94L171.96 285.2L172.97 286.72L176.71 283.42L176.7 282.58L177.62 281.5L178.07 279.6L179.55 278.7L181.35 278.6L181.57 277.75L184.4 278.3L185.16 277.91L185.8 277.96L186.34 276.93L186.74 276.77L187.4 277.1L190.01 277.07L190.28 278.08L192.61 279.09L192.65 279.71L191.76 280.4L192.89 280.77L193.39 282.05L194.16 282.02L194.6 280.94L195.54 280.51L195.95 278.58L198.1 278.55L197.65 279.17L198.75 281.17L200.93 281.05L201.43 281.92L200.88 281.94L201.02 282.8L200.38 282.72L199.65 284.49L201.06 284.24L202.1 285.03L201.85 285.36L202.43 285.83L201.28 287.55L200.18 287.29L199.73 287.98L200.27 288.28L200.29 289.02L199.28 289.1L199.37 290.22L200.16 290.29L200.15 291.26L198.98 292.21L197.73 292.04L197.85 292.79L193.83 294.97L192.65 294.75L192.2 293.69L190.68 292.85L190.26 293.42L188.14 294.64L187.56 296.27L188.25 297.04L187.94 297.64L182.4 297.48L181.3 299.03L179.61 298.28L179.27 299.04L176.57 300.43L177.18 301.54L177 303.03L178.12 303.78L178.79 306.75L178.34 307.26L177.62 307.47L179.52 308.77L179.84 310.46L180.78 310.96L180.6 312.74L177.95 311.91L175.79 311.6L174.37 313.2L172.76 311.03L173.53 313.77L173.18 314.33L171.23 314.27L170.96 315L169.55 316.32L169.89 317.7L168.98 318.53L169.71 319.36L169.51 320.91L168.06 322.32L167.1 324.7L166.6 324.93L165.01 327.87L164.07 328.03L164.14 329.6L164.64 330.49L168.47 330.89L172.16 329.93L172.59 330.33L174.18 329.99L178.73 330.14L179.54 331.43L183.6 331.51L183.85 332.08L186.06 333.19L186.27 335.53L188.14 337.18L188 338.37L185.9 338.59L185.17 338.12L184.59 339.11L181.84 340.15L181.8 341.23L180.64 342.25L183.2 342.74L183.94 342.08L185.17 342.26L185.26 343.7L188.94 345.08L187.4 347.12L187.71 348.5L185.89 348.38Z" fill="#EEEEEE" fill-opacity="0.8" stroke="black" stroke-opacity="0.8"/>
<path d="M68 356C76.2843 356 83 349.284 83 341C83 332.716 76.2843 326 68 326C59.7157 326 53 332.716 53 341C53 349.284 59.7157 356 68 356Z" fill="#FFA500"/>
<path d="M229 348C237.284 348 244 341.284 244 333C244 324.716 237.284 318 229 318C220.716 318 214 324.716 214 333C214 341.284 220.716 348 229 348Z" fill="#FFA500"/>
<path d="M276 331C284.284 331 291 324.284 291 316C291 307.716 284.284 301 276 301C267.716 301 261 307.716 261 316C261 324.284 267.716 331 276 331Z" fill="#FFA500"/>
<path d="M410 353C418.284 353 425 346.284 425 338C425 329.716 418.284 323 410 323C401.716 323 395 329.716 395 338C395 346.284 401.716 353 410 353Z" fill="#FFA500"/>
<path d="M362 236C370.284 236 377 229.284 377 221C377 212.716 370.284 206 362 206C353.716 206 347 212.716 347 221C347 229.284 353.716 236 362 236Z" fill="#FFA500"/>
<path d="M301 126C308.18 126 314 120.18 314 113C314 105.82 308.18 100 301 100C293.82 100 288 105.82 288 113C288 120.18 293.82 126 301 126Z" fill="#FFA500"/>
<path d="M372 111C380.284 111 387 104.284 387 96C387 87.7157 380.284 81 372 81C363.716 81 357 87.7157 357 96C357 104.284 363.716 111 372 111Z" fill="#FFA500"/>
<path d="M390 178C398.284 178 405 171.284 405 163C405 154.716 398.284 148 390 148C381.716 148 375 154.716 375 163C375 171.284 381.716 178 390 178Z" fill="#FFA500"/>
<path d="M125 189C133.284 189 140 182.284 140 174C140 165.716 133.284 159 125 159C116.716 159 110 165.716 110 174C110 182.284 116.716 189 125 189Z" fill="#FFA500"/>
<path d="M217 182C225.284 182 232 175.284 232 167C232 158.716 225.284 152 217 152C208.716 152 202 158.716 202 167C202 175.284 208.716 182 217 182Z" fill="#FFA500"/>
<path d="M276 201C284.284 201 291 194.284 291 186C291 177.716 284.284 171 276 171C267.716 171 261 177.716 261 186C261 194.284 267.716 201 276 201Z" fill="#FFA500"/>
<path d="M345 36C353.284 36 360 29.2843 360 21C360 12.7157 353.284 6 345 6C336.716 6 330 12.7157 330 21C330 29.2843 336.716 36 345 36Z" fill="#FFA500"/>
<path d="M232 133C240.284 133 247 126.284 247 118C247 109.716 240.284 103 232 103C223.716 103 217 109.716 217 118C217 126.284 223.716 133 232 133Z" fill="#FFA500"/>
<path d="M323 76C331.284 76 338 69.2843 338 61C338 52.7157 331.284 46 323 46C314.716 46 308 52.7157 308 61C308 69.2843 314.716 76 323 76Z" fill="#FFA500"/>
<path d="M266.744 358.364V370H264.619L259.557 362.676H259.472V370H257.011V358.364H259.17L264.193 365.682H264.295V358.364H266.744ZM272.675 370.17C271.792 370.17 271.029 369.983 270.385 369.608C269.745 369.229 269.25 368.703 268.902 368.028C268.554 367.35 268.379 366.564 268.379 365.67C268.379 364.769 268.554 363.981 268.902 363.307C269.25 362.629 269.745 362.102 270.385 361.727C271.029 361.348 271.792 361.159 272.675 361.159C273.557 361.159 274.319 361.348 274.959 361.727C275.603 362.102 276.099 362.629 276.447 363.307C276.796 363.981 276.97 364.769 276.97 365.67C276.97 366.564 276.796 367.35 276.447 368.028C276.099 368.703 275.603 369.229 274.959 369.608C274.319 369.983 273.557 370.17 272.675 370.17ZM272.686 368.295C273.088 368.295 273.423 368.182 273.692 367.955C273.961 367.723 274.163 367.409 274.3 367.011C274.44 366.614 274.51 366.161 274.51 365.653C274.51 365.146 274.44 364.693 274.3 364.295C274.163 363.898 273.961 363.583 273.692 363.352C273.423 363.121 273.088 363.006 272.686 363.006C272.281 363.006 271.94 363.121 271.663 363.352C271.391 363.583 271.184 363.898 271.044 364.295C270.908 364.693 270.839 365.146 270.839 365.653C270.839 366.161 270.908 366.614 271.044 367.011C271.184 367.409 271.391 367.723 271.663 367.955C271.94 368.182 272.281 368.295 272.686 368.295ZM279.959 370.148C279.584 370.148 279.262 370.015 278.993 369.75C278.728 369.481 278.595 369.159 278.595 368.784C278.595 368.413 278.728 368.095 278.993 367.83C279.262 367.564 279.584 367.432 279.959 367.432C280.322 367.432 280.641 367.564 280.913 367.83C281.186 368.095 281.322 368.413 281.322 368.784C281.322 369.034 281.258 369.263 281.129 369.472C281.004 369.676 280.839 369.841 280.635 369.966C280.43 370.087 280.205 370.148 279.959 370.148ZM290.409 370.17C289.527 370.17 288.763 369.983 288.119 369.608C287.479 369.229 286.985 368.703 286.636 368.028C286.288 367.35 286.114 366.564 286.114 365.67C286.114 364.769 286.288 363.981 286.636 363.307C286.985 362.629 287.479 362.102 288.119 361.727C288.763 361.348 289.527 361.159 290.409 361.159C291.292 361.159 292.053 361.348 292.693 361.727C293.337 362.102 293.833 362.629 294.182 363.307C294.53 363.981 294.705 364.769 294.705 365.67C294.705 366.564 294.53 367.35 294.182 368.028C293.833 368.703 293.337 369.229 292.693 369.608C292.053 369.983 291.292 370.17 290.409 370.17ZM290.42 368.295C290.822 368.295 291.157 368.182 291.426 367.955C291.695 367.723 291.898 367.409 292.034 367.011C292.174 366.614 292.244 366.161 292.244 365.653C292.244 365.146 292.174 364.693 292.034 364.295C291.898 363.898 291.695 363.583 291.426 363.352C291.157 363.121 290.822 363.006 290.42 363.006C290.015 363.006 289.674 363.121 289.398 363.352C289.125 363.583 288.919 363.898 288.778 364.295C288.642 364.693 288.574 365.146 288.574 365.653C288.574 366.161 288.642 366.614 288.778 367.011C288.919 367.409 289.125 367.723 289.398 367.955C289.674 368.182 290.015 368.295 290.42 368.295ZM300.972 361.273V363.091H295.585V361.273H300.972ZM296.818 370V360.642C296.818 360.009 296.941 359.485 297.188 359.068C297.438 358.652 297.778 358.339 298.21 358.131C298.642 357.922 299.133 357.818 299.682 357.818C300.053 357.818 300.392 357.847 300.699 357.903C301.009 357.96 301.241 358.011 301.392 358.057L300.96 359.875C300.866 359.845 300.748 359.816 300.608 359.79C300.472 359.763 300.331 359.75 300.188 359.75C299.831 359.75 299.583 359.833 299.443 360C299.303 360.163 299.233 360.392 299.233 360.688V370H296.818ZM308.642 370.165C308.085 370.165 307.589 370.068 307.153 369.875C306.718 369.678 306.373 369.388 306.119 369.006C305.869 368.619 305.744 368.138 305.744 367.562C305.744 367.078 305.833 366.67 306.011 366.341C306.189 366.011 306.432 365.746 306.739 365.545C307.045 365.345 307.394 365.193 307.784 365.091C308.178 364.989 308.591 364.917 309.023 364.875C309.53 364.822 309.939 364.773 310.25 364.727C310.561 364.678 310.786 364.606 310.926 364.511C311.066 364.417 311.136 364.277 311.136 364.091V364.057C311.136 363.697 311.023 363.419 310.795 363.222C310.572 363.025 310.254 362.926 309.841 362.926C309.405 362.926 309.059 363.023 308.801 363.216C308.544 363.405 308.373 363.644 308.29 363.932L306.051 363.75C306.165 363.22 306.388 362.761 306.722 362.375C307.055 361.985 307.485 361.686 308.011 361.477C308.542 361.265 309.155 361.159 309.852 361.159C310.337 361.159 310.801 361.216 311.244 361.33C311.691 361.443 312.087 361.619 312.432 361.858C312.78 362.097 313.055 362.403 313.256 362.778C313.456 363.15 313.557 363.595 313.557 364.114V370H311.261V368.79H311.193C311.053 369.062 310.866 369.303 310.631 369.511C310.396 369.716 310.114 369.877 309.784 369.994C309.455 370.108 309.074 370.165 308.642 370.165ZM309.335 368.494C309.691 368.494 310.006 368.424 310.278 368.284C310.551 368.14 310.765 367.947 310.92 367.705C311.076 367.462 311.153 367.187 311.153 366.881V365.955C311.078 366.004 310.973 366.049 310.841 366.091C310.712 366.129 310.566 366.165 310.403 366.199C310.241 366.229 310.078 366.258 309.915 366.284C309.752 366.307 309.604 366.328 309.472 366.347C309.188 366.388 308.939 366.455 308.727 366.545C308.515 366.636 308.35 366.759 308.233 366.915C308.116 367.066 308.057 367.256 308.057 367.483C308.057 367.812 308.176 368.064 308.415 368.239C308.657 368.409 308.964 368.494 309.335 368.494ZM323.259 361.273L320.207 370H317.48L314.429 361.273H316.986L318.798 367.517H318.889L320.696 361.273H323.259ZM326.751 370.165C326.195 370.165 325.698 370.068 325.263 369.875C324.827 369.678 324.482 369.388 324.229 369.006C323.979 368.619 323.854 368.138 323.854 367.562C323.854 367.078 323.943 366.67 324.121 366.341C324.299 366.011 324.541 365.746 324.848 365.545C325.155 365.345 325.503 365.193 325.893 365.091C326.287 364.989 326.7 364.917 327.132 364.875C327.64 364.822 328.049 364.773 328.359 364.727C328.67 364.678 328.895 364.606 329.036 364.511C329.176 364.417 329.246 364.277 329.246 364.091V364.057C329.246 363.697 329.132 363.419 328.905 363.222C328.681 363.025 328.363 362.926 327.95 362.926C327.515 362.926 327.168 363.023 326.911 363.216C326.653 363.405 326.482 363.644 326.399 363.932L324.161 363.75C324.274 363.22 324.498 362.761 324.831 362.375C325.164 361.985 325.594 361.686 326.121 361.477C326.651 361.265 327.265 361.159 327.962 361.159C328.446 361.159 328.911 361.216 329.354 361.33C329.801 361.443 330.196 361.619 330.541 361.858C330.89 362.097 331.164 362.403 331.365 362.778C331.566 363.15 331.666 363.595 331.666 364.114V370H329.371V368.79H329.303C329.162 369.062 328.975 369.303 328.74 369.511C328.505 369.716 328.223 369.877 327.893 369.994C327.564 370.108 327.183 370.165 326.751 370.165ZM327.445 368.494C327.801 368.494 328.115 368.424 328.388 368.284C328.661 368.14 328.875 367.947 329.03 367.705C329.185 367.462 329.263 367.187 329.263 366.881V365.955C329.187 366.004 329.083 366.049 328.95 366.091C328.821 366.129 328.676 366.165 328.513 366.199C328.35 366.229 328.187 366.258 328.024 366.284C327.861 366.307 327.714 366.328 327.581 366.347C327.297 366.388 327.049 366.455 326.837 366.545C326.625 366.636 326.46 366.759 326.342 366.915C326.225 367.066 326.166 367.256 326.166 367.483C326.166 367.812 326.286 368.064 326.524 368.239C326.767 368.409 327.073 368.494 327.445 368.494ZM333.544 370V361.273H335.964V370H333.544ZM334.76 360.148C334.4 360.148 334.091 360.028 333.834 359.79C333.58 359.547 333.453 359.258 333.453 358.92C333.453 358.587 333.58 358.301 333.834 358.062C334.091 357.82 334.4 357.699 334.76 357.699C335.12 357.699 335.427 357.82 335.68 358.062C335.938 358.301 336.067 358.587 336.067 358.92C336.067 359.258 335.938 359.547 335.68 359.79C335.427 360.028 335.12 360.148 334.76 360.148ZM340.324 358.364V370H337.903V358.364H340.324ZM344.751 370.165C344.195 370.165 343.698 370.068 343.263 369.875C342.827 369.678 342.482 369.388 342.229 369.006C341.979 368.619 341.854 368.138 341.854 367.562C341.854 367.078 341.943 366.67 342.121 366.341C342.299 366.011 342.541 365.746 342.848 365.545C343.155 365.345 343.503 365.193 343.893 365.091C344.287 364.989 344.7 364.917 345.132 364.875C345.64 364.822 346.049 364.773 346.359 364.727C346.67 364.678 346.895 364.606 347.036 364.511C347.176 364.417 347.246 364.277 347.246 364.091V364.057C347.246 363.697 347.132 363.419 346.905 363.222C346.681 363.025 346.363 362.926 345.95 362.926C345.515 362.926 345.168 363.023 344.911 363.216C344.653 363.405 344.482 363.644 344.399 363.932L342.161 363.75C342.274 363.22 342.498 362.761 342.831 362.375C343.164 361.985 343.594 361.686 344.121 361.477C344.651 361.265 345.265 361.159 345.962 361.159C346.446 361.159 346.911 361.216 347.354 361.33C347.801 361.443 348.196 361.619 348.541 361.858C348.89 362.097 349.164 362.403 349.365 362.778C349.566 363.15 349.666 363.595 349.666 364.114V370H347.371V368.79H347.303C347.162 369.062 346.975 369.303 346.74 369.511C346.505 369.716 346.223 369.877 345.893 369.994C345.564 370.108 345.183 370.165 344.751 370.165ZM345.445 368.494C345.801 368.494 346.115 368.424 346.388 368.284C346.661 368.14 346.875 367.947 347.03 367.705C347.185 367.462 347.263 367.187 347.263 366.881V365.955C347.187 366.004 347.083 366.049 346.95 366.091C346.821 366.129 346.676 366.165 346.513 366.199C346.35 366.229 346.187 366.258 346.024 366.284C345.861 366.307 345.714 366.328 345.581 366.347C345.297 366.388 345.049 366.455 344.837 366.545C344.625 366.636 344.46 366.759 344.342 366.915C344.225 367.066 344.166 367.256 344.166 367.483C344.166 367.812 344.286 368.064 344.524 368.239C344.767 368.409 345.073 368.494 345.445 368.494ZM351.589 370V358.364H354.01V362.739H354.084C354.19 362.504 354.343 362.265 354.544 362.023C354.749 361.777 355.014 361.572 355.339 361.409C355.669 361.242 356.078 361.159 356.567 361.159C357.203 361.159 357.79 361.326 358.328 361.659C358.866 361.989 359.296 362.487 359.618 363.153C359.94 363.816 360.101 364.648 360.101 365.648C360.101 366.621 359.944 367.443 359.629 368.114C359.319 368.78 358.894 369.286 358.357 369.631C357.822 369.972 357.224 370.142 356.561 370.142C356.091 370.142 355.692 370.064 355.362 369.909C355.036 369.754 354.769 369.559 354.561 369.324C354.353 369.085 354.194 368.845 354.084 368.602H353.976V370H351.589ZM353.959 365.636C353.959 366.155 354.031 366.608 354.175 366.994C354.319 367.381 354.527 367.682 354.8 367.898C355.072 368.11 355.404 368.216 355.794 368.216C356.188 368.216 356.521 368.108 356.794 367.892C357.067 367.672 357.273 367.369 357.413 366.983C357.557 366.593 357.629 366.144 357.629 365.636C357.629 365.133 357.559 364.689 357.419 364.307C357.279 363.924 357.072 363.625 356.8 363.409C356.527 363.193 356.192 363.085 355.794 363.085C355.4 363.085 355.067 363.189 354.794 363.398C354.525 363.606 354.319 363.902 354.175 364.284C354.031 364.667 353.959 365.117 353.959 365.636ZM364.136 358.364V370H361.716V358.364H364.136ZM370.053 370.17C369.155 370.17 368.382 369.989 367.734 369.625C367.09 369.258 366.594 368.739 366.246 368.068C365.897 367.394 365.723 366.597 365.723 365.676C365.723 364.778 365.897 363.991 366.246 363.312C366.594 362.634 367.085 362.106 367.717 361.727C368.354 361.348 369.1 361.159 369.956 361.159C370.532 361.159 371.068 361.252 371.564 361.438C372.064 361.619 372.5 361.894 372.871 362.261C373.246 362.629 373.537 363.091 373.746 363.648C373.954 364.201 374.058 364.848 374.058 365.591V366.256H366.689V364.756H371.78C371.78 364.407 371.704 364.098 371.553 363.83C371.401 363.561 371.191 363.35 370.922 363.199C370.657 363.044 370.348 362.966 369.996 362.966C369.628 362.966 369.303 363.051 369.018 363.222C368.738 363.388 368.518 363.614 368.359 363.898C368.2 364.178 368.119 364.491 368.115 364.835V366.261C368.115 366.693 368.195 367.066 368.354 367.381C368.517 367.695 368.746 367.938 369.041 368.108C369.337 368.278 369.687 368.364 370.092 368.364C370.361 368.364 370.607 368.326 370.831 368.25C371.054 368.174 371.246 368.061 371.405 367.909C371.564 367.758 371.685 367.572 371.768 367.352L374.007 367.5C373.893 368.038 373.661 368.508 373.308 368.909C372.96 369.307 372.509 369.617 371.956 369.841C371.407 370.061 370.772 370.17 370.053 370.17ZM381.761 358.364V370H379.341V358.364H381.761ZM387.643 370.17C386.761 370.17 385.998 369.983 385.354 369.608C384.714 369.229 384.219 368.703 383.871 368.028C383.522 367.35 383.348 366.564 383.348 365.67C383.348 364.769 383.522 363.981 383.871 363.307C384.219 362.629 384.714 362.102 385.354 361.727C385.998 361.348 386.761 361.159 387.643 361.159C388.526 361.159 389.287 361.348 389.928 361.727C390.571 362.102 391.068 362.629 391.416 363.307C391.765 363.981 391.939 364.769 391.939 365.67C391.939 366.564 391.765 367.35 391.416 368.028C391.068 368.703 390.571 369.229 389.928 369.608C389.287 369.983 388.526 370.17 387.643 370.17ZM387.655 368.295C388.056 368.295 388.392 368.182 388.661 367.955C388.929 367.723 389.132 367.409 389.268 367.011C389.409 366.614 389.479 366.161 389.479 365.653C389.479 365.146 389.409 364.693 389.268 364.295C389.132 363.898 388.929 363.583 388.661 363.352C388.392 363.121 388.056 363.006 387.655 363.006C387.25 363.006 386.909 363.121 386.632 363.352C386.359 363.583 386.153 363.898 386.013 364.295C385.876 364.693 385.808 365.146 385.808 365.653C385.808 366.161 385.876 366.614 386.013 367.011C386.153 367.409 386.359 367.723 386.632 367.955C386.909 368.182 387.25 368.295 387.655 368.295ZM396.001 370.165C395.445 370.165 394.948 370.068 394.513 369.875C394.077 369.678 393.732 369.388 393.479 369.006C393.229 368.619 393.104 368.138 393.104 367.562C393.104 367.078 393.193 366.67 393.371 366.341C393.549 366.011 393.791 365.746 394.098 365.545C394.405 365.345 394.753 365.193 395.143 365.091C395.537 364.989 395.95 364.917 396.382 364.875C396.89 364.822 397.299 364.773 397.609 364.727C397.92 364.678 398.145 364.606 398.286 364.511C398.426 364.417 398.496 364.277 398.496 364.091V364.057C398.496 363.697 398.382 363.419 398.155 363.222C397.931 363.025 397.613 362.926 397.2 362.926C396.765 362.926 396.418 363.023 396.161 363.216C395.903 363.405 395.732 363.644 395.649 363.932L393.411 363.75C393.524 363.22 393.748 362.761 394.081 362.375C394.414 361.985 394.844 361.686 395.371 361.477C395.901 361.265 396.515 361.159 397.212 361.159C397.696 361.159 398.161 361.216 398.604 361.33C399.051 361.443 399.446 361.619 399.791 361.858C400.14 362.097 400.414 362.403 400.615 362.778C400.816 363.15 400.916 363.595 400.916 364.114V370H398.621V368.79H398.553C398.412 369.062 398.225 369.303 397.99 369.511C397.755 369.716 397.473 369.877 397.143 369.994C396.814 370.108 396.433 370.165 396.001 370.165ZM396.695 368.494C397.051 368.494 397.365 368.424 397.638 368.284C397.911 368.14 398.125 367.947 398.28 367.705C398.435 367.462 398.513 367.187 398.513 366.881V365.955C398.437 366.004 398.333 366.049 398.2 366.091C398.071 366.129 397.926 366.165 397.763 366.199C397.6 366.229 397.437 366.258 397.274 366.284C397.111 366.307 396.964 366.328 396.831 366.347C396.547 366.388 396.299 366.455 396.087 366.545C395.875 366.636 395.71 366.759 395.592 366.915C395.475 367.066 395.416 367.256 395.416 367.483C395.416 367.812 395.536 368.064 395.774 368.239C396.017 368.409 396.323 368.494 396.695 368.494ZM406.01 370.142C405.347 370.142 404.747 369.972 404.209 369.631C403.675 369.286 403.25 368.78 402.936 368.114C402.625 367.443 402.47 366.621 402.47 365.648C402.47 364.648 402.631 363.816 402.953 363.153C403.275 362.487 403.703 361.989 404.237 361.659C404.775 361.326 405.364 361.159 406.004 361.159C406.493 361.159 406.9 361.242 407.226 361.409C407.555 361.572 407.821 361.777 408.021 362.023C408.226 362.265 408.381 362.504 408.487 362.739H408.561V358.364H410.976V370H408.589V368.602H408.487C408.374 368.845 408.213 369.085 408.004 369.324C407.8 369.559 407.533 369.754 407.203 369.909C406.877 370.064 406.48 370.142 406.01 370.142ZM406.777 368.216C407.167 368.216 407.497 368.11 407.766 367.898C408.038 367.682 408.247 367.381 408.391 366.994C408.538 366.608 408.612 366.155 408.612 365.636C408.612 365.117 408.54 364.667 408.396 364.284C408.252 363.902 408.044 363.606 407.771 363.398C407.499 363.189 407.167 363.085 406.777 363.085C406.379 363.085 406.044 363.193 405.771 363.409C405.499 363.625 405.292 363.924 405.152 364.307C405.012 364.689 404.942 365.133 404.942 365.636C404.942 366.144 405.012 366.593 405.152 366.983C405.296 367.369 405.502 367.672 405.771 367.892C406.044 368.108 406.379 368.216 406.777 368.216ZM420.227 363.761L418.011 363.898C417.973 363.708 417.892 363.538 417.767 363.386C417.642 363.231 417.477 363.108 417.273 363.017C417.072 362.922 416.831 362.875 416.551 362.875C416.176 362.875 415.86 362.955 415.602 363.114C415.345 363.269 415.216 363.477 415.216 363.739C415.216 363.947 415.299 364.123 415.466 364.267C415.633 364.411 415.919 364.527 416.324 364.614L417.903 364.932C418.752 365.106 419.384 365.386 419.801 365.773C420.218 366.159 420.426 366.667 420.426 367.295C420.426 367.867 420.258 368.369 419.92 368.801C419.587 369.233 419.129 369.57 418.545 369.812C417.966 370.051 417.297 370.17 416.54 370.17C415.384 370.17 414.464 369.93 413.778 369.449C413.097 368.964 412.697 368.305 412.58 367.472L414.96 367.347C415.032 367.699 415.206 367.968 415.483 368.153C415.759 368.335 416.114 368.426 416.545 368.426C416.97 368.426 417.311 368.345 417.568 368.182C417.83 368.015 417.962 367.801 417.966 367.54C417.962 367.32 417.869 367.14 417.688 367C417.506 366.856 417.225 366.746 416.847 366.67L415.335 366.369C414.483 366.199 413.848 365.903 413.432 365.483C413.019 365.062 412.812 364.527 412.812 363.875C412.812 363.314 412.964 362.831 413.267 362.426C413.574 362.021 414.004 361.708 414.557 361.489C415.114 361.269 415.765 361.159 416.511 361.159C417.614 361.159 418.481 361.392 419.114 361.858C419.75 362.324 420.121 362.958 420.227 363.761Z" fill="white"/>
<path d="M57.767 344.955V343.017L62.625 335.364H64.2955V338.045H63.3068L60.2443 342.892V342.983H67.1477V344.955H57.767ZM63.3523 347V344.364L63.3977 343.506V335.364H65.7045V347H63.3523ZM73.0881 347.159C72.2396 347.159 71.4839 347.013 70.821 346.722C70.1619 346.426 69.6411 346.021 69.2585 345.506C68.8797 344.987 68.6847 344.388 68.6733 343.71H71.1506C71.1657 343.994 71.2585 344.244 71.429 344.46C71.6032 344.672 71.8343 344.837 72.1222 344.955C72.41 345.072 72.7339 345.131 73.0938 345.131C73.4688 345.131 73.8002 345.064 74.0881 344.932C74.3759 344.799 74.6013 344.616 74.7642 344.381C74.9271 344.146 75.0085 343.875 75.0085 343.568C75.0085 343.258 74.9214 342.983 74.7472 342.744C74.5767 342.502 74.3305 342.312 74.0085 342.176C73.6903 342.04 73.3116 341.972 72.8722 341.972H71.7869V340.165H72.8722C73.2434 340.165 73.571 340.1 73.8551 339.972C74.143 339.843 74.3665 339.665 74.5256 339.438C74.6847 339.206 74.7642 338.938 74.7642 338.631C74.7642 338.339 74.6941 338.083 74.554 337.864C74.4176 337.64 74.2244 337.466 73.9744 337.341C73.7282 337.216 73.4403 337.153 73.1108 337.153C72.7775 337.153 72.4725 337.214 72.196 337.335C71.9195 337.453 71.6979 337.621 71.5312 337.841C71.3646 338.061 71.2756 338.318 71.2642 338.614H68.9062C68.9176 337.943 69.1089 337.352 69.4801 336.841C69.8513 336.33 70.3513 335.93 70.9801 335.642C71.6127 335.35 72.3267 335.205 73.1222 335.205C73.9252 335.205 74.6278 335.35 75.2301 335.642C75.8324 335.934 76.3002 336.328 76.6335 336.824C76.9706 337.316 77.1373 337.869 77.1335 338.483C77.1373 339.134 76.9347 339.678 76.5256 340.114C76.1203 340.549 75.5919 340.826 74.9403 340.943V341.034C75.7964 341.144 76.4479 341.441 76.8949 341.926C77.3456 342.407 77.5691 343.009 77.5653 343.733C77.5691 344.396 77.3778 344.985 76.9915 345.5C76.6089 346.015 76.0805 346.42 75.4062 346.716C74.732 347.011 73.9593 347.159 73.0881 347.159Z" fill="black"/>
<path d="M114.943 180V178.227L119.085 174.392C119.438 174.051 119.733 173.744 119.972 173.472C120.214 173.199 120.398 172.932 120.523 172.67C120.648 172.405 120.71 172.119 120.71 171.812C120.71 171.472 120.633 171.178 120.477 170.932C120.322 170.682 120.11 170.491 119.841 170.358C119.572 170.222 119.267 170.153 118.926 170.153C118.57 170.153 118.259 170.225 117.994 170.369C117.729 170.513 117.525 170.72 117.381 170.989C117.237 171.258 117.165 171.578 117.165 171.949H114.83C114.83 171.187 115.002 170.527 115.347 169.966C115.691 169.405 116.174 168.972 116.795 168.665C117.417 168.358 118.133 168.205 118.943 168.205C119.777 168.205 120.502 168.352 121.119 168.648C121.741 168.939 122.223 169.345 122.568 169.864C122.913 170.383 123.085 170.977 123.085 171.648C123.085 172.087 122.998 172.521 122.824 172.949C122.653 173.377 122.348 173.852 121.909 174.375C121.47 174.894 120.85 175.517 120.051 176.244L118.352 177.909V177.989H123.239V180H114.943ZM129.322 180.159C128.474 180.159 127.718 180.013 127.055 179.722C126.396 179.426 125.875 179.021 125.493 178.506C125.114 177.987 124.919 177.388 124.908 176.71H127.385C127.4 176.994 127.493 177.244 127.663 177.46C127.838 177.672 128.069 177.837 128.357 177.955C128.644 178.072 128.968 178.131 129.328 178.131C129.703 178.131 130.035 178.064 130.322 177.932C130.61 177.799 130.836 177.616 130.999 177.381C131.161 177.146 131.243 176.875 131.243 176.568C131.243 176.258 131.156 175.983 130.982 175.744C130.811 175.502 130.565 175.312 130.243 175.176C129.925 175.04 129.546 174.972 129.107 174.972H128.021V173.165H129.107C129.478 173.165 129.805 173.1 130.089 172.972C130.377 172.843 130.601 172.665 130.76 172.438C130.919 172.206 130.999 171.938 130.999 171.631C130.999 171.339 130.929 171.083 130.788 170.864C130.652 170.64 130.459 170.466 130.209 170.341C129.963 170.216 129.675 170.153 129.345 170.153C129.012 170.153 128.707 170.214 128.43 170.335C128.154 170.453 127.932 170.621 127.766 170.841C127.599 171.061 127.51 171.318 127.499 171.614H125.141C125.152 170.943 125.343 170.352 125.714 169.841C126.086 169.33 126.586 168.93 127.214 168.642C127.847 168.35 128.561 168.205 129.357 168.205C130.16 168.205 130.862 168.35 131.464 168.642C132.067 168.934 132.535 169.328 132.868 169.824C133.205 170.316 133.372 170.869 133.368 171.483C133.372 172.134 133.169 172.678 132.76 173.114C132.355 173.549 131.826 173.826 131.175 173.943V174.034C132.031 174.144 132.682 174.441 133.129 174.926C133.58 175.407 133.804 176.009 133.8 176.733C133.804 177.396 133.612 177.985 133.226 178.5C132.843 179.015 132.315 179.42 131.641 179.716C130.966 180.011 130.194 180.159 129.322 180.159Z" fill="black"/>
<path d="M223.193 338.159C222.39 338.159 221.674 338.011 221.045 337.716C220.42 337.42 219.924 337.013 219.557 336.494C219.189 335.975 218.998 335.381 218.983 334.71H221.369C221.396 335.161 221.585 335.527 221.938 335.807C222.29 336.087 222.708 336.227 223.193 336.227C223.58 336.227 223.92 336.142 224.216 335.972C224.515 335.797 224.748 335.557 224.915 335.25C225.085 334.939 225.17 334.583 225.17 334.182C225.17 333.773 225.083 333.413 224.909 333.102C224.739 332.792 224.502 332.549 224.199 332.375C223.896 332.201 223.549 332.112 223.159 332.108C222.818 332.108 222.487 332.178 222.165 332.318C221.847 332.458 221.598 332.65 221.42 332.892L219.233 332.5L219.784 326.364H226.898V328.375H221.812L221.511 331.29H221.58C221.784 331.002 222.093 330.763 222.506 330.574C222.919 330.384 223.381 330.29 223.892 330.29C224.593 330.29 225.218 330.455 225.767 330.784C226.316 331.114 226.75 331.566 227.068 332.142C227.386 332.714 227.544 333.373 227.54 334.119C227.544 334.903 227.362 335.6 226.994 336.21C226.631 336.816 226.121 337.294 225.466 337.642C224.814 337.987 224.057 338.159 223.193 338.159ZM233.466 326.205C234.064 326.205 234.64 326.305 235.193 326.506C235.75 326.706 236.246 327.027 236.682 327.466C237.121 327.905 237.468 328.489 237.722 329.216C237.979 329.939 238.11 330.828 238.114 331.881C238.114 332.869 238.002 333.752 237.778 334.528C237.559 335.301 237.242 335.958 236.83 336.5C236.417 337.042 235.919 337.455 235.335 337.739C234.752 338.019 234.1 338.159 233.381 338.159C232.604 338.159 231.919 338.009 231.324 337.71C230.729 337.407 230.25 336.996 229.886 336.477C229.527 335.955 229.309 335.367 229.233 334.716H231.659C231.754 335.14 231.953 335.47 232.256 335.705C232.559 335.936 232.934 336.051 233.381 336.051C234.138 336.051 234.714 335.722 235.108 335.062C235.502 334.4 235.701 333.492 235.705 332.341H235.625C235.451 332.682 235.216 332.975 234.92 333.222C234.625 333.464 234.286 333.652 233.903 333.784C233.525 333.917 233.121 333.983 232.693 333.983C232.008 333.983 231.396 333.822 230.858 333.5C230.32 333.178 229.896 332.735 229.585 332.17C229.275 331.606 229.119 330.962 229.119 330.239C229.116 329.458 229.295 328.763 229.659 328.153C230.023 327.544 230.53 327.066 231.182 326.722C231.837 326.373 232.598 326.201 233.466 326.205ZM233.483 328.136C233.1 328.136 232.759 328.227 232.46 328.409C232.165 328.591 231.93 328.835 231.756 329.142C231.585 329.449 231.502 329.792 231.506 330.17C231.506 330.553 231.589 330.898 231.756 331.205C231.926 331.508 232.157 331.75 232.449 331.932C232.744 332.11 233.081 332.199 233.46 332.199C233.744 332.199 234.008 332.146 234.25 332.04C234.492 331.934 234.703 331.788 234.881 331.602C235.063 331.413 235.205 331.195 235.307 330.949C235.409 330.703 235.46 330.441 235.46 330.165C235.456 329.797 235.369 329.46 235.199 329.153C235.028 328.847 234.794 328.6 234.494 328.415C234.195 328.229 233.858 328.136 233.483 328.136Z" fill="black"/>
<path d="M273.006 311.364V323H270.545V313.699H270.477L267.812 315.369V313.188L270.693 311.364H273.006ZM276.232 323L281.055 313.455V313.375H275.436V311.364H283.601V313.403L278.771 323H276.232Z" fill="black"/>
<path d="M272.006 180.364V192H269.545V182.699H269.477L266.812 184.369V182.188L269.693 180.364H272.006ZM279.021 192.159C278.218 192.159 277.502 192.011 276.874 191.716C276.249 191.42 275.752 191.013 275.385 190.494C275.018 189.975 274.826 189.381 274.811 188.71H277.197C277.224 189.161 277.413 189.527 277.766 189.807C278.118 190.087 278.536 190.227 279.021 190.227C279.408 190.227 279.749 190.142 280.044 189.972C280.343 189.797 280.576 189.557 280.743 189.25C280.913 188.939 280.999 188.583 280.999 188.182C280.999 187.773 280.911 187.413 280.737 187.102C280.567 186.792 280.33 186.549 280.027 186.375C279.724 186.201 279.377 186.112 278.987 186.108C278.646 186.108 278.315 186.178 277.993 186.318C277.675 186.458 277.427 186.65 277.249 186.892L275.061 186.5L275.612 180.364H282.726V182.375H277.641L277.339 185.29H277.408C277.612 185.002 277.921 184.763 278.334 184.574C278.747 184.384 279.209 184.29 279.72 184.29C280.421 184.29 281.046 184.455 281.595 184.784C282.144 185.114 282.578 185.566 282.896 186.142C283.214 186.714 283.372 187.373 283.368 188.119C283.372 188.903 283.19 189.6 282.822 190.21C282.459 190.816 281.949 191.294 281.294 191.642C280.643 191.987 279.885 192.159 279.021 192.159Z" fill="black"/>
<path d="M356.409 227.159C355.811 227.155 355.233 227.055 354.676 226.858C354.123 226.661 353.627 226.341 353.188 225.898C352.748 225.455 352.4 224.867 352.142 224.136C351.888 223.405 351.761 222.508 351.761 221.443C351.765 220.466 351.877 219.593 352.097 218.824C352.32 218.051 352.638 217.396 353.051 216.858C353.468 216.32 353.966 215.911 354.545 215.631C355.125 215.347 355.775 215.205 356.494 215.205C357.271 215.205 357.956 215.356 358.551 215.659C359.146 215.958 359.623 216.366 359.983 216.881C360.347 217.396 360.566 217.973 360.642 218.614H358.216C358.121 218.208 357.922 217.89 357.619 217.659C357.316 217.428 356.941 217.312 356.494 217.312C355.737 217.312 355.161 217.642 354.767 218.301C354.377 218.96 354.178 219.856 354.17 220.989H354.25C354.424 220.644 354.659 220.35 354.955 220.108C355.254 219.862 355.593 219.674 355.972 219.545C356.354 219.413 356.758 219.347 357.182 219.347C357.871 219.347 358.485 219.509 359.023 219.835C359.561 220.157 359.985 220.6 360.295 221.165C360.606 221.729 360.761 222.375 360.761 223.102C360.761 223.89 360.578 224.591 360.21 225.205C359.847 225.818 359.337 226.299 358.682 226.648C358.03 226.992 357.273 227.163 356.409 227.159ZM356.398 225.227C356.777 225.227 357.116 225.136 357.415 224.955C357.714 224.773 357.949 224.527 358.119 224.216C358.29 223.905 358.375 223.557 358.375 223.17C358.375 222.784 358.29 222.437 358.119 222.131C357.953 221.824 357.722 221.58 357.426 221.398C357.131 221.216 356.794 221.125 356.415 221.125C356.131 221.125 355.867 221.178 355.625 221.284C355.386 221.39 355.176 221.538 354.994 221.727C354.816 221.917 354.676 222.136 354.574 222.386C354.472 222.633 354.42 222.896 354.42 223.176C354.42 223.551 354.506 223.894 354.676 224.205C354.85 224.515 355.085 224.763 355.381 224.949C355.68 225.134 356.019 225.227 356.398 225.227ZM367.068 227.256C366.091 227.252 365.25 227.011 364.545 226.534C363.845 226.057 363.305 225.366 362.926 224.46C362.551 223.555 362.366 222.466 362.369 221.193C362.369 219.924 362.557 218.843 362.932 217.949C363.311 217.055 363.85 216.375 364.551 215.909C365.256 215.439 366.095 215.205 367.068 215.205C368.042 215.205 368.879 215.439 369.58 215.909C370.284 216.379 370.826 217.061 371.205 217.955C371.583 218.845 371.771 219.924 371.767 221.193C371.767 222.47 371.578 223.561 371.199 224.466C370.824 225.371 370.286 226.062 369.585 226.54C368.884 227.017 368.045 227.256 367.068 227.256ZM367.068 225.216C367.735 225.216 368.267 224.881 368.665 224.21C369.063 223.54 369.259 222.534 369.256 221.193C369.256 220.311 369.165 219.576 368.983 218.989C368.805 218.402 368.551 217.96 368.222 217.665C367.896 217.369 367.511 217.222 367.068 217.222C366.405 217.222 365.875 217.553 365.477 218.216C365.08 218.879 364.879 219.871 364.875 221.193C364.875 222.087 364.964 222.833 365.142 223.432C365.324 224.027 365.58 224.473 365.909 224.773C366.239 225.068 366.625 225.216 367.068 225.216Z" fill="black"/>
<path d="M385.244 168.159C384.396 168.159 383.64 168.013 382.977 167.722C382.318 167.426 381.797 167.021 381.415 166.506C381.036 165.987 380.841 165.388 380.83 164.71H383.307C383.322 164.994 383.415 165.244 383.585 165.46C383.759 165.672 383.991 165.837 384.278 165.955C384.566 166.072 384.89 166.131 385.25 166.131C385.625 166.131 385.956 166.064 386.244 165.932C386.532 165.799 386.758 165.616 386.92 165.381C387.083 165.146 387.165 164.875 387.165 164.568C387.165 164.258 387.078 163.983 386.903 163.744C386.733 163.502 386.487 163.312 386.165 163.176C385.847 163.04 385.468 162.972 385.028 162.972H383.943V161.165H385.028C385.4 161.165 385.727 161.1 386.011 160.972C386.299 160.843 386.523 160.665 386.682 160.438C386.841 160.206 386.92 159.938 386.92 159.631C386.92 159.339 386.85 159.083 386.71 158.864C386.574 158.64 386.381 158.466 386.131 158.341C385.884 158.216 385.597 158.153 385.267 158.153C384.934 158.153 384.629 158.214 384.352 158.335C384.076 158.453 383.854 158.621 383.688 158.841C383.521 159.061 383.432 159.318 383.42 159.614H381.062C381.074 158.943 381.265 158.352 381.636 157.841C382.008 157.33 382.508 156.93 383.136 156.642C383.769 156.35 384.483 156.205 385.278 156.205C386.081 156.205 386.784 156.35 387.386 156.642C387.989 156.934 388.456 157.328 388.79 157.824C389.127 158.316 389.294 158.869 389.29 159.483C389.294 160.134 389.091 160.678 388.682 161.114C388.277 161.549 387.748 161.826 387.097 161.943V162.034C387.953 162.144 388.604 162.441 389.051 162.926C389.502 163.407 389.725 164.009 389.722 164.733C389.725 165.396 389.534 165.985 389.148 166.5C388.765 167.015 388.237 167.42 387.562 167.716C386.888 168.011 386.116 168.159 385.244 168.159ZM396.053 168.256C395.075 168.252 394.234 168.011 393.53 167.534C392.829 167.057 392.289 166.366 391.911 165.46C391.536 164.555 391.35 163.466 391.354 162.193C391.354 160.924 391.541 159.843 391.916 158.949C392.295 158.055 392.835 157.375 393.536 156.909C394.24 156.439 395.079 156.205 396.053 156.205C397.026 156.205 397.863 156.439 398.564 156.909C399.268 157.379 399.81 158.061 400.189 158.955C400.568 159.845 400.755 160.924 400.751 162.193C400.751 163.47 400.562 164.561 400.183 165.466C399.808 166.371 399.27 167.062 398.57 167.54C397.869 168.017 397.03 168.256 396.053 168.256ZM396.053 166.216C396.719 166.216 397.251 165.881 397.649 165.21C398.047 164.54 398.244 163.534 398.24 162.193C398.24 161.311 398.149 160.576 397.967 159.989C397.789 159.402 397.536 158.96 397.206 158.665C396.88 158.369 396.496 158.222 396.053 158.222C395.39 158.222 394.859 158.553 394.462 159.216C394.064 159.879 393.863 160.871 393.859 162.193C393.859 163.087 393.948 163.833 394.126 164.432C394.308 165.027 394.564 165.473 394.893 165.773C395.223 166.068 395.609 166.216 396.053 166.216Z" fill="black"/>
<path d="M362.943 101V99.2273L367.085 95.392C367.438 95.0511 367.733 94.7443 367.972 94.4716C368.214 94.1989 368.398 93.9318 368.523 93.6705C368.648 93.4053 368.71 93.1193 368.71 92.8125C368.71 92.4716 368.633 92.178 368.477 91.9318C368.322 91.6818 368.11 91.4905 367.841 91.358C367.572 91.2216 367.267 91.1534 366.926 91.1534C366.57 91.1534 366.259 91.2254 365.994 91.3693C365.729 91.5133 365.525 91.7197 365.381 91.9886C365.237 92.2576 365.165 92.5777 365.165 92.9489H362.83C362.83 92.1875 363.002 91.5265 363.347 90.9659C363.691 90.4053 364.174 89.9716 364.795 89.6648C365.417 89.358 366.133 89.2045 366.943 89.2045C367.777 89.2045 368.502 89.3523 369.119 89.6477C369.741 89.9394 370.223 90.3447 370.568 90.8636C370.913 91.3826 371.085 91.9773 371.085 92.6477C371.085 93.0871 370.998 93.5208 370.824 93.9489C370.653 94.3769 370.348 94.8523 369.909 95.375C369.47 95.8939 368.85 96.517 368.051 97.2443L366.352 98.9091V98.9886H371.239V101H362.943ZM372.595 98.9545V97.017L377.453 89.3636H379.124V92.0455H378.135L375.072 96.892V96.983H381.976V98.9545H372.595ZM378.18 101V98.3636L378.226 97.5057V89.3636H380.533V101H378.18Z" fill="black"/>
<path d="M312.943 67V65.2273L317.085 61.392C317.438 61.0511 317.733 60.7443 317.972 60.4716C318.214 60.1989 318.398 59.9318 318.523 59.6705C318.648 59.4053 318.71 59.1193 318.71 58.8125C318.71 58.4716 318.633 58.178 318.477 57.9318C318.322 57.6818 318.11 57.4905 317.841 57.358C317.572 57.2216 317.267 57.1534 316.926 57.1534C316.57 57.1534 316.259 57.2254 315.994 57.3693C315.729 57.5133 315.525 57.7197 315.381 57.9886C315.237 58.2576 315.165 58.5777 315.165 58.9489H312.83C312.83 58.1875 313.002 57.5265 313.347 56.9659C313.691 56.4053 314.174 55.9716 314.795 55.6648C315.417 55.358 316.133 55.2045 316.943 55.2045C317.777 55.2045 318.502 55.3523 319.119 55.6477C319.741 55.9394 320.223 56.3447 320.568 56.8636C320.913 57.3826 321.085 57.9773 321.085 58.6477C321.085 59.0871 320.998 59.5208 320.824 59.9489C320.653 60.3769 320.348 60.8523 319.909 61.375C319.47 61.8939 318.85 62.517 318.051 63.2443L316.352 64.9091V64.9886H321.239V67H312.943ZM327.584 67.2557C326.607 67.2519 325.766 67.0114 325.061 66.5341C324.36 66.0568 323.821 65.3655 323.442 64.4602C323.067 63.5549 322.881 62.4659 322.885 61.1932C322.885 59.9242 323.072 58.8428 323.447 57.9489C323.826 57.0549 324.366 56.375 325.067 55.9091C325.771 55.4394 326.61 55.2045 327.584 55.2045C328.557 55.2045 329.394 55.4394 330.095 55.9091C330.8 56.3788 331.341 57.0606 331.72 57.9545C332.099 58.8447 332.286 59.9242 332.283 61.1932C332.283 62.4697 332.093 63.5606 331.714 64.4659C331.339 65.3712 330.802 66.0625 330.101 66.5398C329.4 67.017 328.561 67.2557 327.584 67.2557ZM327.584 65.2159C328.25 65.2159 328.783 64.8807 329.18 64.2102C329.578 63.5398 329.775 62.5341 329.771 61.1932C329.771 60.3106 329.68 59.5758 329.499 58.9886C329.321 58.4015 329.067 57.9602 328.737 57.6648C328.411 57.3693 328.027 57.2216 327.584 57.2216C326.921 57.2216 326.391 57.553 325.993 58.2159C325.595 58.8788 325.394 59.8712 325.391 61.1932C325.391 62.0871 325.48 62.8333 325.658 63.4318C325.839 64.0265 326.095 64.4735 326.425 64.7727C326.754 65.0682 327.141 65.2159 327.584 65.2159Z" fill="black"/>
<path d="M335.943 27V25.2273L340.085 21.392C340.438 21.0511 340.733 20.7443 340.972 20.4716C341.214 20.1989 341.398 19.9318 341.523 19.6705C341.648 19.4053 341.71 19.1193 341.71 18.8125C341.71 18.4716 341.633 18.178 341.477 17.9318C341.322 17.6818 341.11 17.4905 340.841 17.358C340.572 17.2216 340.267 17.1534 339.926 17.1534C339.57 17.1534 339.259 17.2254 338.994 17.3693C338.729 17.5133 338.525 17.7197 338.381 17.9886C338.237 18.2576 338.165 18.5777 338.165 18.9489H335.83C335.83 18.1875 336.002 17.5265 336.347 16.9659C336.691 16.4053 337.174 15.9716 337.795 15.6648C338.417 15.358 339.133 15.2045 339.943 15.2045C340.777 15.2045 341.502 15.3523 342.119 15.6477C342.741 15.9394 343.223 16.3447 343.568 16.8636C343.913 17.3826 344.085 17.9773 344.085 18.6477C344.085 19.0871 343.998 19.5208 343.824 19.9489C343.653 20.3769 343.348 20.8523 342.909 21.375C342.47 21.8939 341.85 22.517 341.051 23.2443L339.352 24.9091V24.9886H344.239V27H335.943ZM350.584 27.2557C349.607 27.2519 348.766 27.0114 348.061 26.5341C347.36 26.0568 346.821 25.3655 346.442 24.4602C346.067 23.5549 345.881 22.4659 345.885 21.1932C345.885 19.9242 346.072 18.8428 346.447 17.9489C346.826 17.0549 347.366 16.375 348.067 15.9091C348.771 15.4394 349.61 15.2045 350.584 15.2045C351.557 15.2045 352.394 15.4394 353.095 15.9091C353.8 16.3788 354.341 17.0606 354.72 17.9545C355.099 18.8447 355.286 19.9242 355.283 21.1932C355.283 22.4697 355.093 23.5606 354.714 24.4659C354.339 25.3712 353.802 26.0625 353.101 26.5398C352.4 27.017 351.561 27.2557 350.584 27.2557ZM350.584 25.2159C351.25 25.2159 351.783 24.8807 352.18 24.2102C352.578 23.5398 352.775 22.5341 352.771 21.1932C352.771 20.3106 352.68 19.5758 352.499 18.9886C352.321 18.4015 352.067 17.9602 351.737 17.6648C351.411 17.3693 351.027 17.2216 350.584 17.2216C349.921 17.2216 349.391 17.553 348.993 18.2159C348.595 18.8788 348.394 19.8712 348.391 21.1932C348.391 22.0871 348.48 22.8333 348.658 23.4318C348.839 24.0265 349.095 24.4735 349.425 24.7727C349.754 25.0682 350.141 25.2159 350.584 25.2159Z" fill="black"/>
<path d="M221.943 124V122.227L226.085 118.392C226.438 118.051 226.733 117.744 226.972 117.472C227.214 117.199 227.398 116.932 227.523 116.67C227.648 116.405 227.71 116.119 227.71 115.812C227.71 115.472 227.633 115.178 227.477 114.932C227.322 114.682 227.11 114.491 226.841 114.358C226.572 114.222 226.267 114.153 225.926 114.153C225.57 114.153 225.259 114.225 224.994 114.369C224.729 114.513 224.525 114.72 224.381 114.989C224.237 115.258 224.165 115.578 224.165 115.949H221.83C221.83 115.187 222.002 114.527 222.347 113.966C222.691 113.405 223.174 112.972 223.795 112.665C224.417 112.358 225.133 112.205 225.943 112.205C226.777 112.205 227.502 112.352 228.119 112.648C228.741 112.939 229.223 113.345 229.568 113.864C229.913 114.383 230.085 114.977 230.085 115.648C230.085 116.087 229.998 116.521 229.824 116.949C229.653 117.377 229.348 117.852 228.909 118.375C228.47 118.894 227.85 119.517 227.051 120.244L225.352 121.909V121.989H230.239V124H221.943ZM236.584 124.256C235.607 124.252 234.766 124.011 234.061 123.534C233.36 123.057 232.821 122.366 232.442 121.46C232.067 120.555 231.881 119.466 231.885 118.193C231.885 116.924 232.072 115.843 232.447 114.949C232.826 114.055 233.366 113.375 234.067 112.909C234.771 112.439 235.61 112.205 236.584 112.205C237.557 112.205 238.394 112.439 239.095 112.909C239.8 113.379 240.341 114.061 240.72 114.955C241.099 115.845 241.286 116.924 241.283 118.193C241.283 119.47 241.093 120.561 240.714 121.466C240.339 122.371 239.802 123.062 239.101 123.54C238.4 124.017 237.561 124.256 236.584 124.256ZM236.584 122.216C237.25 122.216 237.783 121.881 238.18 121.21C238.578 120.54 238.775 119.534 238.771 118.193C238.771 117.311 238.68 116.576 238.499 115.989C238.321 115.402 238.067 114.96 237.737 114.665C237.411 114.369 237.027 114.222 236.584 114.222C235.921 114.222 235.391 114.553 234.993 115.216C234.595 115.879 234.394 116.871 234.391 118.193C234.391 119.087 234.48 119.833 234.658 120.432C234.839 121.027 235.095 121.473 235.425 121.773C235.754 122.068 236.141 122.216 236.584 122.216Z" fill="black"/>
<path d="M217.153 161.205C217.752 161.205 218.328 161.305 218.881 161.506C219.438 161.706 219.934 162.027 220.369 162.466C220.809 162.905 221.155 163.489 221.409 164.216C221.667 164.939 221.797 165.828 221.801 166.881C221.801 167.869 221.689 168.752 221.466 169.528C221.246 170.301 220.93 170.958 220.517 171.5C220.104 172.042 219.606 172.455 219.023 172.739C218.439 173.019 217.788 173.159 217.068 173.159C216.292 173.159 215.606 173.009 215.011 172.71C214.417 172.407 213.938 171.996 213.574 171.477C213.214 170.955 212.996 170.367 212.92 169.716H215.347C215.441 170.14 215.64 170.47 215.943 170.705C216.246 170.936 216.621 171.051 217.068 171.051C217.826 171.051 218.402 170.722 218.795 170.062C219.189 169.4 219.388 168.492 219.392 167.341H219.312C219.138 167.682 218.903 167.975 218.608 168.222C218.313 168.464 217.973 168.652 217.591 168.784C217.212 168.917 216.809 168.983 216.381 168.983C215.695 168.983 215.083 168.822 214.545 168.5C214.008 168.178 213.583 167.735 213.273 167.17C212.962 166.606 212.807 165.962 212.807 165.239C212.803 164.458 212.983 163.763 213.347 163.153C213.71 162.544 214.218 162.066 214.869 161.722C215.525 161.373 216.286 161.201 217.153 161.205ZM217.17 163.136C216.788 163.136 216.447 163.227 216.148 163.409C215.852 163.591 215.617 163.835 215.443 164.142C215.273 164.449 215.189 164.792 215.193 165.17C215.193 165.553 215.277 165.898 215.443 166.205C215.614 166.508 215.845 166.75 216.136 166.932C216.432 167.11 216.769 167.199 217.148 167.199C217.432 167.199 217.695 167.146 217.938 167.04C218.18 166.934 218.39 166.788 218.568 166.602C218.75 166.413 218.892 166.195 218.994 165.949C219.097 165.703 219.148 165.441 219.148 165.165C219.144 164.797 219.057 164.46 218.886 164.153C218.716 163.847 218.481 163.6 218.182 163.415C217.883 163.229 217.545 163.136 217.17 163.136Z" fill="black"/>
<path d="M294.504 109.273V118H292.659V111.024H292.608L290.609 112.277V110.641L292.77 109.273H294.504ZM300 118.192C299.267 118.189 298.637 118.009 298.108 117.651C297.583 117.293 297.178 116.774 296.894 116.095C296.613 115.416 296.473 114.599 296.476 113.645C296.476 112.693 296.617 111.882 296.898 111.212C297.182 110.541 297.587 110.031 298.113 109.682C298.641 109.33 299.27 109.153 300 109.153C300.73 109.153 301.358 109.33 301.884 109.682C302.412 110.034 302.819 110.545 303.103 111.216C303.387 111.884 303.527 112.693 303.525 113.645C303.525 114.602 303.382 115.42 303.098 116.099C302.817 116.778 302.414 117.297 301.888 117.655C301.363 118.013 300.733 118.192 300 118.192ZM300 116.662C300.5 116.662 300.9 116.411 301.198 115.908C301.496 115.405 301.644 114.651 301.641 113.645C301.641 112.983 301.573 112.432 301.436 111.991C301.303 111.551 301.113 111.22 300.865 110.999C300.621 110.777 300.333 110.666 300 110.666C299.503 110.666 299.105 110.915 298.807 111.412C298.509 111.909 298.358 112.653 298.355 113.645C298.355 114.315 298.422 114.875 298.556 115.324C298.692 115.77 298.884 116.105 299.131 116.33C299.378 116.551 299.668 116.662 300 116.662ZM308.262 118.192C307.529 118.189 306.898 118.009 306.37 117.651C305.844 117.293 305.44 116.774 305.156 116.095C304.874 115.416 304.735 114.599 304.738 113.645C304.738 112.693 304.879 111.882 305.16 111.212C305.444 110.541 305.849 110.031 306.374 109.682C306.903 109.33 307.532 109.153 308.262 109.153C308.992 109.153 309.62 109.33 310.146 109.682C310.674 110.034 311.08 110.545 311.364 111.216C311.648 111.884 311.789 112.693 311.786 113.645C311.786 114.602 311.644 115.42 311.36 116.099C311.079 116.778 310.675 117.297 310.15 117.655C309.624 118.013 308.995 118.192 308.262 118.192ZM308.262 116.662C308.762 116.662 309.161 116.411 309.46 115.908C309.758 115.405 309.906 114.651 309.903 113.645C309.903 112.983 309.835 112.432 309.698 111.991C309.565 111.551 309.374 111.22 309.127 110.999C308.883 110.777 308.594 110.666 308.262 110.666C307.765 110.666 307.367 110.915 307.069 111.412C306.771 111.909 306.62 112.653 306.617 113.645C306.617 114.315 306.684 114.875 306.817 115.324C306.954 115.77 307.146 116.105 307.393 116.33C307.64 116.551 307.93 116.662 308.262 116.662Z" fill="black"/>
</g>
<defs>
<clipPath id="clip0_34_2">
<rect width="429" height="376" fill="white"/>
</clipPath>
</defs>
</svg>
