<svg width="429" height="376" viewBox="0 0 429 376" fill="none" xmlns="http://www.w3.org/2000/svg">
<path d="M327.28 227.43L328.61 229.14L329.63 229.78L329.65 230.88L328.48 232.41L327.48 232.3L326.06 233.15L326.42 234.07L325.43 234.69L325.08 235.65L323.88 235.33L323.18 237.16L320.94 236.25L320.02 238.49L320.85 240.08L320.21 241.31L320.71 242.43L321.9 242.62L322.97 244.24L325.29 244.71L325.79 244.64L326.09 242.7L326.64 242.49L328.63 243.47L328.56 245.05L333.16 246.24L334.94 247.12L335.44 247.03L335.8 246.54H337.37L338.72 245.94L340.67 247.31L341.6 247.56L342.23 248.21L343.76 247.9L344.15 248.33L345.85 248.75L346.11 249.13L346.49 248.55L347.38 248.62L347.75 249.62L348.99 250.19L349.37 250.66L350.05 251.02L350.94 250.68L350.93 251.43L351.53 251.67L351.77 252.5L352.49 252.31L352.84 252.81L353.91 252.91L354.25 254.19L354.93 254.25L355.57 254.9L355.76 255.49L355.51 256.27L356.03 256.77L355.91 257.7L356.69 258.19L356.98 259.38L357.56 259.85L353.44 265.48L348.91 270.04L348.21 270.54L346.15 271.04L345.23 271.96L344.21 273.63L342.98 274.47L342.79 275.02L340.83 276.33L340.63 276.91L339.3 277.77L337.5 278.4L336.73 279.76L335.76 280.49L335.61 281.77L334.9 281.96L333.26 284.29L332.86 284.39L332.13 286L331.31 286.38L330.06 287.62L329.87 288.36L328.76 289.76L328.82 290.2L326.88 291.67L326.46 292.64L325.11 293.98L324.97 294.49L321.71 297.54L321.72 297.79L320.71 298.38L319.86 299.85L317.59 301.75L317.3 302.5L316.18 303.05L316.19 303.46L314.92 304.59L314.91 305.23L314.2 305.53L313.78 306.23L311.8 307.03L311.66 307.49L310.26 308.84L310.25 309.31L309.51 309.35L307.48 311L304.45 312.23L303.58 313.19L303.37 314.51L302.58 315.48L302.69 315.69L299.65 317.6L299.13 318.45L298.66 318.58L298.1 319.67L294.91 321.59L293.55 322.04L292.78 323.1L291.82 323.65L290.45 325.03L288.33 326.23L285.28 328.87L280.86 331.7L280.15 332.62L278.93 332.96L277.54 334.56L275.93 335.03L274.77 336.04L272.97 336.34L271.09 337.82L267.87 338.57L262.83 341.62L260.76 342.3L258.53 341.87L256.38 342.02L253.5 340.84L250.52 340.23L247.2 340.32L244.45 340.81L242.97 341.46L240.83 342.94L239.93 343.83L239.1 345.29L238.59 347.75L240.13 348.87L240.84 350.26L239.86 350.18L239.1 350.82L237.69 350.91L234.82 350.27L233.23 350.42L230.6 349.15L228.34 348.45L226.03 348.22L223.5 348.45L221.88 349L220.9 349.75L220.63 351.89L219.17 353.22L218.35 354.62L219.31 355.46L218.58 355.47L218.35 356.15L215.8 355.18L214.8 355.35L213.41 354.72L212.7 354.85L212.53 355.35L209.8 354.72L209.04 354.44L206.63 352.6L204.81 352.55L200.61 351.03L191.48 349.73L187.38 348.81L187.07 347.43L188.61 345.39L184.93 344.01L184.84 342.57L183.61 342.39L182.87 343.05L180.31 342.56L181.47 341.54L181.51 340.46L184.26 339.42L184.84 338.43L185.57 338.9L187.67 338.68L187.81 337.49L185.94 335.84L185.73 333.5L183.52 332.39L183.27 331.82L179.21 331.74L178.4 330.45L173.85 330.3L172.26 330.64L171.83 330.24L168.14 331.2L164.31 330.8L163.81 329.91L163.74 328.34L164.68 328.18L166.27 325.24L166.77 325.01L167.73 322.63L169.18 321.22L169.38 319.67L168.65 318.84L169.56 318.01L169.22 316.63L170.63 315.31L170.9 314.58L172.85 314.64L173.2 314.08L172.43 311.34L174.04 313.51L175.46 311.91L177.62 312.22L180.27 313.05L180.45 311.27L179.51 310.77L179.19 309.08L177.29 307.78L178.01 307.57L178.46 307.06L177.79 304.09L176.67 303.34L176.85 301.85L176.24 300.74L178.94 299.35L179.28 298.59L180.97 299.34L182.07 297.79L187.61 297.95L187.92 297.35L187.23 296.58L187.81 294.95L189.93 293.73L190.35 293.16L191.87 294L192.32 295.06L193.5 295.28L197.52 293.1L197.4 292.35L198.65 292.52L199.82 291.57L199.83 290.6L199.04 290.53L198.95 289.41L199.96 289.33L199.94 288.59L199.4 288.29L199.85 287.6L200.95 287.86L202.1 286.14L201.52 285.67L201.77 285.34L200.73 284.55L199.32 284.8L200.05 283.03L200.69 283.11L200.55 282.25L201.1 282.23L200.6 281.36L200.33 280.23L200.73 279.73L203.5 280.71L204.77 279.47V278.97L209.76 278.78L210.15 275.06L209.9 274.18L210.39 272.45L210.17 272.15L211.24 271.62L211.3 269.6L213.29 269.32L214.7 269.78L217.09 269.41L218.01 268.27L218.92 268.77L219.02 267.41L221.04 266.89L222.04 265.82L224.14 265.83L228.32 263.54L231.82 264.33L232.58 263.82L232.57 262.16L233.05 261.69L233.75 261.67L234.71 260.12L234.12 259.39L234.86 259.3L235.46 258.17L235 257.33L236.36 255.72L236.17 254.38L235.05 253.4L235.4 252.78L236.23 252.45L236.89 251.2L235.02 250.96L234.63 245.8L238.27 245.39L238.67 245.61L239.06 247.09L240.93 247.79L242.13 247.86L245.27 245.82L245.33 244.13L245.91 243.67L247.26 244.45L248.36 243.48L250.17 242.8L250.71 242.79L251.63 243.5L252.15 243.51L252.47 243.05L252.21 242.32L252.76 242.08L253.5 242.38L254.03 243.3L255.26 243.72L255.98 244.86L257.66 245.02L258.58 244.49L260.07 244.34L261.04 245.19L261.15 246.42L262.99 247.25L265.21 247.39L265.07 247.99L266.01 247.47L266.8 247.83L267.52 247.3L268.06 247.38L269.54 246.77L270.78 247.82L271.21 247.62L271.3 247.19L272.88 247.2L273.12 245.9L273.83 245.37L275.44 245.3L275.4 244.66L274.62 244L274.71 243.56L276.69 243.23L277.55 243.81L278.04 243.44V242.42L279.32 242.64L280.24 241.9L280.45 242.1L280.96 241.86L281.35 242.31L282.44 242.14L282.78 241.45L282.11 241.1L282.12 240.63L283.22 240.83L283.88 240.65L283.87 240.33L283.03 239.93L283.12 239.3L284.5 239.33L284.98 238.78L284.78 238.23L284.12 238.29L283.72 237.27L284.9 237.03L284.85 237.43L285.11 237.47L286.95 236.84L287.12 237.76L287.78 238.67L289.12 239.06L289.83 240.79L290.5 240.98L290.71 241.98L292.43 243.09L294.09 245.33L297.1 245.83L297.9 245.42L298.65 246.72L301.81 247.3L302.91 246.99L303.62 247.57L303.56 245.48L304.77 244.28L304.97 243.01L305.38 242.33L304.57 241.3L305.72 240.32L306.8 239.86L307.82 238.37L307.38 237.27L306.33 236.16L306.88 235.44L308.77 235.12L309.95 233.63L310.22 232.55L310.91 231.95L311.38 231.78L313.05 232.21L314.07 231.89L314.97 231.1L316.79 231.65L318.3 231.69L319.96 230.88L320.96 230.91L322.56 230.39L327.28 227.43Z" fill="#EEEEEE" fill-opacity="0.8" stroke="black" stroke-opacity="0.8"/>
<path d="M288.56 132.82L289.44 132.5L289.42 131.83L290.78 131.57L291.04 131.71L291.14 132.46L293.26 132.33L294.33 133.01L294.89 131.98L297.38 131.57L298.58 130.17L299.47 129.85L300.31 130.41L300.1 131.53L300.96 133.3L302.16 134.5L303.38 135.07L304.02 136.44L304.79 135.26L305.55 136.52L306.22 136.59L307.13 136.13L308.03 136.83L309.01 137.43L310.82 137.37L311.64 138.98L312.54 138.27L313.13 138.24L314.09 139.5L314.99 139.95L314.44 141.03L316.27 139.65L317.37 139.59L317.43 139.03L316.46 138.9L317.28 138.11L318.83 138.68L321.75 140.52L322.68 140.37L323.46 140.78L323.96 139.92L325.68 139.24L326.33 139.34L327.1 140.17L327.84 140.08L328.02 141.45L329.44 143.88L330.5 143.36L331.92 143.43L332.92 144.45L333.77 144.57L334.2 145.16L334.96 145.17L335.28 145.46L335.17 146.28L336.75 145.92L337.97 146.68L338.41 147.26L338.58 148.33L339.09 148.64L338.95 149.2L340.65 150.68L340.35 151.29L341.44 152.21L342.44 154.06L343.09 154.19L343.64 153.73L344.45 153.69L344.47 152.95L344.98 152.44L346.49 152.48L344.95 153.17L345.27 153.46L345 154.45L346.38 155.06L346.75 156.51L344.2 158.4V158.94L344.84 160.15L344.7 161.94L345.25 162.99L343.75 165.87L343.78 167.6L342.98 168.42L342.67 169.49L342.82 170.32L343.91 171.47L343.81 173.18L342.63 174.03L342.02 175.59L339.4 176L337.29 178.74L335.46 179.58L334.37 180.92L332.46 181.41L331.49 182.67L331.76 183.77L331.55 184.16L330.55 184.14L330.04 184.64L328.42 184.44L325.78 185.3L324.72 186.46L324.74 187.62L323.84 188.37L323.08 190.72L322.04 190.69L321.47 189.04L319.21 188.32L318.69 186.04L317.5 185.22L315.78 186.12L312.65 186.14L311.27 186.6L310.19 187.97L310.22 188.73L309.95 188.92L308.77 188.89L308.16 189.21L306.95 188.81L305.93 189.15L305.45 188.71L303.68 190.26L302.68 192.16L302.08 192.33L302.02 193.23L301.41 193.63L301.48 194.2L300.05 194.24L299.71 193.61L299.02 193.45L298.36 194.28L297.93 194.38L298.07 195.03L297.68 195.3L296.27 194.87L296.02 195.29L295.55 195.36L294.23 194.81L294.65 195.53L294.37 196.09L293.85 196.08L293.51 196.5L293.57 197.1L293.24 197.51L293.52 197.83L292.54 197.88L292.69 198.36L292.29 198.64L292.24 199.11L291.43 199.12L292.29 200.01L291.39 200.12L291.78 200.37L291.7 201.02L290.59 201.67L290.66 202.51L289.92 202.69L288.31 204.23L288.38 204.66L288.81 204.93L288.75 205.33L287.59 206.33L286.6 206.41L286.99 207.02L286.25 207.58L286.13 208.64L285.33 208.69L285.75 209.84L285.15 210.03L284.19 211.3L284.17 211.91L282.78 212.39L282.75 213.38L281.73 213.4L281.12 214.06L280.64 213.81L279.97 214.46L278.8 214.28L277.99 214.7L277.67 215.47L276.98 215.82L276.61 215.48L276.32 216.52L275.43 215.94L275.33 216.96L277.78 220.21L280.77 227.65L282.68 229.53L283.28 231.97L285.02 231.72L285.37 231.99L284.3 234.07V235.56L284.86 235.9L284.69 236.29L285.12 236.57L284.87 236.96L283.68 237.21L284.09 238.23L284.74 238.17L284.94 238.72L284.46 239.27L283.08 239.24L282.99 239.87L283.83 240.27V240.6L283.18 240.78L282.08 240.58L282.07 241.06L282.74 241.41L282.4 242.1L281.31 242.27L280.92 241.82L280.41 242.06L280.2 241.86L279.29 242.6L278 242.39V243.41L277.51 243.78L276.65 243.19L274.67 243.53L274.58 243.97L275.36 244.63L275.39 245.27L273.78 245.34L273.06 245.88L272.83 247.18L271.25 247.17L271.15 247.6L270.72 247.8L269.48 246.75L268 247.36L267.46 247.29L266.74 247.82L265.95 247.46L265.01 247.98L265.14 247.38L262.92 247.24L261.08 246.4L260.98 245.17L260.01 244.32L258.52 244.47L257.6 245L255.92 244.84L255.19 243.7L253.96 243.29L253.44 242.37L252.7 242.07L252.15 242.31L252.41 243.04L252.09 243.5L251.57 243.49L250.65 242.79H250.1L248.3 243.48L247.19 244.44L245.84 243.66L245.26 244.12L245.2 245.81L242.06 247.85L240.86 247.79L238.98 247.09L238.59 245.61L238.2 245.39L234.56 245.79L232.57 244.07L230.25 243.89L229.29 242.37L227.12 241.03L226.14 239.33L224.82 238.58L223.79 237.56L223.4 236.08L222.26 235.58L221.05 233.49L219.81 232.68L218.07 229.46L217.32 227.33L214.32 226.49L213.59 224.35L211.94 223.94L210.72 222.27L209.36 221.99L208.93 221.19L208.32 221.32L207.74 221.07L205.74 218.16L205.56 217.06L219.63 187.07L218.26 186.57L218.89 183.15L218.63 182.66L219.84 181.3L220.67 177.65L220.21 177.6L219.66 176.39L220.63 176.32L220.83 175.64L221.6 175.49L222.96 171.86L222.26 170.65L224.44 170.06L224.68 169.29L225.36 168.56L225.15 167.76L226.01 166.4L227.16 166.21L228.85 164.67L229.11 164.11L228.8 163.61L229.54 162.58L231.49 162.1L231.93 161.33L233.42 160.19L235.59 159.32L236.7 159.41L237.64 158.54L239.65 158.93L240.17 158.04L243.4 156.2L244.04 156.11L245.04 157.32L246.59 157.24L248.47 157.75L249.04 160.04L249.41 160.27L250.34 160.03L250.44 159.55L249.95 158.63L250.75 156.98L253.77 154.06L254.54 153.85L254.51 152.79L255.45 151.49L256.35 151.21L257.1 151.58L257.81 150.63L259.51 150.9L260.23 150.61L261.52 150.91L261.99 150.76L260.25 149.69L260.54 148.82L261.36 148.51L261.35 147.01L259.61 145.14L259.28 144.12L259.6 143.83L260.51 143.92L261.12 143.32L261.47 143.38L262.24 142.16L263.69 142.34L263.74 140.78L264.81 139.63L265.93 139.38L266.32 139.99L266.63 139.92L266.89 139L267.83 138.14L269.3 137.37L269.87 137.72L270.82 136.84L272.27 138.19L272.51 137.8L272.39 135.97L272.78 135.56L273.14 135.59L273.79 136.75L275.53 137.4L277.09 137.16L278.36 137.39L278.86 137.08L279.23 137.51L279.03 138.26L279.31 138.37L280.01 138.09L281.99 135.49L282.84 134.95L285.04 136.95L285.38 136.92L286.03 136.17L286.86 135.98L287.94 134.28L287.95 132.92L288.56 132.82Z" fill="#EEEEEE" fill-opacity="0.8" stroke="black" stroke-opacity="0.8"/>
<path d="M316.25 86.41L319.97 86L320.71 87.97L319.01 89.38L317.36 89.56L317.15 93.94L316.61 94.82L317.07 95.59L316.45 96.57L317.85 101.57L321.88 101.93L324.72 98.49L327.3 97.79L327.92 99.97L325.46 100.96L325.17 101.98L325.86 102.81L324.63 105.1L324.99 105.38L324.83 106.61L323.18 106.33L322.26 111.2L320.74 111.13L320.3 111.36L319.86 110.51L319.68 110.77L318.62 110.74L316.5 110.19L315.53 111.07L315.15 112.7L314.12 112.37L313.97 112.76L313.56 112.63L312.41 113.06L312.82 114.46L313.76 115.18L313.94 117.36L316.38 118.15L316.46 119.97L317.16 120.07L317.3 120.52L318.29 121.12L320.12 120.33L321.77 120.16L322.9 122.5L320 123.92L319.94 125.64L316.72 125.88L316.49 126.75L314.81 126.51L313.71 127.36L313.7 128.27L312.7 128.34L312.58 129.46L311.42 129.56L311.29 130.01L310.21 130.21L309.68 132.06L310.18 132.29L310.38 133.06L308.98 133.53L308.99 133.96L308.14 134.22L308.13 135.23L308.67 135.55L308.03 136.83L307.13 136.13L306.22 136.59L305.55 136.52L304.79 135.26L304.02 136.44L303.38 135.07L302.16 134.5L300.96 133.3L300.1 131.53L300.31 130.41L299.47 129.85L298.58 130.17L297.38 131.57L294.89 131.98L294.33 133.01L293.26 132.33L291.14 132.46L291.04 131.71L290.78 131.57L289.42 131.83L289.44 132.5L288.56 132.82L289.31 128.67L288.41 127.54L289.01 127.4L289.52 124.98L289.78 124.91L290.15 123.72L287.67 123.81L287.36 122.95L286.89 122.57L283.25 123.38L283.49 124.12L280.06 125.44L280.05 124.09L278.95 122.06L280.5 120.59L282.56 119.22L281.65 115.26L283.37 115.46L283.45 114.37L284.95 114.15L286.19 108.99L286.13 107.01L290.65 104.56L290.95 105.73L291.83 106.95L293.16 106.24L293.26 107.38L295.46 106.65L297.52 106.38V105.82L298.71 105.95L298.72 105.34L299.4 104.91L298.99 103.4L299.74 103.13L298.58 100.2L300.66 99.88L301.42 99.38L301.76 98.34L302.92 97.51L302.04 93.66L303.19 93.2L304.01 93.34L304.02 93.74L303.33 93.97L303.57 94.83L304.14 94.82L304.68 94.27L306.06 94.36L308.15 93.71V90.95L310.08 90.47L310.25 91.32L313.35 90.71L313.54 89.36L315.99 89.37L316.43 90.05L317.52 89.39L318.08 88.29L317.16 88.34L316.25 86.41Z" fill="#EEEEEE" fill-opacity="0.8" stroke="black" stroke-opacity="0.8"/>
<path d="M343.94 1.34L346.3 1.4L349.22 2.8L350.46 2.82L351.34 3.5L352.72 3.89L352.97 4.5L353.92 4.64L355.66 6.07L358.22 5.66L359.91 7.26L363 6.94L364.98 6.23L366.29 6.51L367.97 6.36L368.72 6.71L369.68 6.05L370.89 6.25L373.9 5.57L376.6 5.84L380.36 7.05L382.47 6.57L383.59 7.51H385.12L386.42 9.58L392.88 30.41L392.55 36.73L392.84 38.6L396.28 42.81L396.43 45.66L398.16 50.17L401.1 52.25L400.05 52.75L398.55 52.56L397.37 53.73L397.15 54.82L396.58 55.04L395.79 55.1L395.18 53.89L394.64 54L393.7 55.01L393.13 54.41L392.48 54.94L391.97 54.92L390.02 54.03L388.87 55.24L388.07 54.97L387.02 55.87L385.6 55.57L385.05 56.2L390.85 56.04V57.59L389.45 58.9L389.84 59.92L389.71 61.9L388.58 63.1L388.51 64.05L387.44 64.83L388.87 65.72L388.32 66.74L390.65 66.78L389.49 67.88L390.1 68.8L392.34 70.11L393.86 70.38V71.9L392.82 71.98L392.86 72.4L391.75 72.15V72.9L390.39 73.89H386.89L387.35 74.95V77.11H388.42V77.75L390.62 77.46L390.85 79.45L389.97 79.56L390.39 81.64L386.75 81.24L385.2 81.63L384.69 82.5L381.25 82.81L380.75 82.51L380.22 81.22L379.36 81.05V78.82L378.62 77.07L378.08 76.66L376.53 76.31L376.11 75.84V73.85L375.68 73.5L376.27 72.57V71.75L376 71.05L374.56 70.75L373.97 70.11L374.99 68.71L372.85 66.84L371.57 67.32L371.31 68.1L369.42 68.89L369.04 68.08L368.31 68.36L368.29 70.11L366.78 71.62L365.75 70.26L362.99 69.63L362 69.01L361.58 70.21L359.87 70.23L358.55 69.41L358.45 71.2L357.05 70.12L354.72 70.2L355.29 72.45L354.98 73.2L356.4 74.4L356.02 76.29L354.49 76.49L348.01 81.82L348 82.78L346.2 82.95L346.26 83.87L347.23 84.14L347.92 85.68L346.75 86.08L346.74 86.76L345.95 87.91L341.35 87.11L341.46 86.36L339.75 84.64L339.1 84.75L338.38 83.85L338.57 83L337.43 82.32L337.42 81.45L335.82 82.2L335.68 81.98L336.53 80.56L335.64 78.17L335.68 77.34L333 76.67L331.51 77.07L331.49 79.08L330.94 79.34L331.16 80.17L328.41 81.34L327.38 79.07L327.07 79.17L326.81 78.65L324.41 78.22L324.83 80.35L323.63 79.97L322.38 80.34L321.13 79.94L319.43 80.23L318.45 81.03L316.03 81.99L316.07 84.15L312.25 85.05L312.22 85.98L309.74 86.75L309.87 88.41L310.28 88.54L312.98 87.93L313.44 87.28L316.25 86.41L317.16 88.34L318.08 88.29L317.52 89.39L316.43 90.05L315.99 89.37L313.54 89.36L313.35 90.71L310.25 91.32L310.08 90.47L308.15 90.95L306.26 87.84L303.9 88.1L303.76 86.65L302.34 86.41L302.6 85.07L303.59 84.84L304.86 85.79L306.14 85.72L306.59 83.86L302.84 81.96L300.51 81.79L299.66 81.26L298.85 81.43L298.5 82.05L297.41 81.93L297.37 81.35L298.11 81.34L297.88 80.49L296 80.05L295.85 81.66L294.09 81.44L292.96 82.12L291.9 81.07H290.68L289.82 81.61L289.9 83.23L288.59 84.99L287.79 84.71L287.24 83.5L283.94 83.88L282.36 81.91L278.86 81.75L278.88 81.04L278.09 79.53L276.22 78.82L275.63 74.01L274.56 74.04L274.43 75.48L273.56 75.46L273.14 76.05L269.08 77.53L268.62 78.28L267.12 78.18L265.34 76.84L263.87 77.1L259.93 76.55L258.97 74.62L259.09 71.58L259.57 71.54L259.8 70.96L260.96 70.19L262.13 67.29L263.13 66.21L264.3 65.07L265.98 64.59L266.38 63.17L267.82 62.12L269.03 62.18L270.19 61.23L271.09 60.9L271.07 59.71L271.48 59.18L271.15 58.54L271.57 58.03L271.11 57.31L271.22 56.4L271.83 55.84L272.44 54.05L272.37 53.1L272.74 52.68L272.86 51.42L273.4 50.1L273.37 49.59L272.98 49.52L273.46 49.03L273.3 48.29L273.74 46.03L273.99 45.27L274.62 44.81L274.84 43.47L275.52 43.97L275.45 44.63L276.19 44.35L276.72 43.67L276.23 42.72L277.22 42.22L277.54 41.51L278.63 41.35L278.19 40.73L278.26 40.17L278.76 40.56L279.15 40.28L279.49 40.58L279.96 40.47L280.14 40.23L279.64 39.59L280.06 39.21L280.77 39.47L281.05 39L281.76 38.87L282.6 38.25L283.23 36.8L283.73 36.88V37.48L284.35 37.52L284.43 36.73L285.12 36.52L284.96 37.26L285.47 37.43L286.25 36.35L288.44 36.17L289.2 35.34L289.53 33.01L290.14 32.58L290.11 31.82L290.35 31.65L291.51 31.95L292.52 31.21L293.26 32.16L293.9 32.04L294.19 31.15L294.99 30.42L294.48 29.45L295.1 29.62L295.76 29.28L295.96 28.58L297.81 27.94L298.84 27.04L298.92 25.76L299.23 25.26L298.99 24.38L299.89 24.24L301.7 22.86L301.94 22.36L301.72 20.88L302.76 20.47L304.56 18.94L304.72 17.34L305.78 16.19L307.29 15.51L307.78 14.71L308.9 14.23L309.52 13.56L312.19 13.39L313.84 13.85L314.9 13.21L316.85 13.07L319.17 11.78L322.06 10.98L322.08 10.38L323.01 9.92L324.31 10.29L325.76 7.87L325.58 6.06L325.84 5.5L326.33 5.3L326.83 3.91L327.35 3.52L330.39 3.44L331.67 2.53L333.52 2.86L334.64 2.74L335.14 3.17L338.41 2.13L339.87 2.4L340.33 1.73L341.3 1.44L342.25 1.79L343.3 1L343.94 1.34Z" fill="#EEEEEE" fill-opacity="0.8" stroke="black" stroke-opacity="0.8"/>
<path d="M401.18 52.72L401.52 53.55L402.09 58.94L404.02 62.15L404.61 66.39L404.36 72.8L405.29 83.11L405.21 89.66L404.99 92.55L404.06 94.6L403.86 95.77L403.84 96.73L404.35 96.9L404.66 100.11L402.73 105.65L403.87 109.12L400.95 110.46L389.4 102.46L386.7 103.16L385.17 105.25L381.86 108.19L381.46 110.08L377.99 117.17L375.71 119.77L374.06 122.53L373.08 126.77L373.13 131.23L373.51 134.29L373.81 134.72L374.28 134.64L375.85 133.26L376.23 135.23L377.9 136.91L378.03 137.89L377.56 139.13L377.77 139.78L380.16 142.16L382.28 144.97L385.91 146.43L383.08 150.08L382.35 150.02L381.16 149.06L380.45 149.25L379.87 149.04L377.32 149.65L376.5 149.07L376.27 148.14L375.03 148.36L374.07 149.18L372.89 148.35L372.27 148.44L371.57 147.73L370.24 147.26L369.01 147.38L367.48 148.47L365.51 148.1L363.94 148.31L363.51 148.14L363.34 147.19L362.36 146.99L361.71 147.75L360.86 147.67L359.65 148.02L358.21 149.21L357.08 149.52L356.25 150.51L354.08 149.8L352.79 150.54L351.45 150.36L350.62 149.83L348.49 150.53L347.28 152.85L346.49 152.48L344.98 152.44L344.47 152.95L344.45 153.69L343.64 153.73L343.09 154.19L342.44 154.06L341.44 152.21L340.35 151.29L340.65 150.68L338.95 149.2L339.09 148.64L338.58 148.33L338.41 147.26L337.97 146.68L336.75 145.92L335.17 146.28L335.28 145.46L334.96 145.17L334.2 145.16L333.77 144.57L332.92 144.45L331.92 143.43L330.5 143.36L329.44 143.88L328.02 141.45L327.84 140.08L327.1 140.17L326.33 139.34L325.68 139.24L323.96 139.92L323.46 140.78L322.68 140.37L321.75 140.52L318.83 138.68L317.28 138.11L316.46 138.9L317.43 139.03L317.37 139.59L316.27 139.65L314.44 141.03L314.99 139.95L314.09 139.5L313.13 138.24L312.54 138.27L311.64 138.98L310.82 137.37L309.01 137.43L308.03 136.83L308.67 135.55L308.13 135.23L308.14 134.22L308.99 133.96L308.98 133.53L310.38 133.06L310.18 132.29L309.68 132.06L310.21 130.21L311.29 130.01L311.42 129.56L312.58 129.46L312.7 128.34L313.7 128.27L313.71 127.36L314.81 126.51L316.49 126.75L316.72 125.88L319.94 125.64L320 123.92L322.9 122.5L321.77 120.16L320.12 120.33L318.29 121.12L317.3 120.52L317.16 120.07L316.46 119.97L316.38 118.15L313.94 117.36L313.76 115.18L312.82 114.46L312.41 113.06L313.56 112.63L313.97 112.76L314.12 112.37L315.15 112.7L315.53 111.07L316.5 110.19L318.62 110.74L319.68 110.77L319.86 110.51L320.3 111.36L320.74 111.13L322.26 111.2L323.18 106.33L324.83 106.61L324.99 105.38L324.63 105.1L325.86 102.81L325.17 101.98L325.46 100.96L327.92 99.97L327.3 97.79L324.72 98.49L321.88 101.93L317.85 101.57L316.45 96.57L317.07 95.59L316.61 94.82L317.15 93.94L317.36 89.56L319.01 89.38L320.71 87.97L319.97 86L316.25 86.41L313.44 87.28L312.98 87.93L310.28 88.54L309.87 88.41L309.74 86.75L312.22 85.98L312.25 85.05L316.07 84.15L316.03 81.99L318.45 81.03L319.43 80.23L321.13 79.94L322.38 80.34L323.63 79.97L324.83 80.35L324.41 78.22L326.81 78.65L327.07 79.17L327.38 79.07L328.41 81.34L331.16 80.17L330.94 79.34L331.49 79.08L331.51 77.07L333 76.67L335.68 77.34L335.64 78.17L336.53 80.56L335.68 81.98L335.82 82.2L337.42 81.45L337.43 82.32L338.57 83L338.38 83.85L339.1 84.75L339.75 84.64L341.46 86.36L341.35 87.11L345.95 87.91L346.74 86.76L346.75 86.08L347.92 85.68L347.23 84.14L346.26 83.87L346.2 82.95L348 82.78L348.01 81.82L354.49 76.49L356.02 76.29L356.4 74.4L354.98 73.2L355.29 72.45L354.72 70.2L357.05 70.12L358.45 71.2L358.55 69.41L359.87 70.23L361.58 70.21L362 69.01L362.99 69.63L365.75 70.26L366.78 71.62L368.29 70.11L368.31 68.36L369.04 68.08L369.42 68.89L371.31 68.1L371.57 67.32L372.85 66.84L374.99 68.71L373.97 70.11L374.56 70.75L376 71.05L376.27 71.75V72.57L375.68 73.5L376.11 73.85V75.84L376.53 76.31L378.08 76.66L378.62 77.07L379.36 78.82V81.05L380.22 81.22L380.75 82.51L381.25 82.81L384.69 82.5L385.2 81.63L386.75 81.24L390.39 81.64L389.97 79.56L390.85 79.45L390.62 77.46L388.42 77.75V77.11H387.35V74.95L386.89 73.89H390.39L391.75 72.9V72.15L392.86 72.4L392.82 71.98L393.86 71.9V70.38L392.34 70.11L390.1 68.8L389.49 67.88L390.65 66.78L388.32 66.74L388.87 65.72L387.44 64.83L388.51 64.05L388.58 63.1L389.71 61.9L389.84 59.92L389.45 58.9L390.85 57.59V56.04L385.05 56.2L385.6 55.57L387.02 55.87L388.07 54.97L388.87 55.24L390.02 54.03L391.97 54.92L392.48 54.94L393.13 54.41L393.7 55.01L394.64 54L395.18 53.89L395.79 55.1L396.58 55.04L397.15 54.82L397.37 53.73L398.55 52.56L400.05 52.75L401.1 52.25L401.18 52.72Z" fill="#EEEEEE" fill-opacity="0.8" stroke="black" stroke-opacity="0.8"/>
<path d="M95.51 77.96L96.23 78.58L97.01 78.65L97.68 79.38L98.3 79.02L98.71 79.52L99.73 79.73L100.46 81.16L102.75 82.72L103.76 84.49L104.27 86.25L105 86.27L105.07 86.77L104.61 87.32L104.79 87.93L105.64 88.31L105.63 89.17L106.93 90.12L106.4 90.79L107.05 91.09L106.97 91.52L107.53 92.79L108.63 93.23L108.74 94.11L109.3 94.17L109.15 94.89L109.53 95.02L110.15 94.6L110.44 94.81L110.32 95.28L109.6 95.48L109.31 96.63L109.38 96.98L110.28 97.54L110.91 98.68L109.9 99.95L110.7 100.01L110.53 101.5L111.64 102.67L111.95 103.87L112.54 104.26L112.24 105.47L113.29 104.87L113.32 106.34L113.91 106.93L113.7 107.99L114.64 109.25L114.09 110.62L114.56 111.4L114.36 112.3L114.68 112.78L114.3 113.58L114.61 113.98L115.12 114L115.16 114.71L114.17 115.69L113.88 117.33L113.29 118.46L112.65 118.76L111.14 120.98L110.82 121.96L110.27 122.21L109.73 123.04L109.12 123.13L108.85 124.04L108.61 125.8L109.35 128.36L109.34 129.79L108.86 130.74L109.35 131.75L109.3 133.52L109.84 134.01L109.78 134.59L110.76 135.17L110.89 136.68L111.46 135.76L112.86 135.37L113.64 134.64L114.11 134.69L114.37 134.2L116.28 133.46L117.35 133.87L118.18 133.81L119.4 135L120.85 135.08L122.56 135.71L124.46 134.98L125.88 134.78L126.71 135.06L127.81 134.37L129.12 134.31L129.88 134.32L132.45 135.35L133.22 134.95L134.1 134.94L135.14 135.48L137.03 135.33L139.2 133.42L139.25 131.42L138.89 130.81L139.1 130.27L139.95 129.69L143.56 129.86L146.04 128.79L146.89 127.28L148.99 125.14L148.97 124.51L149.44 124.13L149.96 121.98L150.85 121.45L151.46 120.64L154.32 119.79L154.29 118.9L155.23 118.44L155.14 117.87L155.93 117.08L156.75 117.02L157.18 116.48L159.02 117.13L159.44 116.86L159.8 116.18L159.93 114.69L160.56 114.83L161.25 113.74L162.84 113.83L163.05 122.42L162.73 122.53L162.43 123.27L162.84 126.72L163.06 127.02L163.99 127.1L166.53 126.93L166.96 127.84L168.43 127.75L168.85 128L169.21 128.99L169.58 128.37L169.88 128.41L171.21 129.63L171.95 129.89L170.91 132.25L171.8 133.58L170.88 134.13L170.76 135.29L171.5 136.79L171.6 138.19L172.7 139.54L171.91 140.01L170.79 140.11L170.44 142.76L170.58 143.93L171.49 145.62L173.19 145.15L173.48 146.05L174.45 146.64L176.38 149.34L178.6 149.46L179.59 149.8L181.44 151.49L182.42 151.11L183.31 152.08L182.93 153.04L186.17 153.06L187.35 154.2L189.99 155.32L190.28 155.3L191.39 153.38L193.4 153.8L194.3 153.14L194.18 152.66L193.24 152.48L194.1 151.01L195.45 151.54L196.4 151.52L195.92 149.51L196.5 148.41L198.43 149.71L197.67 151.87L197.48 156.65L199.07 157.21L198.41 160.22L199.28 161.06L207.32 159.23L207.91 160.24L207.86 163.11L205.77 165.53L206.21 166.29L206.67 166.64L207.21 166.39L208.61 167.87L207.77 169.66L208.44 169.73L209.95 171.29L210.79 170.89L211.39 169.46L212.54 168.57L212.91 167.31L212.64 166L213.37 165.11L213.5 164.47L214.34 164.19L214.74 163.38L214.61 162.08L215.09 161.36L214.87 160.42L214.36 160.15L214.08 159.19L214.56 158L216.04 157.93L216.19 157.27L216.54 157.1L216.7 158.1L217.15 158.46L216.88 159.12L217.04 159.61L223.08 159.55L223.49 159.8L218.61 165.7L218.18 165.78L221.04 171.42L221.59 171.31L222.3 170.65L222.99 171.86L221.64 175.49L220.87 175.64L220.67 176.32L219.7 176.39L220.26 177.6L220.71 177.66L219.88 181.3L218.67 182.66L218.94 183.15L218.31 186.57L219.68 187.07L205.62 217.06L205.79 218.16L207.79 221.08L208.37 221.33L208.98 221.2L209.41 222L210.77 222.28L211.99 223.95L213.64 224.36L214.37 226.5L217.37 227.34L218.12 229.47L219.86 232.69L221.1 233.5L222.31 235.58L223.45 236.09L223.84 237.57L224.88 238.58L226.19 239.33L227.17 241.04L229.34 242.38L230.31 243.9L232.63 244.08L234.61 245.8L235 250.96L236.87 251.2L236.21 252.45L235.38 252.78L235.03 253.4L236.15 254.38L236.34 255.72L234.98 257.33L235.44 258.17L234.84 259.3L234.1 259.39L234.69 260.12L233.73 261.67L233.03 261.69L232.55 262.16L232.56 263.82L231.8 264.33L228.3 263.54L224.12 265.83L222.02 265.82L221.02 266.89L219 267.41L218.9 268.77L217.99 268.27L217.07 269.41L214.68 269.78L213.27 269.32L211.28 269.6L211.22 271.62L210.15 272.15L210.37 272.45L209.88 274.18L210.13 275.06L209.74 278.78L204.75 278.97V279.47L203.48 280.71L200.71 279.73L200.31 280.23L200.58 281.36L198.4 281.48L197.3 279.48L197.75 278.86L195.6 278.89L195.19 280.82L194.25 281.25L193.81 282.33L193.04 282.36L192.54 281.08L191.41 280.71L192.3 280.02L192.26 279.4L189.93 278.39L189.66 277.38L187.05 277.41L186.39 277.08L185.99 277.24L185.45 278.27L184.81 278.22L184.05 278.61L181.22 278.06L181 278.91L179.2 279.01L177.72 279.91L177.27 281.81L176.35 282.89L176.36 283.73L172.62 287.03L171.61 285.51L172.01 284.25L169.71 283.21L167.61 283.85L166.83 283.5L166.54 282.5L164.56 283.15L163.62 281.72L161.13 282.19L159.51 281.67L160.22 279.38L159.04 278.75L158.98 277.74L157 277.33L152.41 274.69L151.75 275.12L151.41 276.91L149.29 280.93L149.14 284.05L146.84 283.05L147.26 284.62L146.5 285.32L147.21 286.76L146.83 287.97L148.06 289.27L147.04 291.49L146.54 289.98L144.92 290.73L144.83 293.48L143.09 294.16L142.76 295.41L140.99 295.74L138.7 294.82L138.63 294.22L137.7 293.8L136.35 295.16L134.84 293.88L132.86 294.58L133.11 297.07L131.56 297.7L130.84 297.53L129.71 298.81L129.12 298.48L127.3 299.17L126.53 298.97L126.05 300.54L125.08 301.42L123.9 301.79L122.63 305.2L123.09 306.5L119.1 307.8L118.08 307.23L114.69 308.16L113.6 309.06L113.55 309.84L114.05 310.41L114.26 312.56L113.65 314.6L112 315.28L111.6 316.18L109.85 315.98L108.44 316.43L107.4 314.82L105.73 316.26L103.89 316.43L102.85 315.25L101.95 315.4L101.85 314.02L101.06 313.71L100.01 311.96L97.53 310.92L97.58 308.17L96.19 306.84L94.64 301.15L94.63 299.65L95.78 300.22L96.85 299.12L96.66 298.25L98.33 296.57L98.99 296.93L98.63 294.78L97.98 294.56L98 293.6L97.24 293.11L95.63 294.26L95.08 295.39L93.97 295.36L93.5 296.81L90.95 299.15L89.05 299.46L88.85 299L87.7 298.79L87.64 299.56L86.41 300.4L85.62 299.9L84.86 300.61L85.29 301.45L84.04 301.96L83.3 300.66L82.71 301.13L82.72 302.75L81.75 304.5L82.59 306.25L82.47 306.82L80.51 308.09L79.29 305.59L79.78 302.14L78.39 299.51L77.75 298.91L77.38 296.68L79.9 295.25L79.32 292.61L79.54 290.24L78.42 290L77.45 288.89L76.62 289.23L76.28 288.79L75.32 288.71L74.58 287.06L73.3 286.63L73.92 283.85L71.94 285.78L71.8 285.35L71.21 285.1L70.52 285.45L69.26 284.62L67.72 284.5L67.77 282.67L69.02 281.45L68.86 280.5L69.22 280.22L68 277.11L68.59 277.1L68.51 275.21L68.95 274.84L68.54 274.08L68.06 274.03L68.62 272.82L66.85 272.27L67.61 270.81L67.31 268.61L66.19 267.47L67.17 266.09L65.69 265.54L65.05 263.98L65.3 260.69L64 258.36L64.31 256.75L66.1 255.32L63.46 253.8L65.78 253.06L65.37 249.16L63.02 248.88L60.94 247.05L61.32 245.92L60.29 244.31L57.72 243.74L55.3 240.3L53.37 240.82L53.39 242.68L54.05 244.79L50.84 240.98L51.32 242.81L50.5 244.44L50 247.13L47.39 251.63L46.2 251.69L45 252.68L42.91 250.83L42.22 250.6L40.45 250.96L40.34 254.75L37.32 255.11L38.52 257.39L35.85 259.83L36.35 262.58L34.59 261.86L32.69 257.41L30.88 254.97L29.96 253.2L28.61 249.49L26.31 246.05L26.44 245.12L25.7 244.3L23.02 239.19L23.03 238.76L22.09 237.48L21.8 235.2L20.86 233.22L20.79 232.32L20.02 231.19L18.85 226.55L17.95 224.94L17.04 222.02L15.9 216.02L15 214.81L14.83 213.18L13.64 209.93L13.52 208.83L11.77 206.41L11.6 205.14L10.84 204.08L10.97 203.29L10.19 200.51L8.49 199.08L7.74 197.92L7.81 197.24L6.97 195.68L4.73 193.93L3.72 190.94L3.89 189.79L2.96 189.14L1.71 187.5L1 187.12L1.39 185.55L1.75 185.01L3.79 184.73L4.84 184.06L5.02 183.34L5.59 182.79L6.53 182.32L6.96 182.37L7.28 183.12L7.98 183.06L8.57 181.98L9.15 181.58L9.02 180.12L10.1 179.18L8.57 177.13L8.69 176.31L9.15 176.04L9.82 176.54L10.33 176.44L10.41 175.56L9.88 174.87L11.11 174.71L10.63 173.42L11.69 173.75L12.07 173.53L12.04 171.07L12.46 170.55L13.88 170.82L14.3 170.3L15.1 170.72L15.66 170.06L17.22 169.57L18.1 170.28L18.5 171.07L19.93 171.77L19.73 174.46L20.33 175.46L20.91 175.89L21.57 175.48L22.39 175.58L23.15 175.06L24.02 175.6L24.88 177.12L24.89 178.21L25.66 179.34L25.53 180.52L25.05 181.21L24.16 181.27L23.61 182.29L23.78 183.01L24.61 183.77L24.84 185.24L26.13 185.28L25.68 189.68L27.68 188.96L29.26 189.13L29.8 188.75L30.57 189.02L30.88 190.75L31.84 191.17L32.32 191.18L33.25 190.48L33.83 190.91L34.39 190.42L35.22 190.89L38.7 190.98L40.71 192.34L42.39 194.33L43.18 194.21L44.22 194.85L45.22 194.86L45.66 195.36L46.24 195.25L46.59 194.81L47.46 194.92L47.9 194.42L49.32 194.62L50.1 194.39L50.65 194.84L52.04 194.98L53.09 194.56L54.13 194.71L55.54 193.75L57.29 193.33L58.55 193.57L60.03 193.17L65.65 193.86L66.62 194.49L67.24 195.99L67.83 195.85L68.67 196.57L69.87 197.01L71.47 196.61L72.41 196.1L73.29 195.06L74.58 195.01V194.38L73.73 193.87L73.24 192.42L73.86 190.51L74.66 190.08L75.86 190.34L77.49 190.19L78.89 189.46L79.77 188.35L80.11 186.22L81.11 185.42L81.58 184.07L83.17 183.61L84.96 183.71L86.05 182.77L87.94 183.36L88.41 183.11L88.81 182.17L89.63 181.45L90.51 181.63L92.08 181.05L92.85 181.17L92.94 74.91L94.7 77.04L95.09 77.06L95.51 77.96Z" fill="#EEEEEE" fill-opacity="0.8" stroke="black" stroke-opacity="0.8"/>
<path d="M407.24 133.96L407.41 134.42L409.15 135.3L410.29 134.49L411.71 135L414.33 135.36L425.62 135.54L427.46 135.24L427.19 136.22L426.58 136.49L426.3 137.45L426.49 137.91L427.18 136.39L426.34 141.7L421.87 154.06L421.96 155.18L419.95 163.05L419.63 165.33L419.76 166.53L418.72 172.81L415.32 179.62L415.42 180.84L414.74 183.75L413.7 185.35L404.6 194.28L398.2 196.79L394.88 200.4L393.06 202.95L390.16 205.7L389.35 206.95L387.09 209.25L383.19 214.73L379.82 220.88L379.32 222.47L379.54 223.44L379.97 223.59L379.95 223.9L375.39 229.22L368.66 242.83L362.73 252.57L360.44 255.52L358.36 259.2L357.55 259.83L356.97 259.36L356.68 258.17L355.9 257.68L356.02 256.75L355.5 256.25L355.75 255.47L355.56 254.88L354.92 254.23L354.24 254.17L353.9 252.89L352.83 252.79L352.48 252.29L351.76 252.48L351.52 251.65L350.92 251.41L350.93 250.66L350.04 251L349.36 250.64L348.98 250.17L347.74 249.6L347.37 248.6L346.48 248.53L346.1 249.11L345.84 248.73L344.14 248.31L343.75 247.88L342.22 248.19L341.59 247.54L340.66 247.29L338.71 245.92L337.36 246.52H335.79L335.43 247.01L334.93 247.1L333.15 246.22L328.55 245.03L328.62 243.45L326.63 242.47L326.08 242.68L325.78 244.62L325.28 244.69L322.96 244.22L321.89 242.6L320.7 242.41L320.2 241.29L320.84 240.06L320.01 238.47L320.93 236.23L323.17 237.14L323.87 235.31L325.07 235.63L325.42 234.67L326.41 234.05L326.05 233.13L327.47 232.28L328.47 232.39L329.64 230.86L329.62 229.76L328.6 229.12L327.27 227.41L328.86 226.21L329.48 226.38L329.81 225.55L330.87 225.27L331 224.92L330.54 223.43L329.86 222.75L330.54 220.08L330.37 219.11L331.09 218.46L331.24 217.51L331.94 217.37L332.72 216.74L334.14 216.49L334.13 215.33L335.1 214.98L334.4 214.5L334.42 212.3L335.15 211.98L335.5 211.33L337.59 210.56L338.56 208.06L337.95 207.35L338.04 206.3L337.12 205.1L336.66 203.62L335.37 202.06L335.49 200.98L335.17 200.45L334.06 200.09L333.27 200.43L332.42 199.49L332.21 198.69L330.8 198.12L330.11 197.47L328.6 196.97L328.39 195.88L327.23 195.1L326.5 195.24L325.54 194.14L324.31 191.75L323.09 190.69L323.85 188.34L324.74 187.59L324.73 186.44L325.78 185.27L328.43 184.41L330.04 184.61L330.55 184.1L331.55 184.12L331.76 183.73L331.49 182.63L332.46 181.37L334.37 180.87L335.46 179.53L337.3 178.69L339.4 175.95L342.02 175.54L342.63 173.98L343.81 173.13L343.9 171.42L342.81 170.27L342.66 169.43L342.98 168.37L343.78 167.55L343.74 165.82L345.24 162.93L344.69 161.88L344.83 160.09L344.19 158.88V158.34L346.73 156.45L346.37 155L344.99 154.39L345.26 153.4L344.94 153.11L346.48 152.42L347.27 152.79L348.48 150.46L350.61 149.77L351.44 150.29L352.78 150.48L353.88 149.74L356.25 150.45L357.07 149.46L358.21 149.15L359.64 147.96L360.85 147.61L361.7 147.69L362.35 146.93L363.33 147.13L363.5 148.08L363.93 148.24L365.5 148.03L367.47 148.41L369.01 147.31L370.24 147.19L371.57 147.67L372.27 148.38L372.89 148.28L374.06 149.11L375.03 148.29L376.27 148.06L376.5 149L377.31 149.58L379.86 148.97L380.44 149.18L381.15 148.99L382.34 149.94L383.08 150L385.91 146.35L391.41 148.41L403.69 148.45L403.89 141.03L404.69 133.78L406.93 133.65L407.24 133.96Z" fill="#EEEEEE" fill-opacity="0.8" stroke="black" stroke-opacity="0.8"/>
<path d="M259.09 71.58L258.97 74.62L259.93 76.55L263.87 77.1L265.34 76.84L267.12 78.18L268.62 78.28L269.08 77.53L273.14 76.05L273.56 75.46L274.43 75.48L274.56 74.04L275.63 74.01L276.22 78.82L278.09 79.53L278.88 81.04L278.86 81.75L282.36 81.91L283.94 83.88L287.24 83.5L287.79 84.71L288.59 84.99L289.9 83.23L289.82 81.61L290.68 81.07H291.9L292.96 82.12L294.09 81.44L295.85 81.66L296 80.05L297.88 80.49L298.11 81.34L297.37 81.35L297.41 81.93L298.5 82.05L298.85 81.43L299.66 81.26L300.51 81.79L302.84 81.96L306.59 83.86L306.14 85.72L304.86 85.79L303.59 84.84L302.6 85.07L302.34 86.41L303.76 86.65L303.9 88.1L306.26 87.84L308.15 90.95V93.71L306.06 94.36L304.68 94.27L304.14 94.82L303.57 94.83L303.33 93.97L304.02 93.74L304.01 93.34L303.19 93.2L302.04 93.66L302.92 97.51L301.76 98.34L301.42 99.38L300.66 99.88L298.58 100.2L299.74 103.13L298.99 103.4L299.4 104.91L298.72 105.34L298.71 105.95L297.52 105.82V106.38L295.46 106.65L293.26 107.38L293.16 106.24L291.83 106.95L290.95 105.73L290.65 104.56L286.13 107.01L286.19 108.99L284.95 114.15L283.45 114.37L283.37 115.46L281.65 115.26L282.56 119.22L280.5 120.59L278.95 122.06L280.05 124.09L280.06 125.44L283.49 124.12L283.25 123.38L286.89 122.57L287.36 122.95L287.67 123.81L290.15 123.72L289.78 124.91L289.52 124.98L289.01 127.4L288.41 127.54L289.31 128.67L288.56 132.82L287.95 132.92L287.94 134.28L286.86 135.98L286.03 136.17L285.38 136.92L285.04 136.95L282.84 134.95L281.99 135.49L280.01 138.09L279.31 138.37L279.03 138.26L279.23 137.51L278.86 137.08L278.36 137.39L277.09 137.16L275.53 137.4L273.79 136.75L273.14 135.59L272.78 135.56L272.39 135.97L272.51 137.8L272.27 138.19L270.82 136.84L269.87 137.72L269.3 137.37L267.83 138.14L266.89 139L266.63 139.92L266.32 139.99L265.93 139.38L264.81 139.63L263.74 140.78L263.69 142.34L262.24 142.16L261.47 143.38L261.12 143.32L260.51 143.92L259.6 143.83L259.28 144.12L259.61 145.14L261.35 147.01L261.36 148.51L260.54 148.82L260.25 149.69L261.99 150.76L261.52 150.91L260.23 150.61L259.51 150.9L257.81 150.63L257.1 151.58L256.35 151.21L255.45 151.49L254.51 152.79L254.54 153.85L253.77 154.06L250.75 156.98L249.95 158.63L250.44 159.55L250.34 160.03L249.41 160.27L249.04 160.04L248.47 157.75L246.59 157.24L245.04 157.32L244.04 156.11L243.4 156.2L240.17 158.04L239.65 158.93L237.64 158.54L236.7 159.41L235.59 159.32L233.42 160.19L231.93 161.33L231.49 162.1L229.54 162.58L228.8 163.61L229.11 164.11L228.85 164.67L227.16 166.21L226.01 166.4L225.15 167.76L225.36 168.56L224.68 169.29L224.44 170.06L222.26 170.65L221.55 171.31L221 171.42L218.14 165.78L218.57 165.7L223.46 159.8L223.05 159.55L217.01 159.61L216.85 159.12L217.13 158.47L216.68 158.1L216.52 157.11L216.17 157.28L216.02 157.93L214.53 158L214.05 159.19L214.34 160.15L214.85 160.42L215.07 161.36L214.59 162.08L214.72 163.38L214.31 164.19L213.47 164.47L213.34 165.11L212.61 166L212.89 167.32L212.52 168.58L211.37 169.46L210.77 170.89L209.93 171.29L208.42 169.73L207.75 169.66L208.59 167.87L207.19 166.39L206.65 166.65L206.19 166.3L205.75 165.53L207.84 163.12L207.89 160.25L207.3 159.23L199.26 161.07L198.39 160.22L199.05 157.21L197.46 156.65L197.65 151.87L198.41 149.71L196.48 148.41L195.9 149.51L196.38 151.52L195.43 151.54L194.08 151.01L193.22 152.48L194.16 152.66L194.27 153.13L193.37 153.8L191.36 153.38L190.25 155.29L189.96 155.31L187.32 154.19L186.14 153.05L182.91 153.03L183.28 152.07L182.39 151.1L181.41 151.48L179.57 149.79L178.58 149.45L176.36 149.33L174.43 146.63L173.46 146.04L173.17 145.14L171.47 145.61L170.56 143.92L170.42 142.75L170.77 140.1L171.89 140L172.68 139.53L171.57 138.18L171.47 136.78L170.73 135.27L170.85 134.12L171.76 133.57L170.87 132.24L171.92 129.88L171.18 129.62L169.85 128.39L169.56 128.35L169.19 128.97L168.83 127.98L168.41 127.74L166.94 127.82L166.51 126.91L163.98 127.08L163.05 127L162.83 126.7L162.42 123.25L162.72 122.5L163.05 122.39L162.84 113.81L161.24 113.72L161.4 113.21L162.22 112.66L162.27 111.12L163.63 111.04L163.76 108.86L164.27 108.25L163.46 107.62L163.54 107.27L164.05 107.1L164.08 106.42L165.05 105.83L165.22 105.4L164.13 104.69L164.62 104.3L165 102.85L165.67 102.59L166.23 101.77L166.4 100.88L165.87 100.56L165.9 100.03L166.99 99.43L166.07 98.58L167.22 96.33L166.87 95.87L167.47 95.54L168.25 95.76L167.92 95.28L168.51 93.83L170.02 92.76L170.22 91.56L171 91.3L171.08 90.27L171.63 90.7L172.41 90.17L172.19 90.95L172.76 91.27L173.22 90.66L173.74 90.48L174.28 90.77L175.93 89.67L176.99 89.82L178.02 89.58L178.45 90.12L178.92 89.85L179.17 90.12L180.06 89.95L180.38 90.41L181.59 90.73L182.28 89.72L182.84 89.73L182.65 90.23L183.74 91.09L183.71 91.87L184.54 91.59L186.11 93.12L186.67 92.78L186.89 93.14L186.68 93.39L187.15 93.67L187.35 94.23L187.87 94.08L187.97 93.73L188.3 94.6L189.16 94.93L189.56 94.61L190.34 95.29L190.66 96.28L192.09 96.71L191.74 97.11L191.86 97.46L192.44 97.49L192.69 98.23L193.57 98.43L194.35 99.78L195.1 100.07L195.97 99.49L196.97 99.69L197.02 100.49L198.29 100.57L198.43 99.87L200.24 99.93L200.81 99.36L200.84 99.89L201.73 99.65L203.54 101.92L204.15 101.88L203.97 102.51L205.11 102.3L205.14 102.89L206.47 103.74L207.79 103.35L208.31 102.91L213.7 105.32L214.61 105.44L215.79 104.99L217.45 105.5L219 105.06L220.2 105.15L220.58 104.49L221.49 103.79L222.44 103.5L223.05 102.66L223.96 102.52L225.92 103.56L231.62 103.84L238.03 99.69L239.58 96.32L239.54 95.34L240.73 92.29L241.06 89.93L241.88 88.96L245.08 80.03L245.63 79.48L245.8 77.79L245.14 76.37L245.22 74.94L245.98 74.91L246.91 73.98L249.3 73.9L259.09 71.58Z" fill="#EEEEEE" fill-opacity="0.8" stroke="black" stroke-opacity="0.8"/>
<path d="M185.89 348.38L184.64 349.15L182.83 349.21L181.92 349.62L180.83 350.48L180.92 352.13L180.65 352.34L178.22 352.19L177.02 351.77L172.62 351.72L171.23 351.29L170.12 351.83L168.97 351.08L165.97 350.12L165.22 349.92L164.95 350.11L160.36 348.95H159.86L157.81 350.71L157.31 350.62L156.67 350.96L153.54 350.67L151.38 350.87L149.35 351.7L148.42 352.71L148.1 354.17L149.41 354.94L148.16 355.47L145.52 355.61L143.42 356.73L142.91 357.81L143.01 358.18L143.83 358.49L142.82 359.04L142.73 359.47L143.04 359.7L142.32 359.86L141.83 360.46L140.37 361.01L137.31 361.45L133.19 360.23L130.8 360.59L130.28 360.89L130.44 361.39L130.06 361.35L129.51 361.99L127.17 362.87L122.61 361.03L119.29 360.49L116.8 360.72L115.46 361.52L115.4 361.91L115.93 362.78L115.78 363.48L115.3 363.94L110.51 363.13L107.17 363.78L105.75 364.38L104.42 365.53L103.72 366.99L102.26 367.6L101.83 368.2L99.57 369.43L99.32 370.59L97.6 370.85L95.47 372.04L94.61 373.16L94.62 374.03L95.04 374.27L94.86 374.53L94.1 374.59L93.67 375.16L93.06 375.24L92.17 374.63L91.62 374.65L91.4 374.12L90.07 373.1L85.28 372.97L84.83 373.4L84.95 373.6L83.94 373.88L83.67 373.61L84.02 373.37L83.79 372.73L83.18 372.84L82.88 371.98L81.61 371.41L81.01 370.17L79 369.59L78.62 368.6L78.04 368.09L74.9 368.9L75.25 368.3L75.9 368.13L76.55 366.53L77.19 366.06L76.56 364.01L75.37 362.31L75.75 362.02L76.47 362.47L76.74 362.11L77.41 362.01L77.27 361.87L75.55 361.84L75.05 362.09L74.42 361.86L73.09 362.8L72.19 362.31L70.56 362.14L70.36 361.78L70.66 361.48L69.96 360.57L70.77 360.1L70.59 359.95L70.98 359.07L70.45 359.24L69.76 360L69.9 360.52L68.37 359.72L67.27 359.88L66.55 360.44L65.09 360.23L64.72 360.79L63.83 360.66L63.82 361.22L63.21 360.85L62.91 361.2L62.44 359.94L62.99 359.65L62.51 358.35L63.51 357.36L63.63 356.89L62.65 354.96L63.95 353.97L62.53 352.19L61.37 351.56L59.92 351.3L57.3 351.39L54.26 352.14L52.8 353.2L52.46 354.87L53.27 355.27L53.84 356.56L53.39 358.96L53.71 359.69L54.37 360.24L53.75 360.27L53.21 359.59L52.26 359.13L51.29 357.25L51.04 355.15L50.54 354.57L50.14 354.6L49.69 353.68L50.58 352.91L50.5 351.91L50.98 351.03L50.84 350.68L50.49 350.51L50.22 350.99L49.38 350.26L50 349.8L50.42 348.64L51.04 348.22L51 347.16L51.75 345.91L52.56 345.89L52.83 346.56L53.67 346.17L54.08 345.23L54.02 344.12L53.01 342.06L52.78 339.51L51.73 337.43L51.17 337.25L50.7 336.04L49.4 335.58L49.6 333.82L48.84 332.19L47.6 330.82L45.2 329.04L45.59 328.64L45.55 328.16L43.94 325.16L41.64 322.7L40.62 322.31L40.71 321.81L40.13 321.34L40.3 320.98L40.62 321.09L40.87 320.11L41.28 320.22L41.77 321.01L41.74 321.79L42.2 322L42.02 322.5L42.75 322.83L43.76 324.27L44.22 324.3L44.63 323.89L44.6 323.65L44.28 323.92L43.56 323.39L43.76 322.52L42.19 321.24L42.51 319.6L42.18 318.83L41.18 317.97L40.71 317.94L40.02 318.29L39.82 319.27L39.18 319.6L38.63 319.38L38.87 318.53L38.06 317.79L38.36 317.31L38.38 316.81L38.11 316.74L38.43 316.53L38.42 316.08L38.23 315.58L37.75 315.37L38.36 313.87L37.36 312.69L38.92 311.87L38.73 310.15L39.35 309.63L39.36 309.25L40.15 309.51L40.54 308.81L41 308.91L40.91 309.66L41.94 310.1L41.81 310.38L42.88 311.42L44.79 311.21L47.87 308.14L49.36 305.32L49.89 303.6L50.13 301.44L49.57 297.11L50.18 297.04L50.4 296L49.26 291.01L49.17 290.31L49.58 290.01L49.59 289.62L48.31 285.6L48.69 284.31L47.56 282.06L47.27 279.85L44.81 275.96L44.43 274.76L38.79 267.74L38.23 266.83L38.27 265.6L37.9 264.99L36.05 263.16L35 261.55L36.76 262.27L36.26 259.52L38.93 257.08L37.73 254.8L40.75 254.44L40.86 250.65L42.63 250.29L43.32 250.52L45.41 252.37L46.6 251.39L47.79 251.33L50.4 246.83L50.9 244.14L51.72 242.51L51.24 240.68L54.45 244.49L53.79 242.38L53.77 240.52L55.7 240L58.12 243.44L60.69 244.01L61.72 245.62L61.34 246.75L63.42 248.58L65.77 248.86L66.18 252.76L63.86 253.5L66.5 255.02L64.71 256.45L64.4 258.06L65.71 260.39L65.46 263.68L66.1 265.24L67.58 265.79L66.6 267.17L67.72 268.31L68.02 270.51L67.26 271.97L69.03 272.52L68.47 273.73L68.95 273.78L69.36 274.54L68.92 274.91L69 276.8L68.41 276.81L69.63 279.92L69.27 280.2L69.43 281.15L68.18 282.37L68.13 284.2L69.67 284.32L70.93 285.15L71.62 284.8L72.21 285.05L72.35 285.48L74.33 283.55L73.71 286.33L74.99 286.76L75.73 288.41L76.69 288.49L77.03 288.93L77.86 288.59L78.83 289.7L79.9 289.93L79.68 292.3L80.26 294.94L77.74 296.37L78.11 298.6L78.75 299.2L80.14 301.83L79.65 305.28L80.87 307.78L82.83 306.51L82.95 305.94L82.11 304.19L83.08 302.44L83.07 300.82L83.66 300.35L84.4 301.65L85.65 301.14L85.22 300.3L85.98 299.59L86.77 300.09L88 299.25L88.06 298.48L89.21 298.69L89.41 299.15L91.31 298.84L93.86 296.5L94.33 295.05L95.44 295.08L95.99 293.95L97.6 292.8L98.36 293.29L98.34 294.25L98.99 294.47L99.35 296.62L98.69 296.26L97.02 297.94L97.21 298.81L96.14 299.91L94.99 299.34L95 300.84L96.55 306.53L97.94 307.86L97.89 310.61L100.37 311.65L101.42 313.4L102.21 313.71L102.31 315.09L103.21 314.94L104.25 316.12L106.09 315.95L107.76 314.51L108.8 316.12L110.21 315.67L111.96 315.87L112.36 314.97L114.01 314.29L114.62 312.25L114.4 310.1L113.9 309.53L113.95 308.75L115.04 307.85L118.43 306.92L119.45 307.49L123.44 306.19L122.98 304.89L124.25 301.48L125.43 301.11L126.4 300.23L126.88 298.66L127.65 298.86L129.47 298.17L130.06 298.5L131.19 297.22L131.91 297.39L133.46 296.76L133.21 294.27L135.19 293.57L136.7 294.85L138.05 293.49L138.98 293.91L139.05 294.51L141.34 295.43L143.11 295.1L143.44 293.85L145.18 293.17L145.27 290.42L146.89 289.67L147.39 291.18L148.41 288.96L147.18 287.66L147.56 286.45L146.85 285.01L147.61 284.31L147.19 282.74L149.49 283.74L149.64 280.62L151.76 276.6L152.1 274.81L152.76 274.38L157.35 277.02L159.33 277.43L159.39 278.44L160.57 279.07L159.86 281.36L161.48 281.88L163.97 281.41L164.91 282.84L166.89 282.19L167.18 283.19L167.96 283.54L170.06 282.9L172.36 283.94L171.96 285.2L172.97 286.72L176.71 283.42L176.7 282.58L177.62 281.5L178.07 279.6L179.55 278.7L181.35 278.6L181.57 277.75L184.4 278.3L185.16 277.91L185.8 277.96L186.34 276.93L186.74 276.77L187.4 277.1L190.01 277.07L190.28 278.08L192.61 279.09L192.65 279.71L191.76 280.4L192.89 280.77L193.39 282.05L194.16 282.02L194.6 280.94L195.54 280.51L195.95 278.58L198.1 278.55L197.65 279.17L198.75 281.17L200.93 281.05L201.43 281.92L200.88 281.94L201.02 282.8L200.38 282.72L199.65 284.49L201.06 284.24L202.1 285.03L201.85 285.36L202.43 285.83L201.28 287.55L200.18 287.29L199.73 287.98L200.27 288.28L200.29 289.02L199.28 289.1L199.37 290.22L200.16 290.29L200.15 291.26L198.98 292.21L197.73 292.04L197.85 292.79L193.83 294.97L192.65 294.75L192.2 293.69L190.68 292.85L190.26 293.42L188.14 294.64L187.56 296.27L188.25 297.04L187.94 297.64L182.4 297.48L181.3 299.03L179.61 298.28L179.27 299.04L176.57 300.43L177.18 301.54L177 303.03L178.12 303.78L178.79 306.75L178.34 307.26L177.62 307.47L179.52 308.77L179.84 310.46L180.78 310.96L180.6 312.74L177.95 311.91L175.79 311.6L174.37 313.2L172.76 311.03L173.53 313.77L173.18 314.33L171.23 314.27L170.96 315L169.55 316.32L169.89 317.7L168.98 318.53L169.71 319.36L169.51 320.91L168.06 322.32L167.1 324.7L166.6 324.93L165.01 327.87L164.07 328.03L164.14 329.6L164.64 330.49L168.47 330.89L172.16 329.93L172.59 330.33L174.18 329.99L178.73 330.14L179.54 331.43L183.6 331.51L183.85 332.08L186.06 333.19L186.27 335.53L188.14 337.18L188 338.37L185.9 338.59L185.17 338.12L184.59 339.11L181.84 340.15L181.8 341.23L180.64 342.25L183.2 342.74L183.94 342.08L185.17 342.26L185.26 343.7L188.94 345.08L187.4 347.12L187.71 348.5L185.89 348.38Z" fill="#EEEEEE" fill-opacity="0.8" stroke="black" stroke-opacity="0.8"/>
<circle cx="68" cy="341" r="15" fill="#FFA500"/>
<path d="M57.0611 348V346.006L61.7209 341.691C62.1172 341.308 62.4496 340.962 62.718 340.656C62.9908 340.349 63.1974 340.048 63.3381 339.754C63.4787 339.456 63.549 339.134 63.549 338.789C63.549 338.406 63.4616 338.075 63.2869 337.798C63.1122 337.517 62.8736 337.302 62.571 337.153C62.2685 336.999 61.9254 336.923 61.5419 336.923C61.1413 336.923 60.7919 337.004 60.4936 337.165C60.1953 337.327 59.9652 337.56 59.8033 337.862C59.6413 338.165 59.5604 338.525 59.5604 338.942H56.9332C56.9332 338.086 57.1271 337.342 57.5149 336.712C57.9027 336.081 58.446 335.593 59.1449 335.248C59.8438 334.903 60.6491 334.73 61.5611 334.73C62.4986 334.73 63.3146 334.896 64.0092 335.229C64.7081 335.557 65.2514 336.013 65.6392 336.597C66.027 337.18 66.2209 337.849 66.2209 338.604C66.2209 339.098 66.1229 339.586 65.9268 340.067C65.7351 340.549 65.392 341.084 64.8977 341.672C64.4034 342.256 63.7067 342.957 62.8075 343.775L60.8963 345.648V345.737H66.3935V348H57.0611ZM73.1802 348.179C72.2768 348.179 71.4714 348.013 70.764 347.68C70.0609 347.348 69.5027 346.89 69.0893 346.306C68.676 345.722 68.4608 345.053 68.4437 344.299H71.1284C71.1582 344.806 71.3713 345.217 71.7676 345.533C72.1639 345.848 72.6348 346.006 73.1802 346.006C73.6149 346.006 73.9984 345.91 74.3308 345.718C74.6674 345.522 74.9295 345.251 75.117 344.906C75.3088 344.557 75.4047 344.156 75.4047 343.705C75.4047 343.244 75.3066 342.839 75.1106 342.49C74.9189 342.141 74.6525 341.868 74.3116 341.672C73.9707 341.476 73.5808 341.376 73.1419 341.371C72.7583 341.371 72.3855 341.45 72.0233 341.608C71.6653 341.766 71.3862 341.981 71.1859 342.254L68.725 341.812L69.345 334.909H77.3478V337.172H71.627L71.2882 340.451H71.3649C71.595 340.127 71.9423 339.859 72.4068 339.646C72.8713 339.433 73.3912 339.326 73.9664 339.326C74.7548 339.326 75.4579 339.511 76.0758 339.882C76.6937 340.253 77.1816 340.762 77.5396 341.41C77.8976 342.053 78.0744 342.795 78.0701 343.634C78.0744 344.516 77.8699 345.3 77.4565 345.987C77.0474 346.668 76.4743 347.205 75.737 347.597C75.0041 347.985 74.1518 348.179 73.1802 348.179Z" fill="black"/>
<circle cx="229" cy="333" r="15" fill="#FFA500"/>
<path d="M217.863 337.699V335.519L223.328 326.909H225.207V329.926H224.095L220.65 335.379V335.481H228.416V337.699H217.863ZM224.146 340V337.034L224.197 336.069V326.909H226.793V340H224.146ZM235.042 340.179C234.138 340.179 233.333 340.013 232.625 339.68C231.922 339.348 231.364 338.89 230.951 338.306C230.537 337.722 230.322 337.053 230.305 336.299H232.99C233.02 336.806 233.233 337.217 233.629 337.533C234.025 337.848 234.496 338.006 235.042 338.006C235.476 338.006 235.86 337.91 236.192 337.718C236.529 337.522 236.791 337.251 236.978 336.906C237.17 336.557 237.266 336.156 237.266 335.705C237.266 335.244 237.168 334.839 236.972 334.49C236.78 334.141 236.514 333.868 236.173 333.672C235.832 333.476 235.442 333.376 235.003 333.371C234.62 333.371 234.247 333.45 233.885 333.608C233.527 333.766 233.248 333.981 233.047 334.254L230.586 333.812L231.206 326.909H239.209V329.172H233.488L233.15 332.451H233.226C233.456 332.127 233.804 331.859 234.268 331.646C234.733 331.433 235.252 331.326 235.828 331.326C236.616 331.326 237.319 331.511 237.937 331.882C238.555 332.253 239.043 332.762 239.401 333.41C239.759 334.053 239.936 334.795 239.931 335.634C239.936 336.516 239.731 337.3 239.318 337.987C238.909 338.668 238.336 339.205 237.598 339.597C236.865 339.985 236.013 340.179 235.042 340.179Z" fill="black"/>
<circle cx="276" cy="316" r="15" fill="#FFA500"/>
<path d="M270.756 309.909V323H267.989V312.536H267.912L264.914 314.415V311.961L268.155 309.909H270.756ZM278.649 323.179C277.746 323.179 276.94 323.013 276.233 322.68C275.53 322.348 274.971 321.89 274.558 321.306C274.145 320.722 273.93 320.053 273.912 319.299H276.597C276.627 319.806 276.84 320.217 277.236 320.533C277.633 320.848 278.104 321.006 278.649 321.006C279.084 321.006 279.467 320.91 279.8 320.718C280.136 320.522 280.398 320.251 280.586 319.906C280.778 319.557 280.873 319.156 280.873 318.705C280.873 318.244 280.775 317.839 280.579 317.49C280.388 317.141 280.121 316.868 279.78 316.672C279.439 316.476 279.05 316.376 278.611 316.371C278.227 316.371 277.854 316.45 277.492 316.608C277.134 316.766 276.855 316.981 276.655 317.254L274.194 316.812L274.814 309.909H282.817V312.172H277.096L276.757 315.451H276.834C277.064 315.127 277.411 314.859 277.876 314.646C278.34 314.433 278.86 314.326 279.435 314.326C280.224 314.326 280.927 314.511 281.545 314.882C282.162 315.253 282.65 315.762 283.008 316.41C283.366 317.053 283.543 317.795 283.539 318.634C283.543 319.516 283.339 320.3 282.925 320.987C282.516 321.668 281.943 322.205 281.206 322.597C280.473 322.985 279.621 323.179 278.649 323.179Z" fill="black"/>
<circle cx="362" cy="221" r="15" fill="#FFA500"/>
<path d="M356.085 228.179C355.412 228.175 354.762 228.062 354.136 227.84C353.513 227.619 352.955 227.259 352.461 226.76C351.967 226.261 351.575 225.601 351.285 224.778C350.999 223.956 350.857 222.946 350.857 221.749C350.861 220.649 350.987 219.667 351.234 218.802C351.485 217.933 351.843 217.195 352.308 216.59C352.776 215.985 353.337 215.525 353.989 215.21C354.641 214.89 355.371 214.73 356.181 214.73C357.055 214.73 357.826 214.901 358.495 215.241C359.164 215.578 359.701 216.036 360.106 216.616C360.515 217.195 360.762 217.845 360.847 218.565H358.118C358.011 218.109 357.788 217.751 357.447 217.491C357.106 217.232 356.684 217.102 356.181 217.102C355.329 217.102 354.681 217.472 354.238 218.214C353.799 218.955 353.575 219.963 353.567 221.237H353.656C353.852 220.849 354.116 220.519 354.449 220.246C354.786 219.969 355.167 219.759 355.593 219.614C356.023 219.464 356.477 219.39 356.955 219.39C357.73 219.39 358.42 219.573 359.026 219.94C359.631 220.302 360.108 220.8 360.457 221.435C360.807 222.07 360.982 222.797 360.982 223.615C360.982 224.501 360.775 225.29 360.362 225.98C359.952 226.67 359.379 227.212 358.642 227.604C357.909 227.991 357.057 228.183 356.085 228.179ZM356.072 226.006C356.499 226.006 356.88 225.903 357.217 225.699C357.553 225.494 357.817 225.217 358.009 224.868C358.201 224.518 358.297 224.126 358.297 223.692C358.297 223.257 358.201 222.867 358.009 222.522C357.822 222.177 357.562 221.902 357.229 221.697C356.897 221.493 356.518 221.391 356.092 221.391C355.772 221.391 355.476 221.45 355.203 221.57C354.935 221.689 354.698 221.855 354.494 222.068C354.293 222.281 354.136 222.528 354.021 222.81C353.906 223.087 353.848 223.383 353.848 223.698C353.848 224.12 353.944 224.506 354.136 224.855C354.332 225.205 354.596 225.484 354.928 225.692C355.265 225.901 355.646 226.006 356.072 226.006ZM367.783 228.179C366.828 228.179 365.978 228.015 365.232 227.687C364.491 227.354 363.905 226.898 363.474 226.319C363.048 225.735 362.829 225.062 362.816 224.299H365.603C365.62 224.619 365.724 224.9 365.916 225.143C366.112 225.381 366.372 225.567 366.696 225.699C367.02 225.831 367.384 225.897 367.789 225.897C368.211 225.897 368.584 225.822 368.908 225.673C369.232 225.524 369.485 225.317 369.668 225.053C369.852 224.789 369.943 224.484 369.943 224.139C369.943 223.79 369.845 223.481 369.649 223.212C369.457 222.94 369.18 222.727 368.818 222.573C368.46 222.42 368.034 222.343 367.54 222.343H366.319V220.31H367.54C367.957 220.31 368.326 220.238 368.646 220.093C368.969 219.948 369.221 219.748 369.4 219.492C369.579 219.232 369.668 218.93 369.668 218.585C369.668 218.256 369.589 217.969 369.432 217.722C369.278 217.47 369.061 217.274 368.78 217.134C368.503 216.993 368.179 216.923 367.808 216.923C367.433 216.923 367.09 216.991 366.779 217.127C366.468 217.259 366.219 217.449 366.031 217.696C365.844 217.943 365.744 218.233 365.731 218.565H363.078C363.091 217.811 363.306 217.146 363.724 216.571C364.141 215.996 364.704 215.546 365.411 215.222C366.123 214.894 366.926 214.73 367.821 214.73C368.724 214.73 369.515 214.894 370.192 215.222C370.87 215.55 371.396 215.994 371.771 216.552C372.151 217.106 372.338 217.728 372.334 218.418C372.338 219.151 372.11 219.763 371.65 220.253C371.194 220.743 370.599 221.054 369.866 221.186V221.288C370.83 221.412 371.563 221.746 372.065 222.292C372.572 222.833 372.824 223.511 372.82 224.325C372.824 225.07 372.609 225.733 372.174 226.312C371.744 226.892 371.149 227.348 370.391 227.68C369.632 228.013 368.763 228.179 367.783 228.179Z" fill="black"/>
<circle cx="301" cy="113" r="13" fill="#FFA500"/>
<path d="M290.648 117V115.781L293.496 113.145C293.738 112.91 293.941 112.699 294.105 112.512C294.272 112.324 294.398 112.141 294.484 111.961C294.57 111.779 294.613 111.582 294.613 111.371C294.613 111.137 294.56 110.935 294.453 110.766C294.346 110.594 294.201 110.462 294.016 110.371C293.831 110.277 293.621 110.23 293.387 110.23C293.142 110.23 292.928 110.28 292.746 110.379C292.564 110.478 292.423 110.62 292.324 110.805C292.225 110.99 292.176 111.21 292.176 111.465H290.57C290.57 110.941 290.689 110.487 290.926 110.102C291.163 109.716 291.495 109.418 291.922 109.207C292.349 108.996 292.841 108.891 293.398 108.891C293.971 108.891 294.47 108.992 294.895 109.195C295.322 109.396 295.654 109.674 295.891 110.031C296.128 110.388 296.246 110.797 296.246 111.258C296.246 111.56 296.186 111.858 296.066 112.152C295.949 112.447 295.74 112.773 295.438 113.133C295.135 113.49 294.71 113.918 294.16 114.418L292.992 115.562V115.617H296.352V117H290.648ZM300.714 117.176C300.042 117.173 299.464 117.008 298.979 116.68C298.498 116.352 298.127 115.876 297.866 115.254C297.608 114.632 297.481 113.883 297.483 113.008C297.483 112.135 297.612 111.392 297.87 110.777C298.131 110.163 298.502 109.695 298.983 109.375C299.468 109.052 300.045 108.891 300.714 108.891C301.383 108.891 301.959 109.052 302.44 109.375C302.925 109.698 303.297 110.167 303.558 110.781C303.818 111.393 303.947 112.135 303.944 113.008C303.944 113.885 303.814 114.635 303.554 115.258C303.296 115.88 302.926 116.355 302.444 116.684C301.963 117.012 301.386 117.176 300.714 117.176ZM300.714 115.773C301.172 115.773 301.538 115.543 301.812 115.082C302.085 114.621 302.22 113.93 302.218 113.008C302.218 112.401 302.155 111.896 302.03 111.492C301.908 111.089 301.733 110.785 301.507 110.582C301.283 110.379 301.019 110.277 300.714 110.277C300.258 110.277 299.894 110.505 299.62 110.961C299.347 111.417 299.209 112.099 299.206 113.008C299.206 113.622 299.267 114.135 299.39 114.547C299.515 114.956 299.69 115.263 299.917 115.469C300.144 115.672 300.409 115.773 300.714 115.773ZM308.287 117.176C307.615 117.173 307.037 117.008 306.553 116.68C306.071 116.352 305.7 115.876 305.439 115.254C305.182 114.632 305.054 113.883 305.057 113.008C305.057 112.135 305.186 111.392 305.443 110.777C305.704 110.163 306.075 109.695 306.557 109.375C307.041 109.052 307.618 108.891 308.287 108.891C308.956 108.891 309.532 109.052 310.014 109.375C310.498 109.698 310.87 110.167 311.131 110.781C311.391 111.393 311.52 112.135 311.518 113.008C311.518 113.885 311.387 114.635 311.127 115.258C310.869 115.88 310.499 116.355 310.018 116.684C309.536 117.012 308.959 117.176 308.287 117.176ZM308.287 115.773C308.745 115.773 309.111 115.543 309.385 115.082C309.658 114.621 309.794 113.93 309.791 113.008C309.791 112.401 309.729 111.896 309.604 111.492C309.481 111.089 309.307 110.785 309.08 110.582C308.856 110.379 308.592 110.277 308.287 110.277C307.831 110.277 307.467 110.505 307.193 110.961C306.92 111.417 306.782 112.099 306.779 113.008C306.779 113.622 306.84 114.135 306.963 114.547C307.088 114.956 307.264 115.263 307.49 115.469C307.717 115.672 307.982 115.773 308.287 115.773Z" fill="black"/>
<circle cx="372" cy="96" r="15" fill="#FFA500"/>
<path d="M365.842 103.179C364.939 103.179 364.134 103.013 363.426 102.68C362.723 102.348 362.165 101.89 361.751 101.306C361.338 100.722 361.123 100.053 361.106 99.299H363.79C363.82 99.8061 364.033 100.217 364.43 100.533C364.826 100.848 365.297 101.006 365.842 101.006C366.277 101.006 366.661 100.91 366.993 100.718C367.33 100.522 367.592 100.251 367.779 99.9062C367.971 99.5568 368.067 99.1562 368.067 98.7045C368.067 98.2443 367.969 97.8395 367.773 97.4901C367.581 97.1406 367.315 96.8679 366.974 96.6719C366.633 96.4759 366.243 96.3757 365.804 96.3714C365.42 96.3714 365.048 96.4503 364.685 96.608C364.327 96.7656 364.048 96.9808 363.848 97.2536L361.387 96.8125L362.007 89.9091H370.01V92.1719H364.289L363.95 95.451H364.027C364.257 95.1271 364.604 94.8587 365.069 94.6456C365.533 94.4325 366.053 94.326 366.629 94.326C367.417 94.326 368.12 94.5114 368.738 94.8821C369.356 95.2528 369.844 95.7621 370.202 96.4098C370.56 97.0533 370.737 97.7947 370.732 98.6342C370.737 99.5163 370.532 100.3 370.119 100.987C369.71 101.668 369.136 102.205 368.399 102.597C367.666 102.985 366.814 103.179 365.842 103.179ZM377.795 103.288C376.696 103.283 375.75 103.013 374.957 102.476C374.169 101.939 373.562 101.161 373.136 100.143C372.714 99.1243 372.505 97.8991 372.509 96.4673C372.509 95.0398 372.72 93.8232 373.142 92.8175C373.568 91.8118 374.175 91.0469 374.964 90.5227C375.756 89.9943 376.7 89.7301 377.795 89.7301C378.891 89.7301 379.832 89.9943 380.621 90.5227C381.413 91.0511 382.023 91.8182 382.449 92.8239C382.875 93.8253 383.086 95.0398 383.082 96.4673C383.082 97.9034 382.869 99.1307 382.442 100.149C382.021 101.168 381.415 101.945 380.627 102.482C379.839 103.019 378.895 103.288 377.795 103.288ZM377.795 100.993C378.545 100.993 379.144 100.616 379.592 99.8615C380.039 99.1072 380.261 97.9759 380.256 96.4673C380.256 95.4744 380.154 94.6477 379.95 93.9872C379.749 93.3267 379.464 92.8303 379.093 92.4979C378.727 92.1655 378.294 91.9993 377.795 91.9993C377.05 91.9993 376.453 92.3722 376.006 93.1179C375.558 93.8636 375.332 94.9801 375.328 96.4673C375.328 97.473 375.428 98.3125 375.629 98.9858C375.833 99.6548 376.121 100.158 376.491 100.494C376.862 100.827 377.297 100.993 377.795 100.993Z" fill="black"/>
<circle cx="390" cy="163" r="15" fill="#FFA500"/>
<path d="M383.9 170.179C382.945 170.179 382.095 170.015 381.349 169.687C380.608 169.354 380.022 168.898 379.592 168.319C379.165 167.735 378.946 167.062 378.933 166.299H381.72C381.737 166.619 381.842 166.9 382.033 167.143C382.229 167.381 382.489 167.567 382.813 167.699C383.137 167.831 383.501 167.897 383.906 167.897C384.328 167.897 384.701 167.822 385.025 167.673C385.349 167.524 385.602 167.317 385.786 167.053C385.969 166.789 386.06 166.484 386.06 166.139C386.06 165.79 385.962 165.481 385.766 165.212C385.575 164.94 385.298 164.727 384.935 164.573C384.577 164.42 384.151 164.343 383.657 164.343H382.436V162.31H383.657C384.075 162.31 384.443 162.238 384.763 162.093C385.087 161.948 385.338 161.748 385.517 161.492C385.696 161.232 385.786 160.93 385.786 160.585C385.786 160.256 385.707 159.969 385.549 159.722C385.396 159.47 385.178 159.274 384.897 159.134C384.62 158.993 384.296 158.923 383.925 158.923C383.55 158.923 383.207 158.991 382.896 159.127C382.585 159.259 382.336 159.449 382.148 159.696C381.961 159.943 381.861 160.233 381.848 160.565H379.195C379.208 159.811 379.423 159.146 379.841 158.571C380.259 157.996 380.821 157.546 381.528 157.222C382.24 156.894 383.043 156.73 383.938 156.73C384.842 156.73 385.632 156.894 386.31 157.222C386.987 157.55 387.513 157.994 387.888 158.552C388.268 159.106 388.455 159.728 388.451 160.418C388.455 161.151 388.227 161.763 387.767 162.253C387.311 162.743 386.717 163.054 385.984 163.186V163.288C386.947 163.412 387.68 163.746 388.183 164.292C388.69 164.833 388.941 165.511 388.937 166.325C388.941 167.07 388.726 167.733 388.291 168.312C387.861 168.892 387.266 169.348 386.508 169.68C385.749 170.013 384.88 170.179 383.9 170.179ZM396.059 170.288C394.96 170.283 394.014 170.013 393.221 169.476C392.433 168.939 391.825 168.161 391.399 167.143C390.977 166.124 390.769 164.899 390.773 163.467C390.773 162.04 390.984 160.823 391.406 159.817C391.832 158.812 392.439 158.047 393.227 157.523C394.02 156.994 394.964 156.73 396.059 156.73C397.154 156.73 398.096 156.994 398.884 157.523C399.677 158.051 400.286 158.818 400.713 159.824C401.139 160.825 401.35 162.04 401.345 163.467C401.345 164.903 401.132 166.131 400.706 167.149C400.284 168.168 399.679 168.945 398.891 169.482C398.102 170.019 397.159 170.288 396.059 170.288ZM396.059 167.993C396.809 167.993 397.408 167.616 397.855 166.862C398.303 166.107 398.524 164.976 398.52 163.467C398.52 162.474 398.418 161.648 398.213 160.987C398.013 160.327 397.727 159.83 397.357 159.498C396.99 159.165 396.558 158.999 396.059 158.999C395.313 158.999 394.717 159.372 394.269 160.118C393.822 160.864 393.596 161.98 393.592 163.467C393.592 164.473 393.692 165.312 393.892 165.986C394.097 166.655 394.384 167.158 394.755 167.494C395.126 167.827 395.561 167.993 396.059 167.993Z" fill="black"/>
<circle cx="125" cy="174" r="15" fill="#FFA500"/>
<path d="M119.756 167.909V181H116.989V170.536H116.912L113.914 172.415V169.961L117.155 167.909H119.756ZM128.001 181.288C126.901 181.283 125.955 181.013 125.162 180.476C124.374 179.939 123.767 179.161 123.341 178.143C122.919 177.124 122.71 175.899 122.714 174.467C122.714 173.04 122.925 171.823 123.347 170.817C123.773 169.812 124.381 169.047 125.169 168.523C125.961 167.994 126.905 167.73 128.001 167.73C129.096 167.73 130.037 167.994 130.826 168.523C131.618 169.051 132.228 169.818 132.654 170.824C133.08 171.825 133.291 173.04 133.287 174.467C133.287 175.903 133.074 177.131 132.648 178.149C132.226 179.168 131.621 179.945 130.832 180.482C130.044 181.019 129.1 181.288 128.001 181.288ZM128.001 178.993C128.751 178.993 129.349 178.616 129.797 177.862C130.244 177.107 130.466 175.976 130.461 174.467C130.461 173.474 130.359 172.648 130.155 171.987C129.954 171.327 129.669 170.83 129.298 170.498C128.932 170.165 128.499 169.999 128.001 169.999C127.255 169.999 126.658 170.372 126.211 171.118C125.763 171.864 125.537 172.98 125.533 174.467C125.533 175.473 125.633 176.312 125.834 176.986C126.038 177.655 126.326 178.158 126.697 178.494C127.067 178.827 127.502 178.993 128.001 178.993Z" fill="black"/>
<circle cx="217" cy="167" r="15" fill="#FFA500"/>
<path d="M206.061 174V172.006L210.721 167.691C211.117 167.308 211.45 166.962 211.718 166.656C211.991 166.349 212.197 166.048 212.338 165.754C212.479 165.456 212.549 165.134 212.549 164.789C212.549 164.406 212.462 164.075 212.287 163.798C212.112 163.517 211.874 163.302 211.571 163.153C211.268 162.999 210.925 162.923 210.542 162.923C210.141 162.923 209.792 163.004 209.494 163.165C209.195 163.327 208.965 163.56 208.803 163.862C208.641 164.165 208.56 164.525 208.56 164.942H205.933C205.933 164.086 206.127 163.342 206.515 162.712C206.903 162.081 207.446 161.593 208.145 161.248C208.844 160.903 209.649 160.73 210.561 160.73C211.499 160.73 212.315 160.896 213.009 161.229C213.708 161.557 214.251 162.013 214.639 162.597C215.027 163.18 215.221 163.849 215.221 164.604C215.221 165.098 215.123 165.586 214.927 166.067C214.735 166.549 214.392 167.084 213.898 167.672C213.403 168.256 212.707 168.957 211.808 169.775L209.896 171.648V171.737H215.393V174H206.061ZM222.18 174.179C221.277 174.179 220.471 174.013 219.764 173.68C219.061 173.348 218.503 172.89 218.089 172.306C217.676 171.722 217.461 171.053 217.444 170.299H220.128C220.158 170.806 220.371 171.217 220.768 171.533C221.164 171.848 221.635 172.006 222.18 172.006C222.615 172.006 222.998 171.91 223.331 171.718C223.667 171.522 223.93 171.251 224.117 170.906C224.309 170.557 224.405 170.156 224.405 169.705C224.405 169.244 224.307 168.839 224.111 168.49C223.919 168.141 223.653 167.868 223.312 167.672C222.971 167.476 222.581 167.376 222.142 167.371C221.758 167.371 221.385 167.45 221.023 167.608C220.665 167.766 220.386 167.981 220.186 168.254L217.725 167.812L218.345 160.909H226.348V163.172H220.627L220.288 166.451H220.365C220.595 166.127 220.942 165.859 221.407 165.646C221.871 165.433 222.391 165.326 222.966 165.326C223.755 165.326 224.458 165.511 225.076 165.882C225.694 166.253 226.182 166.762 226.54 167.41C226.898 168.053 227.074 168.795 227.07 169.634C227.074 170.516 226.87 171.3 226.456 171.987C226.047 172.668 225.474 173.205 224.737 173.597C224.004 173.985 223.152 174.179 222.18 174.179Z" fill="black"/>
<circle cx="276" cy="186" r="15" fill="#FFA500"/>
<path d="M265.061 193V191.006L269.721 186.691C270.117 186.308 270.45 185.962 270.718 185.656C270.991 185.349 271.197 185.048 271.338 184.754C271.479 184.456 271.549 184.134 271.549 183.789C271.549 183.406 271.462 183.075 271.287 182.798C271.112 182.517 270.874 182.302 270.571 182.153C270.268 181.999 269.925 181.923 269.542 181.923C269.141 181.923 268.792 182.004 268.494 182.165C268.195 182.327 267.965 182.56 267.803 182.862C267.641 183.165 267.56 183.525 267.56 183.942H264.933C264.933 183.086 265.127 182.342 265.515 181.712C265.903 181.081 266.446 180.593 267.145 180.248C267.844 179.903 268.649 179.73 269.561 179.73C270.499 179.73 271.315 179.896 272.009 180.229C272.708 180.557 273.251 181.013 273.639 181.597C274.027 182.18 274.221 182.849 274.221 183.604C274.221 184.098 274.123 184.586 273.927 185.067C273.735 185.549 273.392 186.084 272.898 186.672C272.403 187.256 271.707 187.957 270.808 188.775L268.896 190.648V190.737H274.393V193H265.061ZM281.532 193.288C280.432 193.283 279.486 193.013 278.694 192.476C277.905 191.939 277.298 191.161 276.872 190.143C276.45 189.124 276.241 187.899 276.246 186.467C276.246 185.04 276.456 183.823 276.878 182.817C277.305 181.812 277.912 181.047 278.7 180.523C279.493 179.994 280.437 179.73 281.532 179.73C282.627 179.73 283.569 179.994 284.357 180.523C285.15 181.051 285.759 181.818 286.185 182.824C286.611 183.825 286.822 185.04 286.818 186.467C286.818 187.903 286.605 189.131 286.179 190.149C285.757 191.168 285.152 191.945 284.363 192.482C283.575 193.019 282.631 193.288 281.532 193.288ZM281.532 190.993C282.282 190.993 282.881 190.616 283.328 189.862C283.775 189.107 283.997 187.976 283.993 186.467C283.993 185.474 283.89 184.648 283.686 183.987C283.486 183.327 283.2 182.83 282.829 182.498C282.463 182.165 282.03 181.999 281.532 181.999C280.786 181.999 280.189 182.372 279.742 183.118C279.295 183.864 279.069 184.98 279.064 186.467C279.064 187.473 279.165 188.312 279.365 188.986C279.569 189.655 279.857 190.158 280.228 190.494C280.599 190.827 281.033 190.993 281.532 190.993Z" fill="black"/>
<circle cx="345" cy="21" r="15" fill="#FFA500"/>
<path d="M345.085 28.179C344.412 28.1747 343.762 28.0618 343.136 27.8402C342.513 27.6186 341.955 27.2585 341.461 26.7599C340.967 26.2614 340.575 25.6009 340.285 24.7784C339.999 23.956 339.857 22.946 339.857 21.7486C339.861 20.6491 339.987 19.6669 340.234 18.8018C340.485 17.9325 340.843 17.1953 341.308 16.5902C341.776 15.9851 342.337 15.5249 342.989 15.2095C343.641 14.8899 344.371 14.7301 345.181 14.7301C346.055 14.7301 346.826 14.9006 347.495 15.2415C348.164 15.5781 348.701 16.0362 349.106 16.6158C349.515 17.1953 349.762 17.8452 349.847 18.5653H347.118C347.011 18.1094 346.788 17.7514 346.447 17.4915C346.106 17.2315 345.684 17.1016 345.181 17.1016C344.329 17.1016 343.681 17.4723 343.238 18.2138C342.799 18.9553 342.575 19.9631 342.567 21.2372H342.656C342.852 20.8494 343.116 20.5192 343.449 20.2464C343.786 19.9695 344.167 19.7585 344.593 19.6136C345.023 19.4645 345.477 19.3899 345.955 19.3899C346.73 19.3899 347.42 19.5732 348.026 19.9396C348.631 20.3018 349.108 20.8004 349.457 21.4354C349.807 22.0703 349.982 22.7969 349.982 23.6151C349.982 24.5014 349.775 25.2898 349.362 25.9801C348.952 26.6705 348.379 27.2116 347.642 27.6037C346.909 27.9915 346.057 28.1832 345.085 28.179ZM345.072 26.0057C345.499 26.0057 345.88 25.9034 346.217 25.6989C346.553 25.4943 346.817 25.2173 347.009 24.8679C347.201 24.5185 347.297 24.1264 347.297 23.6918C347.297 23.2571 347.201 22.8672 347.009 22.522C346.822 22.1768 346.562 21.902 346.229 21.6974C345.897 21.4929 345.518 21.3906 345.092 21.3906C344.772 21.3906 344.476 21.4503 344.203 21.5696C343.935 21.6889 343.698 21.8551 343.494 22.0682C343.293 22.2812 343.136 22.5284 343.021 22.8097C342.906 23.0866 342.848 23.3828 342.848 23.6982C342.848 24.12 342.944 24.5057 343.136 24.8551C343.332 25.2045 343.596 25.4837 343.928 25.6925C344.265 25.9013 344.646 26.0057 345.072 26.0057Z" fill="black"/>
<circle cx="232" cy="118" r="15" fill="#FFA500"/>
<path d="M231.842 125.179C230.939 125.179 230.134 125.013 229.426 124.68C228.723 124.348 228.165 123.89 227.751 123.306C227.338 122.722 227.123 122.053 227.106 121.299H229.79C229.82 121.806 230.033 122.217 230.43 122.533C230.826 122.848 231.297 123.006 231.842 123.006C232.277 123.006 232.661 122.91 232.993 122.718C233.33 122.522 233.592 122.251 233.779 121.906C233.971 121.557 234.067 121.156 234.067 120.705C234.067 120.244 233.969 119.839 233.773 119.49C233.581 119.141 233.315 118.868 232.974 118.672C232.633 118.476 232.243 118.376 231.804 118.371C231.42 118.371 231.048 118.45 230.685 118.608C230.327 118.766 230.048 118.981 229.848 119.254L227.387 118.812L228.007 111.909H236.01V114.172H230.289L229.95 117.451H230.027C230.257 117.127 230.604 116.859 231.069 116.646C231.533 116.433 232.053 116.326 232.629 116.326C233.417 116.326 234.12 116.511 234.738 116.882C235.356 117.253 235.844 117.762 236.202 118.41C236.56 119.053 236.737 119.795 236.732 120.634C236.737 121.516 236.532 122.3 236.119 122.987C235.71 123.668 235.136 124.205 234.399 124.597C233.666 124.985 232.814 125.179 231.842 125.179Z" fill="black"/>
<circle cx="323" cy="61" r="15" fill="#FFA500"/>
<path d="M318.756 54.9091V68H315.989V57.5362H315.912L312.914 59.4155V56.9609L316.155 54.9091H318.756ZM321.868 68V66.0057L326.528 61.6911C326.924 61.3075 327.256 60.9624 327.525 60.6555C327.797 60.3487 328.004 60.0483 328.145 59.7543C328.285 59.456 328.356 59.1342 328.356 58.7891C328.356 58.4055 328.268 58.0753 328.094 57.7983C327.919 57.517 327.68 57.3018 327.378 57.1527C327.075 56.9993 326.732 56.9226 326.349 56.9226C325.948 56.9226 325.599 57.0036 325.3 57.1655C325.002 57.3274 324.772 57.5597 324.61 57.8622C324.448 58.1648 324.367 58.5249 324.367 58.9425H321.74C321.74 58.0859 321.934 57.3423 322.322 56.7116C322.709 56.081 323.253 55.593 323.952 55.2479C324.65 54.9027 325.456 54.7301 326.368 54.7301C327.305 54.7301 328.121 54.8963 328.816 55.2287C329.515 55.5568 330.058 56.0128 330.446 56.5966C330.834 57.1804 331.028 57.8494 331.028 58.6037C331.028 59.098 330.93 59.5859 330.733 60.0675C330.542 60.549 330.199 61.0838 329.704 61.6719C329.21 62.2557 328.513 62.9567 327.614 63.7749L325.703 65.6477V65.7372H331.2V68H321.868Z" fill="black"/>
</svg>
